<?xml version="1.0" encoding="utf-8"?>
<!-- Generator: Adobe Illustrator 19.0.0, SVG Export Plug-In . SVG Version: 6.00 Build 0)  -->
<svg version="1.1" id="layer" xmlns="http://www.w3.org/2000/svg" xmlns:xlink="http://www.w3.org/1999/xlink" x="0px" y="0px"
	 width="48px" height="48px" viewBox="0 0 48 48" style="enable-background:new 0 0 48 48;" xml:space="preserve">
<g>
	
		<linearGradient id="XMLID_12_" gradientUnits="userSpaceOnUse" x1="5.5651" y1="43.1378" x2="42.9393" y2="5.7637" gradientTransform="matrix(1 0 0 -1 0 50)">
		<stop  offset="0" style="stop-color:#DEBDDA"/>
		<stop  offset="0.5152" style="stop-color:#9C52A0"/>
		<stop  offset="1" style="stop-color:#903F98"/>
	</linearGradient>
	<path id="XMLID_10_" style="fill:url(#XMLID_12_);" d="M28.1,27.4c0-1.1-0.7-1.6-2.1-1.6h-0.9v3.3H26
		C27.4,29.1,28.1,28.6,28.1,27.4z"/>
	
		<linearGradient id="XMLID_13_" gradientUnits="userSpaceOnUse" x1="8.6651" y1="46.2379" x2="46.0393" y2="8.8637" gradientTransform="matrix(1 0 0 -1 0 50)">
		<stop  offset="0" style="stop-color:#DEBDDA"/>
		<stop  offset="0.5152" style="stop-color:#9C52A0"/>
		<stop  offset="1" style="stop-color:#903F98"/>
	</linearGradient>
	<path id="XMLID_9_" style="fill:url(#XMLID_13_);" d="M34.4,27.5c0-1.1-0.7-1.6-2.1-1.6h-0.9v3.3h0.9
		C33.7,29.2,34.4,28.6,34.4,27.5z"/>
	
		<linearGradient id="XMLID_14_" gradientUnits="userSpaceOnUse" x1="1.3387" y1="38.9114" x2="38.7127" y2="1.5372" gradientTransform="matrix(1 0 0 -1 0 50)">
		<stop  offset="0" style="stop-color:#DEBDDA"/>
		<stop  offset="0.5152" style="stop-color:#9C52A0"/>
		<stop  offset="1" style="stop-color:#903F98"/>
	</linearGradient>
	<polygon id="XMLID_8_" style="fill:url(#XMLID_14_);" points="18.9,26.7 17.7,29.4 20.1,29.4 	"/>
	
		<linearGradient id="SVGID_1_" gradientUnits="userSpaceOnUse" x1="6.2136" y1="43.7864" x2="43.5878" y2="6.4122" gradientTransform="matrix(1 0 0 -1 0 50)">
		<stop  offset="0" style="stop-color:#DEBDDA"/>
		<stop  offset="0.5152" style="stop-color:#9C52A0"/>
		<stop  offset="1" style="stop-color:#903F98"/>
	</linearGradient>
	<path style="fill:url(#SVGID_1_);" d="M45.2,13.9h-0.9v-2.3c0-1.5-1.2-2.7-2.7-2.7H40V7.3c0-1.5-1.2-2.7-2.7-2.7H4.2
		c-1.5,0-2.7,1.2-2.7,2.7v26.9c0,1.5,1.2,2.7,2.7,2.7h1.6v1.6c0,1.5,1.2,2.7,2.7,2.7h2.3v0.9c0,0.7,0.6,1.3,1.3,1.3h33.1
		c0.7,0,1.3-0.6,1.3-1.3V15.2C46.5,14.5,45.9,13.9,45.2,13.9z M15,32l3.3-7.2c0.1-0.2,0.4-0.4,0.6-0.4c0.3,0,0.5,0.2,0.6,0.4
		l3.3,7.2c0.2,0.3,0,0.7-0.3,0.9s-0.7,0-0.9-0.3l-0.8-1.8h-3.7l-0.8,1.8c-0.1,0.3-0.4,0.4-0.6,0.4c-0.1,0-0.2,0-0.3-0.1
		C15,32.7,14.8,32.3,15,32z M23.7,32.3v-7.2c0-0.4,0.3-0.7,0.7-0.7H26c2.1,0,3.4,1.2,3.4,3c0,1.9-1.3,3.1-3.4,3.1h-0.9v1.8
		c0,0.4-0.3,0.7-0.7,0.7S23.7,32.6,23.7,32.3z M30.1,32.3v-7.2c0-0.4,0.3-0.7,0.7-0.7h1.6c2.1,0,3.4,1.2,3.4,3
		c0,1.9-1.3,3.1-3.4,3.1h-0.9v1.8c0,0.4-0.3,0.7-0.7,0.7C30.4,33,30.1,32.7,30.1,32.3z M39.3,29.3c-1.1-0.3-2.7-0.8-2.7-2.6
		c0-1.4,1.2-2.3,3-2.3c0.8,0,1.7,0.2,2.3,0.6c0.3,0.2,0.4,0.6,0.2,0.9c-0.2,0.3-0.6,0.4-0.9,0.2c-0.4-0.2-1-0.4-1.5-0.4
		c-0.7,0-1.6,0.2-1.6,0.9s0.5,1,1.7,1.3c1.1,0.3,2.6,0.8,2.6,2.5c0,1.3-1.2,2.2-2.9,2.2c-1.1,0-2.1-0.4-2.8-1.2
		c-0.3-0.3-0.2-0.7,0-1c0.3-0.3,0.7-0.2,1,0c0.4,0.4,1.1,0.7,1.8,0.7c0.7,0,1.5-0.2,1.5-0.9C40.9,29.9,40.6,29.7,39.3,29.3z
		 M4.2,7.4h33.1V9H8.5C7,9,5.8,10.2,5.8,11.7v22.6H4.2V7.4z M8.5,38.5v-1.6v-1.3V11.7h30.2H40h1.6V14H12c-0.7,0-1.3,0.6-1.3,1.3
		v23.3H8.5V38.5z"/>
</g>
</svg>
