<?xml version="1.0" encoding="utf-8"?>
<!-- Generator: Adobe Illustrator 19.0.0, SVG Export Plug-In . SVG Version: 6.00 Build 0)  -->
<svg version="1.1" id="layer" xmlns="http://www.w3.org/2000/svg" xmlns:xlink="http://www.w3.org/1999/xlink" x="0px" y="0px"
	 width="48px" height="48px" viewBox="0 0 48 48" style="enable-background:new 0 0 48 48;" xml:space="preserve">
<g>
	
		<linearGradient id="SVGID_1_" gradientUnits="userSpaceOnUse" x1="9.4397" y1="41.4993" x2="37.8205" y2="13.1186" gradientTransform="matrix(1 0 0 -1 0 50)">
		<stop  offset="0" style="stop-color:#DEBDDA"/>
		<stop  offset="0.5152" style="stop-color:#9C52A0"/>
		<stop  offset="1" style="stop-color:#903F98"/>
	</linearGradient>
	<path style="fill:url(#SVGID_1_);" d="M36.2,24c0-6.2,2.9-9.8,5.2-9.8c0.8,0,3,0,3,0c-1.5-2.3-2.7-3.8-8.3-3.8H13.6
		c-8.5,0-12,7.8-12,13.5c0,5.7,3.6,13.5,12,13.5h22.5c5.4,0,6.8-1.4,8.3-3.8c0,0-0.8,0-3,0S36.2,30.2,36.2,24z M30.1,28
		c-0.4,0.6-1.5,0-1.5,0l-6.7-3c0,0-0.6,1.5-1,2.5c-0.5,1-0.8,2.3-2.7,0.9c-1.9-1.3-8.1-7.3-8.1-7.3S9.3,20.5,9.7,20s1.5,0,1.5,0
		l6.7,3c0,0,0.6-1.5,1-2.5c0.5-1,0.8-2.3,2.7-0.9c1.9,1.3,8.1,7.3,8.1,7.3S30.5,27.5,30.1,28z M44,19.3h-1.7c-1.2,0-2.5,1.7-2.5,4.5
		c0,2.7,1.2,4.5,2.5,4.5H44c1.2,0,2.5-1.7,2.5-4.5C46.6,21,45.2,19.3,44,19.3z"/>
</g>
</svg>
