<?xml version="1.0" encoding="utf-8"?>
<!-- Generator: Adobe Illustrator 19.0.0, SVG Export Plug-In . SVG Version: 6.00 Build 0)  -->
<svg version="1.1" id="layer" xmlns="http://www.w3.org/2000/svg" xmlns:xlink="http://www.w3.org/1999/xlink" x="0px" y="0px"
	 width="48px" height="48px" viewBox="0 0 48 48" style="enable-background:new 0 0 48 48;" xml:space="preserve">
<g id="XMLID_9_">
	<linearGradient id="XMLID_2_" gradientUnits="userSpaceOnUse" x1="1.0695" y1="6.4804" x2="40.2403" y2="45.6513">
		<stop  offset="0" style="stop-color:#DEBDDA"/>
		<stop  offset="0.5152" style="stop-color:#9C52A0"/>
		<stop  offset="1" style="stop-color:#903F98"/>
	</linearGradient>
	<path id="XMLID_12_" style="fill:url(#XMLID_2_);" d="M5.9,44.1c-0.8-8-1.2-14.2-1.2-18.7c0-2.4,0.5-3.6,1.4-3.6
		c0.1,0,0.2,0.1,0.2,0.2c0.4,1.3,0.7,2.9,0.8,4.8c0.1,3.2,0.5,7.3,1,12.3c0.7-0.8,1.6-2.1,2.8-3.8c2-3.1,3.6-5.3,4.8-6.8
		c-0.1-0.4-0.4-1.1-0.8-2c-0.3-0.3-0.4-0.5-0.4-0.6c-0.7-0.9-1-1.9-1-2.8c0.1-0.8,0.6-1.2,1.4-1.2c0.3-0.1,0.5,0,0.8,0.4
		c-0.3,0.8-0.1,1.3,0.6,1.4c3.1-1.3,6.6-2.7,10.8-4.2c0-0.7,0.1-1.8,0.4-3.4C27.8,11.6,28,8.1,28,5.7c0.1-0.7-0.1-0.9-0.6-0.8
		c-0.8,0-1.9,0.3-3.2,1c-0.1,0-0.3,0.2-0.6,0.6c-0.1,0.4-0.3,0.6-0.6,0.6c-0.5,0-0.8-0.6-0.8-1.8V5.1V4.5c1.3-0.9,3.6-1.7,6.8-2.2
		c1.5,0.1,2.3,0.6,2.4,1.4c0,0.5-0.1,1.2-0.4,2c-0.3,0.8-0.4,1.4-0.4,1.8c0,1.2-0.1,3-0.2,5.4c-0.1,2.5-0.3,4.4-0.4,5.6
		c3.6-1.6,6.5-2.5,8.8-2.6c1.3,0,2.6,0.3,3.8,0.8c0.5,0.1,0.8,0.7,0.8,1.8c0,0.5-0.4,1.7-1.2,3.4c-0.4,1.1-0.7,1.8-0.8,2.2
		c-0.3,1.3-0.7,3.5-1.4,6.4c-0.8,3.9-1.3,6.5-1.6,8c-0.9,2.9-1.9,4.4-2.8,4.4c-1.1-0.3-1.9-1.3-2.4-3.2c-0.3-0.9-0.6-1.7-1-2.4
		c-3.1,0.4-6,1-8.8,1.8c-0.4,0.1-0.9,0.3-1.6,0.6c-1.6,0.5-2.8,0.8-3.6,0.8c-0.7,0-1-0.2-1-0.6c0-0.3,0.1-0.6,0.4-1
		c0.3-0.3,0.4-0.5,0.4-0.6c-0.3-3.3-1-6.2-2.2-8.8c-0.8,1.5-1.9,3.5-3.4,6.2c-0.8,1.5-1.4,2.6-1.8,3.4c-0.7,1.2-1.1,2.5-1.4,3.8
		c0,0.4-0.3,1.1-0.8,2c-0.1,0.7-0.5,1-1,1C6.7,45.7,6.1,45.2,5.9,44.1z M6.1,8.3c0-0.7,0.4-1,1.2-1c2.9,0.3,4.6,1.3,5.2,3.2
		c0.1,0.4-0.3,0.7-1.2,1C9.7,11.2,7.9,10.1,6.1,8.3z M17.2,25.8c1.6,4,2.7,7.8,3.4,11.6c2.7-0.5,4.7-1.1,6.2-1.6
		c0-0.5-0.1-1.6-0.2-3.2c0-1.6-0.1-2.7-0.2-3.2c-0.3,0.1-0.7,0.3-1.4,0.6c-0.7,0.3-1.2,0.5-1.6,0.6c-0.5,0.3-1.2,0.4-2,0.4
		c-0.7,0-1-0.3-1-0.8c0-1.1,0.5-1.6,1.6-1.6c2-0.1,3.5-0.9,4.6-2.4c0.1-1.5,0.2-3,0.2-4.6C22.8,22.8,19.6,24.2,17.2,25.8z M35,37.9
		l0.4-0.2c1.3-6.6,2.3-11.2,3-13.7c0-0.5,0.2-1.3,0.6-2.4c0.3-1.1,0.4-1.8,0.4-2.2c0-0.1,0-0.3,0-0.4c0.1-0.3,0.1-0.5-0.2-0.6
		c0-0.1-0.3-0.2-0.8-0.2c-1.3,0-4.2,0.8-8.6,2.4c-0.3,1.2-0.3,2.3-0.2,3.2c0.3,0,0.9-0.1,2-0.2c1.1,0,1.7,0,1.8,0
		c1.1,0.1,1.7,0.7,1.8,1.8c0,0.4-0.5,0.8-1.6,1.2c-0.4,0.1-1,0.3-1.8,0.6c-1.3,0.4-2.1,0.7-2.4,1c0,0.7-0.1,1.7-0.2,3.2
		c-0.1,1.9-0.2,3.2-0.2,4c0.1,0,0.4-0.1,0.8-0.2c0.7-0.1,1.2-0.3,1.6-0.4l0.4-0.2v-1c0.1-0.1,0.3-0.2,0.4-0.2
		c0.4,0.4,0.7,0.7,0.8,0.8c0.3,0.3,0.6,0.5,1,0.6c0.5,0.3,0.9,0.5,1.2,0.6c0.4,0.3,0.4,0.5,0,0.8c-0.1,0.1-0.5,0.3-1,0.4l-0.4,0.2
		C34,37.4,34.4,37.8,35,37.9z"/>
</g>
</svg>
