<?xml version="1.0" encoding="utf-8"?>
<!-- Generator: Adobe Illustrator 19.0.0, SVG Export Plug-In . SVG Version: 6.00 Build 0)  -->
<svg version="1.1" id="layer" xmlns="http://www.w3.org/2000/svg" xmlns:xlink="http://www.w3.org/1999/xlink" x="0px" y="0px"
	 width="48px" height="48px" viewBox="0 0 48 48" style="enable-background:new 0 0 48 48;" xml:space="preserve">
<g id="XMLID_29_">
	<linearGradient id="XMLID_2_" gradientUnits="userSpaceOnUse" x1="3.5691" y1="7.0103" x2="41.6298" y2="45.071">
		<stop  offset="0" style="stop-color:#DEBDDA"/>
		<stop  offset="0.5152" style="stop-color:#9C52A0"/>
		<stop  offset="1" style="stop-color:#903F98"/>
	</linearGradient>
	<path id="XMLID_30_" style="fill:url(#XMLID_2_);" d="M4.2,38.9c0.1-6.5,1.3-14,3.4-22.5c0.1-0.3,0.3-0.3,0.6-0.2
		c0.1,0.1,0.2,0.3,0.2,0.6c-0.7,4.8-1.2,11.3-1.6,19.5c2.5-3.8,5-8,7.4-12.3c0.4-0.5,0.5-0.5,0.4,0.2l-0.2,0.6
		c-0.5,1.3-1.1,2.4-1.6,3.2c-2.5,4.6-4.3,8.7-5.4,12.1c0,0.1-0.1,0.3-0.2,0.6c-0.4,1.7-0.8,2.7-1.2,3C4.6,44.4,4,42.8,4.2,38.9z
		 M10.4,8.7c-0.1-1.1-0.7-2-1.6-2.8c-0.7-0.5-1-1-1-1.4c0-0.3,0.3-0.4,1-0.4c0.4,0,0.8,0.1,1.2,0.4c0.1,0.1,0.3,0.3,0.4,0.4
		c0.1,0.1,0.4,0.3,0.8,0.4c1.2,0.4,1.8,1,1.8,1.8c-0.3,0.8-0.9,1.4-2,1.8l-0.2-0.2C10.6,8.7,10.5,8.7,10.4,8.7z M12.9,40.9
		c0.1-1.2,0.5-3.6,1.2-7.4c0.9-5.7,1.4-8.9,1.4-9.6c0-0.1-0.1-0.6-0.2-1.4c0.1-1.1,0.7-2.6,1.6-4.6v-0.2c0.3,0,0.5,0.4,0.6,1.2
		c0.1,3.6-0.1,7.4-0.6,11.6c-0.5,3.1-0.9,5.4-1,7.2c-0.3,2.5-0.7,4-1.4,4.4C13.7,42.1,13.2,41.7,12.9,40.9z M30.7,33.2
		c-0.3,0.1-0.7,0.3-1.2,0.4c-2.9,1.1-5.4,1.8-7.6,2.2c-1.1,0.1-1.7-0.2-1.8-1c0-0.4,0.4-1,1.2-1.8c0.5-0.5,1.2-1.5,2-2.8
		c0.3-0.4,0.5-0.7,0.6-0.8c0-0.5-0.5-1.1-1.4-1.8c-1.1-0.7-1.6-1.2-1.6-1.6c0.1-0.5,0.4-0.9,0.8-1.2c0.1,0,0.4-0.1,0.8-0.4
		c1.2-0.4,2.1-0.7,2.8-1c0.1-0.5,0.3-1.3,0.4-2.2c0.1-0.7,0.2-1.1,0.2-1.2c0-0.4-0.1-0.7-0.2-0.8h-2.8c-0.1-0.1-0.2-0.4-0.2-0.8
		c0.1-0.9,0.9-1.3,2.2-1.2c0.3-0.1,0.6-0.3,1-0.4c1.1-0.5,1.9-1,2.4-1.4c0.3-0.1,0.5-0.2,0.6-0.2c0.9,0,1.4,0.5,1.4,1.4
		c0,0.1-0.2,0.5-0.6,1c-0.5,0.7-0.9,1.2-1,1.6c-0.5,0.5-0.9,1.6-1,3.2c0.1-0.1,0.3-0.3,0.6-0.4c0.3-0.1,0.5-0.3,0.6-0.4
		c1.2,0,1.8,0.5,1.8,1.4c0,0.9-0.7,2.2-2.2,3.8c-0.5,0.7-0.9,1.2-1.2,1.6c-0.1,0.1-0.2,0.4-0.2,0.8c-0.1,0.4-0.3,0.7-0.4,0.8
		c-0.3,0.3-0.7,0.7-1.2,1.2c-0.9,0.5-1.5,1.1-1.6,1.8h0.4c1.2,0,3-0.6,5.4-1.8c0.1-0.1,0.3-0.3,0.4-0.6c0-0.3,0.1-0.5,0.2-0.6h0.6
		c1.3,0.1,2.1,0.7,2.2,1.6c0,0.5-0.6,1-1.8,1.4c0.8,4.3,3.1,7.4,7,9.4c0.9,0.7,1.6,0.5,2-0.4c0.9-3.3,1.1-7.2,0.6-11.8
		c-0.1-0.9-0.3-2.7-0.4-5.2c-0.4-5.4-0.8-9.7-1.2-12.7c0-1.9-1.1-2.7-3.4-2.6c-2.8,0-6.6,1.3-11.4,4c-0.5,0.3-1.6,0.9-3.2,1.8
		c-1.7,0.9-2.9,1.5-3.4,1.8C17,17,16.6,16.6,16.7,16c1.7-4.1,3.1-6.7,4.2-7.8c0.1-0.3,0.4-0.6,0.8-1c1.2-1.5,1.8-2.6,1.8-3.4
		c-0.7,0.1-1.8,0.1-3.4,0c-0.4-0.1-0.7-0.2-1-0.2c-0.8,0-1.3-0.4-1.4-1.2c0-0.4,0.3-0.6,1-0.6c0.3,0,0.7,0,1.2,0h5
		C25.6,2,26,2.6,26.1,3.5c0,1.1-0.9,2.5-2.6,4.2c-2.4,2.5-4,4.8-4.8,7c0,0.3,0.3,0.3,0.8,0c1.1-0.5,2.7-1.3,4.8-2.4
		c6-3.2,10.8-4.6,14.3-4.4c1.9,0,3,1.6,3.4,4.8c0.1,1.3,0.3,3.3,0.6,6c0.3,2.8,0.5,6.2,0.8,10.4c0.9,6.5,0.3,11.8-1.8,15.9
		c-0.4,1.3-1.3,1.5-2.8,0.6C34.3,42.7,31.6,38.6,30.7,33.2z M24.5,27.2c0.4,0,0.5-0.3,0.4-0.8c0.1-0.1,0.2-0.4,0.2-0.8
		c-0.3,0.1-0.6,0.3-1,0.6l-0.4,0.2C24,26.8,24.2,27.1,24.5,27.2z M28.3,24c-0.1,0-0.3,0.1-0.4,0.2c-0.1,0-0.3,0.1-0.4,0.2
		c0,0.3,0,0.7,0,1.2c0.1-0.1,0.4-0.4,0.8-0.8l0.2-0.2c0.1-0.3,0.2-0.5,0.2-0.6C28.5,23.9,28.4,23.9,28.3,24z"/>
</g>
</svg>
