<?xml version="1.0" encoding="utf-8"?>
<!-- Generator: Adobe Illustrator 19.0.0, SVG Export Plug-In . SVG Version: 6.00 Build 0)  -->
<svg version="1.1" id="layer" xmlns="http://www.w3.org/2000/svg" xmlns:xlink="http://www.w3.org/1999/xlink" x="0px" y="0px" viewBox="0 0 760 350" style="enable-background:new 0 0 760 350;" xml:space="preserve">
<style type="text/css">
	.st0{fill:#A4A4A4;}
	.st1{fill:#C86964;}
	.st2{fill:#009E5A;}
	.st3{fill:#FEBF14;}
	.st4{fill:#333333;}
	.st5{font-family:'Microsoft JhengHei';}
	.st6{font-size:24px;}
	.st7{font-size:36px;}
	.st8{fill:none;}
	.st9{fill:#707273;}
	.st10{font-size:16px;}
</style>
<g id="XMLID_20_">
	<path id="XMLID_22_" class="st0" d="M351.5,314.9c-76,0-137.9-61.9-137.9-137.9c0-76,61.9-137.9,137.9-137.9 c76,0,137.9,61.9,137.9,137.9C489.4,253,427.5,314.9,351.5,314.9z M351.5,109.1c-37.5,0-67.9,30.5-67.9,67.9s30.5,67.9,67.9,67.9 s67.9-30.5,67.9-67.9S388.9,109.1,351.5,109.1z"/>
</g>
<g id="XMLID_16_">
	<path id="XMLID_27_" class="st1" d="M394.4,124.5c-12.3-10.1-27.4-15.5-43.4-15.5V39.1c32,0,63.2,11.2,87.8,31.5L394.4,124.5z"/>
</g>
<g id="XMLID_21_">
	<path id="XMLID_26_" class="st2" d="M387.6,310.1l-18.3-67.5c29.5-8,50.1-35,50.1-65.6c0-20.4-9-39.5-24.8-52.5l44.5-54 c31.9,26.3,50.2,65.1,50.2,106.4C489.4,239.1,447.5,293.8,387.6,310.1z"/>
</g>
<g id="XMLID_9_">
	<path id="XMLID_19_" class="st3" d="M224.3,230.3c-7.1-16.9-10.9-34.9-10.9-53.3c0-76,61.6-137.9,137.6-137.9v69.9 c-37,0-67.7,30.5-67.7,67.9c0,9.1,1.9,18,5.4,26.3L224.3,230.3z"/>
</g>
<text id="XMLID_2_" transform="matrix(1 0 0 1 290.6489 185.6721)" class="st4 st5 st6">问题与不足</text>
<text id="XMLID_4_" transform="matrix(1 0 0 1 447.2536 43.9999)"><tspan x="0" y="0" class="st1 st5 st7">5</tspan><tspan x="21.4" y="0" class="st1 st5 st6">%</tspan></text>
<text id="XMLID_5_" transform="matrix(1 0 0 1 173.8641 43.9996)"><tspan x="0" y="0" class="st3 st5 st7">25</tspan><tspan x="42.9" y="0" class="st3 st5 st6">%</tspan></text>
<text id="XMLID_6_" transform="matrix(1 0 0 1 128.1932 215.3314)"><tspan x="0" y="0" class="st0 st5 st7">36</tspan><tspan x="42.9" y="0" class="st0 st5 st6">%</tspan></text>
<text id="XMLID_7_" transform="matrix(1 0 0 1 506.8628 215.3315)"><tspan x="0" y="0" class="st2 st5 st7">40</tspan><tspan x="42.9" y="0" class="st2 st5 st6">%</tspan></text>
<rect id="XMLID_3_" x="37.3" y="57.5" class="st8" width="185.3" height="62"/>
<text id="XMLID_8_" transform="matrix(1 0 0 1 37.3363 71.7449)"><tspan x="0" y="0" class="st9 st5 st10">作业效率低</tspan><tspan x="0" y="22" class="st9 st5 st10">1.单位时间作业效率低</tspan><tspan x="0" y="44" class="st9 st5 st10">2.作业效果不好</tspan></text>
<rect id="XMLID_15_" x="495.1" y="57.5" class="st8" width="219.9" height="81.5"/>
<text id="XMLID_14_" transform="matrix(1 0 0 1 495.1366 71.7444)"><tspan x="0" y="0" class="st9 st5 st10">危害环境与健康</tspan><tspan x="0" y="22" class="st9 st5 st10">1.农药污染土壤和水质严重</tspan><tspan x="0" y="44" class="st9 st5 st10">2.人体健康受到的侵害或威胁</tspan><tspan x="0" y="66" class="st9 st5 st10">3.残留包装污染环境</tspan></text>
<rect id="XMLID_11_" x="26.7" y="233.2" class="st8" width="252.7" height="82.5"/>
<text id="XMLID_10_" transform="matrix(1 0 0 1 26.6671 247.4083)"><tspan x="0" y="0" class="st9 st5 st10">农药有效利用率低</tspan><tspan x="0" y="22" class="st9 st5 st10">1.高倍数勾兑稀释影响药效</tspan><tspan x="0" y="44" class="st9 st5 st10">2.农药喷施不均，雾化沉降效果差</tspan><tspan x="0" y="66" class="st9 st5 st10">3.无法有效穿透和搅动叶面</tspan></text>
<rect id="XMLID_13_" x="488.5" y="233.2" class="st8" width="267.3" height="107.3"/>
<text id="XMLID_12_" transform="matrix(1 0 0 1 488.4714 247.4078)"><tspan x="0" y="0" class="st9 st5 st10">环境适应性能差</tspan><tspan x="0" y="22" class="st9 st5 st10">1.无法适应高山丘陵复杂地形</tspan><tspan x="0" y="44" class="st9 st5 st10">2.高杆作物喷洒难度大</tspan><tspan x="0" y="66" class="st9 st5 st10">3.茂密灌丛货多层复合叶面作物无法</tspan><tspan x="14" y="88" class="st9 st5 st10">有效穿透（棉花、烟草、茶叶）</tspan></text>
</svg>
