<?xml version="1.0" encoding="utf-8"?>
<!-- Generator: Adobe Illustrator 19.0.0, SVG Export Plug-In . SVG Version: 6.00 Build 0)  -->
<svg version="1.1" id="layer" xmlns="http://www.w3.org/2000/svg" xmlns:xlink="http://www.w3.org/1999/xlink" x="0px" y="0px" viewBox="0 0 760 320" style="enable-background:new 0 0 760 320;" xml:space="preserve">
<style type="text/css">
	.st0{fill:none;stroke:#707273;stroke-miterlimit:10;}
	.st1{fill:none;stroke:#707273;stroke-miterlimit:10;stroke-dasharray:3,3;}
	.st2{fill:none;stroke:#707273;stroke-miterlimit:10;stroke-dasharray:3.0482,3.0482;}
	.st3{fill:none;stroke:#707273;stroke-miterlimit:10;stroke-dasharray:2.9783,2.9783;}
	.st4{fill:none;stroke:#707273;stroke-miterlimit:10;stroke-dasharray:2.9794,2.9794;}
	.st5{fill:#02205F;}
	.st6{fill:#A30101;}
	.st7{fill:#FFECE6;}
	.st8{font-family:'Microsoft JhengHei';}
	.st9{font-size:18px;}
	.st10{fill:#FED868;}
	.st11{fill:#FFFFFF;}
	.st12{font-family:'Helvetica';}
</style>
<g id="XMLID_5_">
	<g id="XMLID_61_">
		<line id="XMLID_66_" class="st0" x1="612" y1="66.5" x2="610" y2="66.5"/>
		<line id="XMLID_65_" class="st1" x1="607" y1="66.5" x2="485" y2="66.5"/>
		<polyline id="XMLID_64_" class="st0" points="483,66.5 482,66.5 480.8,67.6 		"/>
		<line id="XMLID_63_" class="st2" x1="479.1" y1="70.4" x2="417.3" y2="143.9"/>
		<line id="XMLID_62_" class="st0" x1="416.3" y1="145" x2="415.3" y2="146.2"/>
	</g>
</g>
<g id="XMLID_20_">
	<g id="XMLID_68_">
		<line id="XMLID_76_" class="st0" x1="578" y1="106.5" x2="577" y2="106.5"/>
		<line id="XMLID_75_" class="st1" x1="574" y1="106.5" x2="485" y2="106.5"/>
		<polyline id="XMLID_74_" class="st0" points="483,106.5 482,106.5 480.8,107.6 		"/>
		<line id="XMLID_70_" class="st2" x1="479.1" y1="110.4" x2="417.3" y2="183.9"/>
		<line id="XMLID_69_" class="st0" x1="416.3" y1="185" x2="415.3" y2="186.2"/>
	</g>
</g>
<g id="XMLID_21_">
	<g id="XMLID_72_">
		<line id="XMLID_82_" class="st0" x1="606" y1="142.5" x2="604" y2="142.5"/>
		<line id="XMLID_81_" class="st1" x1="601" y1="142.5" x2="485" y2="142.5"/>
		<polyline id="XMLID_80_" class="st0" points="483,142.5 482,142.5 480.8,143.6 		"/>
		<line id="XMLID_79_" class="st2" x1="479.1" y1="146.4" x2="417.3" y2="219.9"/>
		<line id="XMLID_73_" class="st0" x1="416.3" y1="221" x2="415.3" y2="222.2"/>
	</g>
</g>
<g id="XMLID_22_">
	<g id="XMLID_84_">
		<line id="XMLID_89_" class="st0" x1="233" y1="33.5" x2="234" y2="33.5"/>
		<line id="XMLID_88_" class="st1" x1="238" y1="33.5" x2="297" y2="33.5"/>
		<polyline id="XMLID_87_" class="st0" points="298,33.5 300,33.5 300.7,34.7 		"/>
		<line id="XMLID_86_" class="st3" x1="302.8" y1="36.7" x2="364.8" y2="114.8"/>
		<line id="XMLID_85_" class="st0" x1="365.7" y1="116" x2="366.7" y2="117.2"/>
	</g>
</g>
<g id="XMLID_23_">
	<g id="XMLID_91_">
		<line id="XMLID_96_" class="st0" x1="233" y1="72.5" x2="234" y2="72.5"/>
		<line id="XMLID_95_" class="st1" x1="238" y1="72.5" x2="297" y2="72.5"/>
		<polyline id="XMLID_94_" class="st0" points="298,72.5 300,72.5 300.7,73.7 		"/>
		<line id="XMLID_93_" class="st3" x1="302.8" y1="75.7" x2="364.8" y2="153.8"/>
		<line id="XMLID_92_" class="st0" x1="365.7" y1="155" x2="366.7" y2="156.2"/>
	</g>
</g>
<g id="XMLID_24_">
	<g id="XMLID_98_">
		<line id="XMLID_115_" class="st0" x1="233" y1="112.5" x2="234" y2="112.5"/>
		<line id="XMLID_114_" class="st1" x1="238" y1="112.5" x2="297" y2="112.5"/>
		<polyline id="XMLID_113_" class="st0" points="298,112.5 300,112.5 300.7,113.7 		"/>
		<line id="XMLID_112_" class="st3" x1="302.8" y1="115.7" x2="364.8" y2="193.8"/>
		<line id="XMLID_99_" class="st0" x1="365.7" y1="195" x2="366.7" y2="196.2"/>
	</g>
</g>
<g id="XMLID_25_">
	<g id="XMLID_117_">
		<line id="XMLID_122_" class="st0" x1="217" y1="151.5" x2="218" y2="151.5"/>
		<line id="XMLID_121_" class="st1" x1="221" y1="151.5" x2="297" y2="151.5"/>
		<polyline id="XMLID_120_" class="st0" points="299,151.5 300.3,151.5 301.3,152.7 		"/>
		<line id="XMLID_119_" class="st4" x1="303" y1="155.4" x2="364.8" y2="233.8"/>
		<line id="XMLID_118_" class="st0" x1="365.7" y1="235" x2="366.7" y2="236.2"/>
	</g>
</g>
<g id="XMLID_1_">
	<g id="XMLID_54_">
		<line id="XMLID_57_" class="st0" x1="488" y1="175.9" x2="487" y2="177"/>
		<line id="XMLID_56_" class="st2" x1="485.1" y1="179.4" x2="423.3" y2="252.9"/>
		<line id="XMLID_55_" class="st0" x1="422.3" y1="254" x2="421.3" y2="255.2"/>
	</g>
</g>
<rect id="XMLID_6_" x="615.5" y="51.9" class="st5" width="135" height="30"/>
<rect id="XMLID_8_" x="14.7" y="18.2" class="st6" width="217" height="30"/>
<text id="XMLID_7_" transform="matrix(1 0 0 1 632.5001 72.5384)" class="st7 st8 st9">一般公版飞控</text>
<rect id="XMLID_11_" x="570.5" y="91.6" class="st5" width="180" height="30"/>
<text id="XMLID_10_" transform="matrix(1 0 0 1 578.5 112.2884)" class="st7 st8 st9">普通通用型喷洒设备</text>
<text id="XMLID_18_" transform="matrix(1 0 0 1 22.8331 39.169)" class="st10 st8 st9">拥有自主知识产权的飞控</text>
<rect id="XMLID_27_" x="14.8" y="56.9" class="st6" width="255" height="30"/>
<text id="XMLID_26_" transform="matrix(1 0 0 1 22.8333 77.9183)" class="st10 st8 st9">拥有全新高性能喷洒设备专利</text>
<rect id="XMLID_29_" x="14.8" y="97.7" class="st6" width="270" height="30"/>
<text id="XMLID_28_" transform="matrix(1 0 0 1 22.8333 118.6684)" class="st10 st8 st9">拥有世界领先水平的石墨烯电池</text>
<rect id="XMLID_31_" x="14.8" y="137" class="st6" width="200" height="30"/>
<text id="XMLID_30_" transform="matrix(1 0 0 1 22.8333 158.0017)" class="st10 st8 st9">更完善的智能软件系统</text>
<rect id="XMLID_13_" x="605.5" y="128.2" class="st5" width="145" height="30"/>
<text id="XMLID_12_" transform="matrix(1 0 0 1 614.5001 148.8717)" class="st7 st8 st9">普通国产锂电池</text>
<rect id="XMLID_16_" x="480.5" y="167.5" class="st5" width="270" height="30"/>
<text id="XMLID_15_" transform="matrix(1 0 0 1 488.4998 188.2054)" class="st7 st8 st9">普通触发式软件无智能优化功能</text>
<polygon id="XMLID_9_" class="st5" points="462.3,249.9 404.3,311.2 404.3,133.2 462.3,190.4 "/>
<polygon id="XMLID_17_" class="st6" points="317.8,221.4 375.8,282.7 375.8,104.7 317.8,161.9 "/>
<text id="XMLID_14_" transform="matrix(1 0 0 1 415.3334 220.0019)" class="st11 st8 st9">其他</text>
<text id="XMLID_32_" transform="matrix(1 0 0 1 418.1638 242.3349)" class="st11 st12 st9">UAV</text>
<text id="XMLID_33_" transform="matrix(1 0 0 1 330.2067 188.6674)"><tspan x="0" y="0" class="st10 st12 st9">IDSC</tspan><tspan x="2.5" y="22" class="st10 st12 st9">UAV</tspan></text>
</svg>
