<?xml version="1.0" encoding="utf-8"?>
<!-- Generator: Adobe Illustrator 19.0.0, SVG Export Plug-In . SVG Version: 6.00 Build 0)  -->
<svg version="1.1" id="layer" xmlns="http://www.w3.org/2000/svg" xmlns:xlink="http://www.w3.org/1999/xlink" x="0px" y="0px"
	 width="48px" height="48px" viewBox="0 0 48 48" style="enable-background:new 0 0 48 48;" xml:space="preserve">
<g id="XMLID_2_">
	<g id="XMLID_3_">
		<linearGradient id="XMLID_8_" gradientUnits="userSpaceOnUse" x1="4.933" y1="4.9328" x2="43.8745" y2="43.8744">
			<stop  offset="0" style="stop-color:#DEBDDA"/>
			<stop  offset="0.5152" style="stop-color:#9C52A0"/>
			<stop  offset="1" style="stop-color:#903F98"/>
		</linearGradient>
		<path id="XMLID_7_" style="fill:url(#XMLID_8_);" d="M31.5,11.7H16.5c-2.3,0-4.2,1.9-4.2,4.2v16.2c0,2.3,1.9,4.2,4.2,4.2h14.9
			c2.3,0,4.2-1.9,4.2-4.2V15.9C35.7,13.6,33.8,11.7,31.5,11.7z"/>
		<linearGradient id="XMLID_9_" gradientUnits="userSpaceOnUse" x1="4.9329" y1="4.9329" x2="43.8744" y2="43.8745">
			<stop  offset="0" style="stop-color:#DEBDDA"/>
			<stop  offset="0.5152" style="stop-color:#9C52A0"/>
			<stop  offset="1" style="stop-color:#903F98"/>
		</linearGradient>
		<path id="XMLID_4_" style="fill:url(#XMLID_9_);" d="M44.7,25.8c1,0,1.8-0.8,1.8-1.8c0-1-0.8-1.8-1.8-1.8h-4.1v-4h4.1
			c1,0,1.8-0.8,1.8-1.8c0-1-0.8-1.8-1.8-1.8h-4.1c-0.3-3.9-3.4-7.1-7.2-7.8V2.5c0-1-0.8-1.8-1.8-1.8c-1,0-1.8,0.8-1.8,1.8v4.2h-4
			V2.5c0-1-0.8-1.8-1.8-1.8c-1,0-1.8,0.8-1.8,1.8v4.2h-4V2.5c0-1-0.8-1.8-1.8-1.8c-1,0-1.8,0.8-1.8,1.8v4.3
			c-3.9,0.6-6.9,3.8-7.2,7.8H3.3c-1,0-1.8,0.8-1.8,1.8s0.8,1.8,1.8,1.8h4.1v4H3.3c-1,0-1.8,0.8-1.8,1.8c0,1,0.8,1.8,1.8,1.8h4.1v4
			H3.3c-1,0-1.8,0.8-1.8,1.8s0.8,1.8,1.8,1.8h4.1c0.3,3.9,3.4,7.1,7.2,7.8v4.3c0,1,0.8,1.8,1.8,1.8c1,0,1.8-0.8,1.8-1.8v-4.2h4v4.2
			c0,1,0.8,1.8,1.8,1.8s1.8-0.8,1.8-1.8v-4.2h4v4.2c0,1,0.8,1.8,1.8,1.8c1,0,1.8-0.8,1.8-1.8v-4.3c3.9-0.6,6.9-3.8,7.2-7.8h4.1
			c1,0,1.8-0.8,1.8-1.8c0-1-0.8-1.8-1.8-1.8h-4.1v-4L44.7,25.8L44.7,25.8L44.7,25.8z M37.8,32.6c0,3.2-2.6,5.8-5.8,5.8H16
			c-3.2,0-5.8-2.6-5.8-5.8V15.4c0-3.2,2.6-5.8,5.8-5.8H32c3.2,0,5.8,2.6,5.8,5.8V32.6L37.8,32.6z"/>
	</g>
</g>
</svg>
