<?xml version="1.0" encoding="utf-8"?>
<!-- Generator: Adobe Illustrator 19.0.0, SVG Export Plug-In . SVG Version: 6.00 Build 0)  -->
<svg version="1.1" id="layer" xmlns="http://www.w3.org/2000/svg" xmlns:xlink="http://www.w3.org/1999/xlink" x="0px" y="0px"
	 width="48px" height="48px" viewBox="0 0 48 48" style="enable-background:new 0 0 48 48;" xml:space="preserve">
<g>
	<g>
		<linearGradient id="XMLID_9_" gradientUnits="userSpaceOnUse" x1="8.2824" y1="3.4211" x2="44.051" y2="39.1897">
			<stop  offset="0" style="stop-color:#DEBDDA"/>
			<stop  offset="0.5152" style="stop-color:#9C52A0"/>
			<stop  offset="1" style="stop-color:#903F98"/>
		</linearGradient>
		<path id="XMLID_7_" style="fill:url(#XMLID_9_);" d="M31.4,23.5c1.8-1.2,3.6-1.9,4.8-2l-5.4-7l0,0c-0.2-0.2-0.6-0.3-1-0.3
			c-0.3,0-0.7,0.1-1.1,0.2c-1.7-2.9-4.7-6.8-6.7-8.6c-1.4-1.3-3.7-0.9-5.7-0.6C14.8,3.2,13.6,2,10.2,2C7.1,2,4,4.4,4,8
			s3.1,6.5,6.2,6.5c4.1,0,5.1-1.8,6.4-4.5c1.3-0.2,2.7-0.5,3.3,0.1c0.9,0.9,3.4,4.5,4.7,6.8c-0.3,0.3-0.5,0.6-0.6,0.9
			c-0.2,0.4-0.2,0.7-0.1,1l0,0l3.9,8.2c0.1-0.2,0.3-0.5,0.5-0.8C29,25.3,30.1,24.4,31.4,23.5z"/>
		<linearGradient id="XMLID_10_" gradientUnits="userSpaceOnUse" x1="13.4607" y1="-0.7941" x2="48.4802" y2="34.2254">
			<stop  offset="0" style="stop-color:#DEBDDA"/>
			<stop  offset="0.5152" style="stop-color:#9C52A0"/>
			<stop  offset="1" style="stop-color:#903F98"/>
		</linearGradient>
		<path id="XMLID_6_" style="fill:url(#XMLID_10_);" d="M37.6,23.3C37.6,23.3,37.6,23.3,37.6,23.3L37.6,23.3L37.6,23.3z"/>
		<linearGradient id="XMLID_11_" gradientUnits="userSpaceOnUse" x1="9.9447" y1="2.722" x2="44.9641" y2="37.7414">
			<stop  offset="0" style="stop-color:#DEBDDA"/>
			<stop  offset="0.5152" style="stop-color:#9C52A0"/>
			<stop  offset="1" style="stop-color:#903F98"/>
		</linearGradient>
		<path id="XMLID_5_" style="fill:url(#XMLID_11_);" d="M36.9,22.4c-0.1-0.1-0.3-0.1-0.5-0.1c-1,0-2.9,0.8-4.6,1.9
			c-1.2,0.8-2.3,1.7-2.9,2.6c-0.7,0.9-0.8,1.4-0.7,1.5c0.1,0.1,0.3,0.1,0.5,0.1c1,0,2.9-0.8,4.6-1.9C36,24.7,37.2,22.8,36.9,22.4z"
			/>
		<linearGradient id="XMLID_12_" gradientUnits="userSpaceOnUse" x1="7.0186" y1="5.6481" x2="42.038" y2="40.6675">
			<stop  offset="0" style="stop-color:#DEBDDA"/>
			<stop  offset="0.5152" style="stop-color:#9C52A0"/>
			<stop  offset="1" style="stop-color:#903F98"/>
		</linearGradient>
		<path id="XMLID_4_" style="fill:url(#XMLID_12_);" d="M34.9,33.1L34,31c-0.2-0.4-0.6-0.6-1-0.4c-0.4,0.2-0.6,0.6-0.4,1l0.9,2
			c0.1,0.3,0.4,0.5,0.7,0.5c0.1,0,0.2,0,0.3-0.1C34.9,33.9,35.1,33.5,34.9,33.1z"/>
		<linearGradient id="XMLID_13_" gradientUnits="userSpaceOnUse" x1="3.4503" y1="9.2164" x2="38.4697" y2="44.2358">
			<stop  offset="0" style="stop-color:#DEBDDA"/>
			<stop  offset="0.5152" style="stop-color:#9C52A0"/>
			<stop  offset="1" style="stop-color:#903F98"/>
		</linearGradient>
		<path id="XMLID_3_" style="fill:url(#XMLID_13_);" d="M36.8,39.6c-0.3-0.6-1-0.9-1.6-0.6c-0.6,0.3-0.9,1-0.6,1.6l2.4,5.3
			c0.2,0.4,0.6,0.7,1.1,0.7c0.2,0,0.3,0,0.5-0.1c0.6-0.3,0.9-1,0.6-1.6L36.8,39.6z"/>
		<linearGradient id="XMLID_14_" gradientUnits="userSpaceOnUse" x1="11.1813" y1="1.4853" x2="46.2008" y2="36.5048">
			<stop  offset="0" style="stop-color:#DEBDDA"/>
			<stop  offset="0.5152" style="stop-color:#9C52A0"/>
			<stop  offset="1" style="stop-color:#903F98"/>
		</linearGradient>
		<path id="XMLID_2_" style="fill:url(#XMLID_14_);" d="M40.6,33.8c0.1,0.3,0.4,0.5,0.7,0.5c0.1,0,0.2,0,0.3-0.1
			c0.4-0.2,0.6-0.7,0.4-1.1l-3.2-6.8c-0.2-0.4-0.7-0.6-1.1-0.4c-0.4,0.2-0.6,0.7-0.4,1.1L40.6,33.8z"/>
		<linearGradient id="XMLID_15_" gradientUnits="userSpaceOnUse" x1="7.4146" y1="5.2521" x2="42.4341" y2="40.2715">
			<stop  offset="0" style="stop-color:#DEBDDA"/>
			<stop  offset="0.5152" style="stop-color:#9C52A0"/>
			<stop  offset="1" style="stop-color:#903F98"/>
		</linearGradient>
		<path id="XMLID_1_" style="fill:url(#XMLID_15_);" d="M42.4,40.8l-4-8.4c-0.3-0.6-1-0.8-1.6-0.6c-0.6,0.3-0.8,1-0.6,1.6l4,8.4
			c0.2,0.4,0.6,0.7,1.1,0.7c0.2,0,0.3,0,0.5-0.1C42.4,42.1,42.6,41.4,42.4,40.8z"/>
	</g>
</g>
</svg>
