<?xml version="1.0" encoding="utf-8"?>
<!-- Generator: Adobe Illustrator 17.0.0, SVG Export Plug-In . SVG Version: 6.00 Build 0)  -->
<!DOCTYPE svg PUBLIC "-//W3C//DTD SVG 1.1//EN" "http://www.w3.org/Graphics/SVG/1.1/DTD/svg11.dtd">
<svg version="1.1" id="Layer_1" xmlns="http://www.w3.org/2000/svg" xmlns:xlink="http://www.w3.org/1999/xlink" x="0px" y="0px"
	 width="340.157px" height="113.386px" viewBox="-77.953 0 340.157 113.386" enable-background="new -77.953 0 340.157 113.386"
	 xml:space="preserve">
<g>
	<path fill="#FFFFFF" d="M89.594,40.099c0.656,0,1.125,0.129,1.406,0.387c0.352,0.329,0.527,0.75,0.527,1.266v0.879h11.425
		c0.938,0,1.406,0.516,1.406,1.547c0,1.032-0.469,1.547-1.406,1.547H78.626c-0.492,0-0.738,0.176-0.738,0.527v4.781
		c-0.047,8.461-0.984,15.316-2.813,20.566c-0.117,0.375-0.27,0.703-0.457,0.984c-0.234,0.352-0.691,0.539-1.371,0.563
		c-0.492,0-0.902-0.117-1.23-0.352c-0.305-0.258-0.457-0.609-0.457-1.055c0.023-0.328,0.188-1.055,0.492-2.18
		c1.336-4.219,2.109-8.18,2.32-11.883c0.117-2.32,0.176-4.535,0.176-6.645v-5.766c0-1.758,0.938-2.637,2.813-2.637h10.266v-0.879
		c0-0.445,0.176-0.879,0.527-1.301C88.411,40.217,88.891,40.099,89.594,40.099z M82.528,58.767h16.91
		c1.406,0,2.109,0.715,2.109,2.145v5.449c0,1.43-0.703,2.145-2.109,2.145h-2.074c1.43,0.539,2.836,0.961,4.219,1.266
		c0.727,0.141,1.277,0.234,1.652,0.281c0.563,0.164,0.844,0.434,0.844,0.809c0,0.609-0.211,1.055-0.633,1.336
		c-0.352,0.258-0.809,0.387-1.371,0.387c-0.773-0.047-1.605-0.199-2.496-0.457c-1.547-0.375-3.082-0.984-4.605-1.828
		c-0.492-0.281-0.961-0.598-1.406-0.949c-0.117-0.117-0.176-0.258-0.176-0.422c0.023-0.141,0.07-0.281,0.141-0.422h-5.203
		c0.258,0.258,0.387,0.527,0.387,0.809c0,0.445-0.176,0.785-0.527,1.02c-0.914,0.633-2.66,1.242-5.238,1.828
		c-1.711,0.375-3.105,0.563-4.184,0.563c-0.609,0-1.008-0.188-1.195-0.563c-0.141-0.234-0.211-0.668-0.211-1.301
		c0.141-0.539,0.609-0.809,1.406-0.809c1.828-0.117,3.41-0.363,4.746-0.738c0.82-0.211,1.652-0.48,2.496-0.809h-3.48
		c-1.383,0-2.074-0.715-2.074-2.145v-5.449C80.454,59.483,81.145,58.767,82.528,58.767z M79.715,55.146h22.957
		c0.445,0,0.773,0.083,0.984,0.246c0.188,0.164,0.281,0.504,0.281,1.02c0,0.422-0.082,0.727-0.246,0.914
		c-0.234,0.329-0.574,0.492-1.02,0.492H79.715c-0.398,0-0.715-0.105-0.949-0.316c-0.188-0.211-0.281-0.574-0.281-1.09
		c0-0.445,0.094-0.785,0.281-1.02C79.001,55.229,79.317,55.146,79.715,55.146z M80.594,47.553h2.953
		c0.023-0.328,0.152-0.598,0.387-0.809c0.188-0.234,0.574-0.352,1.16-0.352c0.539,0,0.949,0.118,1.23,0.352
		c0.258,0.188,0.398,0.457,0.422,0.809h9.035c0.047-0.328,0.141-0.598,0.281-0.809c0.258-0.234,0.668-0.352,1.23-0.352
		c0.586,0,1.031,0.118,1.336,0.352c0.234,0.211,0.352,0.48,0.352,0.809h3.094c0.445,0,0.762,0.094,0.949,0.281
		c0.234,0.164,0.352,0.54,0.352,1.125c0,0.445-0.07,0.762-0.211,0.949c-0.211,0.305-0.574,0.457-1.09,0.457H98.98v1.828
		c0,1.289-0.691,1.934-2.074,1.934H85.481c-1.289,0-1.934-0.645-1.934-1.934v-1.828h-2.953c-0.375,0-0.691-0.105-0.949-0.316
		c-0.234-0.211-0.352-0.574-0.352-1.09c0-0.563,0.117-0.949,0.352-1.16C79.833,47.635,80.149,47.553,80.594,47.553z M83.793,62.459
		h5.66v-1.125h-4.781c-0.586,0-0.879,0.281-0.879,0.844V62.459z M89.454,65.939v-1.266h-5.66v0.457c0,0.539,0.293,0.809,0.879,0.809
		H89.454z M86.747,50.365v0.668c0,0.399,0.199,0.598,0.598,0.598h7.734c0.469,0,0.703-0.199,0.703-0.598v-0.668H86.747z
		 M92.934,61.334v1.125h5.238v-0.281c0-0.563-0.293-0.844-0.879-0.844H92.934z M97.293,65.939c0.586,0,0.879-0.27,0.879-0.809
		v-0.457h-5.238v1.266H97.293z"/>
	<path fill="#FFFFFF" d="M121.825,41.506c0.539,0,0.996,0.105,1.371,0.316c0.398,0.281,0.598,0.738,0.598,1.371
		c-0.094,0.586-0.316,1.254-0.668,2.004c-0.047,0.07-0.082,0.141-0.105,0.211h6.68v-3.375c0-0.422,0.164-0.82,0.492-1.195
		c0.234-0.234,0.668-0.352,1.301-0.352c0.68,0,1.16,0.118,1.441,0.352c0.352,0.305,0.527,0.703,0.527,1.195v3.375h10.582
		c0.633,0,1.043,0.129,1.23,0.387c0.305,0.211,0.457,0.656,0.457,1.336c0,0.54-0.105,0.938-0.316,1.195
		c-0.234,0.422-0.691,0.633-1.371,0.633h-10.582v4.359h12.41c0.609,0,1.055,0.118,1.336,0.352c0.234,0.211,0.352,0.656,0.352,1.336
		c0,0.54-0.105,0.949-0.316,1.23c-0.305,0.399-0.762,0.598-1.371,0.598h-29.145c-0.539,0-0.961-0.141-1.266-0.422
		c-0.281-0.258-0.422-0.726-0.422-1.406c0-0.585,0.141-1.031,0.422-1.336c0.305-0.234,0.727-0.352,1.266-0.352H129.7v-4.359h-8.648
		c-0.492,0.797-0.996,1.489-1.512,2.074c-0.281,0.773-0.879,1.16-1.793,1.16c-0.469-0.047-0.949-0.246-1.441-0.598
		c-0.258-0.352-0.387-0.761-0.387-1.23c0-0.141,0.105-0.422,0.316-0.844c1.734-2.227,3.129-4.57,4.184-7.031
		C120.653,41.834,121.122,41.506,121.825,41.506z M120.7,59.646h21.48c1.805,0,2.707,0.891,2.707,2.672v7.172
		c0,1.758-0.902,2.637-2.707,2.637H120.7c-1.805,0-2.707-0.879-2.707-2.637v-7.172C117.993,60.537,118.896,59.646,120.7,59.646z
		 M140.388,68.787c0.469,0,0.703-0.234,0.703-0.703v-4.359c0-0.492-0.234-0.738-0.703-0.738h-17.895
		c-0.445,0-0.668,0.246-0.668,0.738v4.359c0,0.469,0.223,0.703,0.668,0.703H140.388z"/>
	<path fill="#FFFFFF" d="M159.787,47.271h2.004v-5.52c0.023-0.984,0.586-1.5,1.688-1.547c1.148,0,1.758,0.516,1.828,1.547v5.52
		h1.547c0.539,0,0.949,0.118,1.23,0.352c0.305,0.211,0.457,0.703,0.457,1.477c0,0.61-0.094,1.032-0.281,1.266
		c-0.281,0.352-0.75,0.527-1.406,0.527h-1.547v6.363c0.211-0.141,0.41-0.281,0.598-0.422c0.305-0.258,0.574-0.398,0.809-0.422
		c0.141,0,0.281,0.012,0.422,0.035c0.023-0.492,0.258-0.879,0.703-1.16c2.953-1.125,5.121-2.25,6.504-3.375h-4.148
		c-0.445,0-0.797-0.105-1.055-0.316c-0.234-0.234-0.352-0.598-0.352-1.09s0.117-0.867,0.352-1.125
		c0.258-0.188,0.609-0.281,1.055-0.281h1.477c-0.398-0.633-0.82-1.23-1.266-1.793c-0.211-0.258-0.328-0.469-0.352-0.633
		c0-0.469,0.223-0.844,0.668-1.125c0.305-0.188,0.645-0.281,1.02-0.281c0.281,0.023,0.574,0.129,0.879,0.316
		c0.281,0.188,0.633,0.54,1.055,1.055c0.797,1.078,1.23,1.898,1.301,2.461h2.145v-4.676c-1.969,0.164-4.078,0.27-6.328,0.316
		c-0.938-0.117-1.406-0.726-1.406-1.828c0.07-0.633,0.539-1.02,1.406-1.16c5.555-0.141,10.664-0.633,15.328-1.477
		c0.375-0.047,0.645-0.07,0.809-0.07c0.422,0,0.762,0.153,1.02,0.457c0.258,0.329,0.387,0.691,0.387,1.09
		c0,0.656-0.363,1.137-1.09,1.441c-1.266,0.281-3.469,0.586-6.609,0.914v4.992h2.285c0.047-0.117,0.105-0.246,0.176-0.387
		c0.914-1.453,1.594-2.648,2.039-3.586c0.117-0.211,0.234-0.375,0.352-0.492c0.188-0.117,0.398-0.176,0.633-0.176
		c0.445,0,0.855,0.105,1.23,0.316c0.398,0.234,0.598,0.598,0.598,1.09c0,0.234-0.094,0.563-0.281,0.984
		c-0.398,0.797-0.797,1.547-1.195,2.25h2.602c0.492,0,0.844,0.094,1.055,0.281c0.234,0.188,0.352,0.563,0.352,1.125
		c0,0.422-0.082,0.727-0.246,0.914c-0.281,0.329-0.668,0.492-1.16,0.492h-5.66c2.016,1.195,4.418,2.355,7.207,3.48
		c0.375,0.352,0.563,0.786,0.563,1.301c-0.047,0.516-0.27,0.891-0.668,1.125c-0.305,0.211-0.785,0.352-1.441,0.422
		c-0.891,0-1.852-0.339-2.883-1.02c-1.898-1.242-3.75-2.648-5.555-4.219v3.832c0,0.586-0.152,1.008-0.457,1.266h5.801
		c1.875,0,2.813,0.938,2.813,2.813v8.402c0,1.875-0.938,2.813-2.813,2.813h-13.957c-1.852,0-2.777-0.938-2.777-2.813v-8.402
		c0-1.875,0.926-2.813,2.777-2.813h5.52c-0.281-0.258-0.422-0.68-0.422-1.266v-3.832c-1.852,2.063-4.02,3.621-6.504,4.676
		c-0.422,0.164-0.879,0.258-1.371,0.281c-0.234,0-0.445-0.023-0.633-0.07c0.023,0.164,0.035,0.329,0.035,0.492
		c-0.023,0.469-0.199,0.891-0.527,1.266c-0.727,0.656-1.664,1.301-2.813,1.934v8.613c0,0.914-0.234,1.57-0.703,1.969
		c-0.492,0.445-1.16,0.727-2.004,0.844h-1.934c-0.703-0.07-1.23-0.316-1.582-0.738c-0.234-0.258-0.375-0.621-0.422-1.09
		c0-0.586,0.129-1.008,0.387-1.266c0.258-0.328,0.703-0.527,1.336-0.598h0.809c0.398,0,0.598-0.129,0.598-0.387v-5.801
		c-0.586,0.188-1.102,0.281-1.547,0.281c-1.289-0.047-1.957-0.656-2.004-1.828c0-0.914,0.422-1.477,1.266-1.688
		c0.82-0.258,1.582-0.527,2.285-0.809v-8.191h-2.004c-0.492,0-0.891-0.128-1.195-0.387c-0.328-0.258-0.492-0.726-0.492-1.406
		c0-0.75,0.164-1.253,0.492-1.512C158.826,47.377,159.225,47.271,159.787,47.271z M172.76,63.724h4.5v-2.531h-3.973
		c-0.352,0-0.527,0.176-0.527,0.527V63.724z M177.26,69.033v-2.672h-4.5v2.145c0,0.352,0.176,0.527,0.527,0.527H177.26z
		 M180.494,61.193v2.531h4.746V61.72c0-0.352-0.176-0.527-0.527-0.527H180.494z M184.713,69.033c0.352,0,0.527-0.176,0.527-0.527
		v-2.145h-4.746v2.672H184.713z"/>
	<path fill="#FFFFFF" d="M202.6,55.814h3.762c1.594,0,2.391,0.715,2.391,2.145v8.859c0.188,0.727,0.75,1.254,1.688,1.582
		c1.57,0.516,4.031,0.773,7.383,0.773c3.211,0,6.176-0.023,8.895-0.07c2.391-0.047,4.43-0.07,6.117-0.07
		c0.492,0,0.891,0.117,1.195,0.352c0.305,0.328,0.457,0.773,0.457,1.336c0,0.773-0.141,1.313-0.422,1.617
		c-0.258,0.305-0.762,0.48-1.512,0.527h-13.852c-5.367,0-8.918-0.715-10.652-2.145c-0.305-0.164-0.586-0.246-0.844-0.246
		c-0.094,0-0.199,0.047-0.316,0.141c-0.68,0.609-1.453,1.184-2.32,1.723c-0.422,0.352-0.75,0.527-0.984,0.527
		c-0.445,0-0.762-0.082-0.949-0.246c-0.469-0.352-0.855-0.855-1.16-1.512c-0.117-0.281-0.176-0.492-0.176-0.633
		c0.047-0.539,0.328-0.961,0.844-1.266c0.867-0.445,1.793-1.043,2.777-1.793c0.211-0.188,0.328-0.387,0.352-0.598v-7.172
		c0-0.188-0.094-0.281-0.281-0.281H202.6c-0.68-0.047-1.125-0.223-1.336-0.527c-0.234-0.234-0.352-0.668-0.352-1.301
		c0-0.563,0.129-0.972,0.387-1.23C201.58,55.978,202.014,55.814,202.6,55.814z M203.127,47.553c0.375,0,0.715,0.083,1.02,0.246
		c1.805,1.172,3.34,2.344,4.605,3.516c0.375,0.492,0.563,0.867,0.563,1.125c0,0.399-0.129,0.762-0.387,1.09
		c-0.234,0.352-0.621,0.598-1.16,0.738c-0.352,0-0.656-0.058-0.914-0.176c-0.281-0.141-0.563-0.328-0.844-0.563
		c-1.125-0.914-2.379-1.816-3.762-2.707c-0.164-0.141-0.293-0.246-0.387-0.316c-0.352-0.328-0.539-0.715-0.563-1.16
		c0-0.469,0.188-0.891,0.563-1.266C202.236,47.728,202.658,47.553,203.127,47.553z M204.533,40.767c0.352,0,0.691,0.094,1.02,0.281
		c1.734,1.102,3.234,2.192,4.5,3.27c0.352,0.469,0.527,0.832,0.527,1.09c0,0.375-0.117,0.738-0.352,1.09
		c-0.258,0.375-0.656,0.633-1.195,0.773c-0.352,0-0.645-0.058-0.879-0.176c-0.305-0.164-0.574-0.339-0.809-0.527
		c-1.125-0.867-2.355-1.71-3.691-2.531c-0.188-0.141-0.316-0.246-0.387-0.316c-0.352-0.328-0.539-0.691-0.563-1.09
		c0-0.492,0.188-0.926,0.563-1.301C203.643,40.955,204.064,40.767,204.533,40.767z M213.252,47.131h3.832
		c-0.094-0.141-0.199-0.293-0.316-0.457c-0.75-1.125-1.5-2.32-2.25-3.586c-0.211-0.328-0.34-0.633-0.387-0.914
		c0-0.469,0.223-0.891,0.668-1.266c0.375-0.281,0.809-0.422,1.301-0.422c0.375,0.023,0.75,0.164,1.125,0.422
		c0.516,0.469,0.973,1.008,1.371,1.617c1.102,1.547,1.676,2.66,1.723,3.34c0,0.492-0.223,0.914-0.668,1.266h4.957
		c-0.164-0.258-0.246-0.55-0.246-0.879c0-0.164,0.117-0.41,0.352-0.738c0.773-1.289,1.465-2.672,2.074-4.148
		c0.117-0.258,0.281-0.469,0.492-0.633c0.211-0.141,0.469-0.223,0.773-0.246c0.609,0,1.125,0.129,1.547,0.387
		c0.445,0.329,0.668,0.809,0.668,1.441c0,0.329-0.105,0.715-0.316,1.16c-0.727,1.735-1.313,2.906-1.758,3.516
		c-0.047,0.047-0.082,0.094-0.105,0.141h2.496c0.609,0,1.055,0.118,1.336,0.352c0.234,0.211,0.352,0.656,0.352,1.336
		c0,0.54-0.105,0.949-0.316,1.23c-0.305,0.399-0.762,0.598-1.371,0.598h-6.75v0.563c0,1.078,0.047,2.051,0.141,2.918h7.699
		c0.68,0,1.16,0.153,1.441,0.457c0.281,0.211,0.422,0.68,0.422,1.406c0,0.54-0.117,0.949-0.352,1.23
		c-0.328,0.399-0.832,0.598-1.512,0.598h-6.82c0.047,0.07,0.082,0.141,0.105,0.211c0.938,1.969,3.328,4.008,7.172,6.117
		c0.633,0.305,0.949,0.773,0.949,1.406c-0.023,0.68-0.223,1.184-0.598,1.512c-0.469,0.375-1.008,0.563-1.617,0.563
		c-0.563,0-1.148-0.188-1.758-0.563c-1.898-1.172-4.148-3.445-6.75-6.82c-0.164-0.234-0.328-0.352-0.492-0.352
		c-0.094,0-0.223,0.105-0.387,0.316c-1.922,2.789-3.855,4.887-5.801,6.293c-1.078,0.75-1.969,1.125-2.672,1.125
		c-0.703-0.047-1.266-0.305-1.688-0.773c-0.305-0.398-0.457-0.785-0.457-1.16c0-0.633,0.246-1.102,0.738-1.406
		c2.648-1.688,4.594-3.199,5.836-4.535c0.492-0.563,0.914-1.207,1.266-1.934h-6.574c-0.586,0-1.043-0.152-1.371-0.457
		c-0.305-0.258-0.457-0.715-0.457-1.371c0-0.633,0.152-1.102,0.457-1.406c0.328-0.304,0.785-0.457,1.371-0.457h7.559
		c0.094-0.703,0.152-1.453,0.176-2.25v-1.23h-6.609c-0.539,0-0.961-0.141-1.266-0.422c-0.258-0.281-0.387-0.75-0.387-1.406
		c0-0.585,0.129-1.031,0.387-1.336C212.291,47.248,212.713,47.131,213.252,47.131z"/>
</g>
<g>
	<g>
		<g>
			<path fill="#FFFFFF" d="M-25.32,79.966c0,3.109-0.378,5.433-1.132,6.973c-1.117,1.751-1.947,2.958-2.49,3.622l0.453,0.453
				c2.927-1.238,6.082-1.856,9.463-1.856c0.363,0,6.143,0.272,17.342,0.815c0.815,0.029,2.4,0.151,4.754,0.362
				c1.751,0.151,3.32,0.226,4.709,0.226c8.089,0,14.413-2.505,18.972-7.516c4.136-4.528,6.097-10.127,5.886-16.798
				c-0.151-5.071-2.535-9.825-7.154-14.263c1.721-2.536,2.581-5.584,2.581-9.147c0-0.694-0.031-1.418-0.091-2.173
				c-0.455-5.705-2.912-10.127-7.37-13.267c-4.217-3.018-9.737-4.528-16.561-4.528c-1.972,0-4.656,0.121-8.053,0.362
				c-3.397,0.242-6.43,0.362-9.099,0.362c-4.49,0-9.676-0.407-15.56-1.223l-0.273,0.498c1.24,0.906,2.138,1.917,2.692,3.034
				c0.62,1.238,0.93,3.305,0.93,6.203v5.385h8.331v-8.057H5.74c7.879,0,12.633,3.336,14.263,10.007
				c0.241,0.996,0.362,2.037,0.362,3.124c0,2.264-0.498,4.392-1.494,6.384c-0.996,1.992-2.28,3.396-3.849,4.211
				c2.324,0.634,4.452,2.128,6.384,4.483c2.203,2.717,3.32,5.736,3.351,9.055c0.029,4.499-1.193,8.316-3.668,11.456
				c-2.475,3.14-5.645,4.709-9.508,4.709h-28.571V51.826h-8.256c-0.026,0-0.05,0.007-0.076,0.008V79.966z"/>
		</g>
	</g>
	<path fill="#FFFFFF" d="M7.324,63.337h-22.1v8.621h22.1c2.381,0,4.31-1.93,4.31-4.31C11.634,65.267,9.704,63.337,7.324,63.337z"/>
</g>
<g>
	<path fill="none" stroke="#FFFFFF" stroke-width="2" stroke-miterlimit="10" d="M20.201,8.573
		c5.488-0.242,11.36,1.958,15.886,6.485c4.536,4.536,6.737,10.423,6.483,15.922"/>
	<path fill="none" stroke="#FFFFFF" stroke-width="2" stroke-miterlimit="10" d="M19.554,18.168
		c3.293-0.145,6.816,1.175,9.532,3.891c2.722,2.722,4.042,6.254,3.89,9.553"/>
	<path fill="none" stroke="#FFFFFF" stroke-width="2" stroke-miterlimit="10" d="M19.878,13.37
		c4.391-0.194,9.088,1.566,12.709,5.188c3.629,3.629,5.389,8.339,5.186,12.738"/>
</g>
<path fill="#FFFFFF" d="M0.778,40.348H-25.96v0.016c-8.384,0.376-15.089,7.314-15.089,15.789c0,7.93,5.881,14.476,13.505,15.596
	v-8.851c-2.83-0.958-4.884-3.595-4.884-6.745c0-3.962,3.223-7.184,7.184-7.184H0.778c2.381,0,4.311-1.93,4.311-4.31
	S3.159,40.348,0.778,40.348z"/>
</svg>
