<?xml version="1.0" encoding="utf-8"?>
<!-- Generator: Adobe Illustrator 17.0.0, SVG Export Plug-In . SVG Version: 6.00 Build 0)  -->
<!DOCTYPE svg PUBLIC "-//W3C//DTD SVG 1.1//EN" "http://www.w3.org/Graphics/SVG/1.1/DTD/svg11.dtd">
<svg version="1.1" id="Layer_1" xmlns="http://www.w3.org/2000/svg" xmlns:xlink="http://www.w3.org/1999/xlink" x="0px" y="0px"
	 width="340.157px" height="113.386px" viewBox="0 0 340.157 113.386" enable-background="new 0 0 340.157 113.386"
	 xml:space="preserve">
<g>
	<path fill="#FFFFFF" d="M72.063,17.21c5.331,0,10.502,1.043,15.367,3.101c4.701,1.989,8.924,4.836,12.551,8.463
		s6.474,7.85,8.463,12.551c2.058,4.866,3.101,10.036,3.101,15.367s-1.043,10.502-3.101,15.367
		c-1.989,4.701-4.836,8.924-8.463,12.551c-3.627,3.627-7.85,6.474-12.551,8.463c-4.866,2.058-10.036,3.101-15.367,3.101
		c-5.331,0-10.502-1.043-15.367-3.101c-4.701-1.989-8.924-4.836-12.551-8.463s-6.474-7.85-8.463-12.551
		c-2.058-4.866-3.101-10.036-3.101-15.367s1.043-10.502,3.101-15.367c1.989-4.701,4.836-8.924,8.463-12.551s7.85-6.474,12.551-8.463
		C61.562,18.254,66.732,17.21,72.063,17.21 M72.063,14.173c-23.483,0-42.52,19.037-42.52,42.52s19.037,42.52,42.52,42.52
		s42.52-19.037,42.52-42.52S95.546,14.173,72.063,14.173L72.063,14.173z"/>
	<path fill="#FFFFFF" d="M43.927,68.841c-4.793,0-7.815-3.502-7.954-3.667c-0.539-0.638-0.456-1.589,0.186-2.124
		c0.64-0.534,1.595-0.453,2.135,0.18c0.115,0.133,2.773,3.15,6.759,2.503c2.298-0.373,5.33-4.875,7.337-7.854
		c0.807-1.198,1.504-2.232,2.129-3.01c3.184-3.961,6.435-4.429,8.604-4.124c4.582,0.644,8.42,5.22,10.191,9.469
		c1.415,3.395,3.615,5.364,6.193,5.544c2.925,0.201,5.987-1.876,8.182-5.569c0.233-0.392,0.486-0.853,0.755-1.342
		c1.8-3.277,4.52-8.229,9.823-8.229c5.912,0,9.862,6.508,10.028,6.785c0.427,0.716,0.189,1.642-0.533,2.066
		c-0.721,0.425-1.653,0.188-2.08-0.529c-0.007-0.012-0.853-1.407-2.251-2.765c-1.193-1.159-3.058-2.541-5.164-2.541
		c-3.5,0-5.528,3.691-7.157,6.657c-0.281,0.512-0.547,0.995-0.806,1.431c-2.794,4.698-6.909,7.334-11.011,7.044
		c-3.787-0.265-6.907-2.893-8.786-7.399c-1.901-4.559-5.368-7.292-7.811-7.636c-2.012-0.284-3.966,0.733-5.804,3.019
		c-0.545,0.678-1.241,1.712-1.978,2.805c-2.572,3.818-5.773,8.57-9.371,9.154C44.985,68.8,44.446,68.841,43.927,68.841z"/>
</g>
<g>
	<path fill="#FFFFFF" d="M166,40.345c0.703,0,1.195,0.141,1.477,0.422c0.398,0.375,0.598,0.844,0.598,1.406v1.266H179.5
		c0.609,0,1.043,0.129,1.301,0.387c0.258,0.234,0.387,0.668,0.387,1.301c0,0.54-0.105,0.926-0.316,1.16
		c-0.281,0.352-0.738,0.527-1.371,0.527h-3.867l-1.441,4.5h6.574c0.609,0,1.055,0.141,1.336,0.422
		c0.234,0.211,0.352,0.645,0.352,1.301c0,0.516-0.105,0.891-0.316,1.125c-0.305,0.375-0.762,0.563-1.371,0.563H151.34
		c-0.539,0-0.961-0.141-1.266-0.422c-0.281-0.234-0.422-0.656-0.422-1.266c0-0.585,0.141-1.031,0.422-1.336
		c0.305-0.258,0.727-0.387,1.266-0.387h7.102l-1.406-4.5h-4.289c-0.539,0-0.961-0.128-1.266-0.387
		c-0.281-0.234-0.422-0.668-0.422-1.301c0-0.563,0.141-0.996,0.422-1.301c0.305-0.258,0.727-0.387,1.266-0.387h11.145v-1.266
		c0-0.492,0.188-0.961,0.563-1.406C164.711,40.486,165.226,40.345,166,40.345z M155.558,56.693h20.989
		c1.688,0,2.531,0.844,2.531,2.531V69.49c0,1.688-0.844,2.531-2.531,2.531h-20.989c-1.688,0-2.531-0.844-2.531-2.531V59.224
		C153.027,57.537,153.871,56.693,155.558,56.693z M157,62.599h18.141V60.49c0-0.398-0.188-0.598-0.563-0.598h-17.051
		c-0.352,0-0.527,0.199-0.527,0.598V62.599z M174.579,68.787c0.375,0,0.563-0.188,0.563-0.563v-2.531H157v2.531
		c0,0.375,0.176,0.563,0.527,0.563H174.579z M162.66,51.314h7.348l1.407-4.5h-10.161L162.66,51.314z"/>
	<path fill="#FFFFFF" d="M201.853,40.486c0.586,0,0.996,0.105,1.23,0.316c0.305,0.281,0.457,0.645,0.457,1.09v2.426h3.551
		c0.516,0,0.855,0.094,1.02,0.281c0.258,0.188,0.387,0.563,0.387,1.125c0,0.422-0.082,0.727-0.246,0.914
		c-0.234,0.329-0.621,0.492-1.16,0.492h-3.551v3.902h4.254c0.563,0,0.961,0.118,1.195,0.352c0.234,0.211,0.352,0.61,0.352,1.195
		c0,0.54-0.094,0.926-0.281,1.16c-0.281,0.352-0.703,0.527-1.266,0.527h-3.973v9.211c1.031-1.734,1.547-3.574,1.547-5.52
		c0.188-0.726,0.703-1.102,1.547-1.125c0.586,0,0.996,0.129,1.23,0.387c0.328,0.234,0.492,0.575,0.492,1.02
		c-0.047,1.523-0.281,2.859-0.703,4.008c-0.703,2.203-1.758,4.055-3.164,5.555c-1.992,1.992-4.5,3.516-7.523,4.57
		c-0.914,0.328-1.91,0.492-2.988,0.492c-0.609,0-1.066-0.234-1.371-0.703c-0.188-0.305-0.281-0.633-0.281-0.984
		c0-0.609,0.27-1.031,0.809-1.266c4.336-1.219,7.359-2.742,9.07-4.57c-0.609,0.211-1.371,0.328-2.285,0.352
		c-0.422,0-0.82-0.023-1.195-0.07c-0.352,0-0.656-0.082-0.914-0.246c-0.305-0.141-0.527-0.352-0.668-0.633
		c-0.117-0.281-0.176-0.527-0.176-0.738c0-0.633,0.188-1.078,0.563-1.336c0.445-0.328,1.242-0.492,2.391-0.492
		c0.164,0,0.246-0.152,0.246-0.457v-7.453h-6.293c-0.539,0-0.938-0.128-1.195-0.387c-0.234-0.234-0.352-0.668-0.352-1.301
		c0-0.515,0.117-0.914,0.352-1.195c0.258-0.234,0.656-0.352,1.195-0.352h0.984v-6.996c0-0.398,0.141-0.761,0.422-1.09
		c0.188-0.211,0.563-0.316,1.125-0.316c0.539,0,0.926,0.105,1.16,0.316c0.352,0.258,0.527,0.621,0.527,1.09v6.996h1.828v-9.141
		c0-0.375,0.152-0.738,0.457-1.09C200.892,40.591,201.29,40.486,201.853,40.486z M196.685,55.673c0.492,0,0.902,0.105,1.23,0.316
		c0.398,0.258,0.598,0.621,0.598,1.09c-0.023,0.492-0.164,1.09-0.422,1.793c-0.984,2.672-1.781,4.477-2.391,5.414
		c-0.352,0.563-0.785,0.844-1.301,0.844c-0.375,0-0.75-0.129-1.125-0.387c-0.375-0.211-0.563-0.551-0.563-1.02
		c0-0.281,0.129-0.68,0.387-1.195c0.984-1.852,1.852-3.89,2.602-6.117c0.094-0.211,0.223-0.387,0.387-0.527
		C196.228,55.767,196.427,55.697,196.685,55.673z M210.747,41.752h13.078c0.492,0,0.855,0.105,1.09,0.316
		c0.305,0.188,0.457,0.598,0.457,1.23c0,0.586-0.082,0.984-0.246,1.195c-0.281,0.329-0.715,0.492-1.301,0.492h-4.781l-0.738,2.707
		h2.988c1.875,0,2.813,0.938,2.813,2.813v13.5c0,1.688-0.762,2.613-2.285,2.777c0.07,0.094,0.176,0.199,0.316,0.316
		c0.609,0.844,1.383,1.676,2.32,2.496c0.258,0.211,0.41,0.363,0.457,0.457c0.305,0.305,0.457,0.68,0.457,1.125
		c0,0.516-0.223,0.973-0.668,1.371c-0.422,0.398-0.914,0.598-1.477,0.598c-0.258,0-0.492-0.094-0.703-0.281
		c-1.078-0.914-2.086-1.98-3.023-3.199c-0.211-0.305-0.363-0.551-0.457-0.738c-0.188-0.328-0.293-0.715-0.316-1.16
		c0.047-0.352,0.199-0.668,0.457-0.949h-3.691c0.094,0.188,0.141,0.375,0.141,0.563c0,0.305-0.082,0.633-0.246,0.984
		c-0.938,1.57-2.215,3.035-3.832,4.395c-0.328,0.258-0.645,0.387-0.949,0.387c-0.586,0-1.102-0.246-1.547-0.738
		c-0.375-0.445-0.563-0.902-0.563-1.371c0-0.305,0.188-0.586,0.563-0.844c0.234-0.188,0.621-0.551,1.16-1.09
		c0.75-0.703,1.477-1.477,2.18-2.32c-1.477-0.188-2.215-1.113-2.215-2.777v-13.5c0-1.875,0.938-2.813,2.813-2.813h1.688l0.668-2.707
		h-4.605c-0.469,0-0.844-0.128-1.125-0.387c-0.281-0.211-0.422-0.645-0.422-1.301c0-0.609,0.141-1.02,0.422-1.23
		C209.857,41.857,210.232,41.752,210.747,41.752z M213.56,53.318h7.172v-1.547c0-0.656-0.328-0.984-0.984-0.984h-5.203
		c-0.656,0-0.984,0.329-0.984,0.984V53.318z M213.56,58.486h7.172V56.13h-7.172V58.486z M219.747,63.724
		c0.656,0,0.984-0.328,0.984-0.984v-1.406h-7.172v1.406c0,0.656,0.328,0.984,0.984,0.984H219.747z"/>
	<path fill="#FFFFFF" d="M244.807,57.572v13.887c0,0.422-0.117,0.785-0.352,1.09c-0.328,0.398-0.82,0.598-1.477,0.598
		c-0.563,0-1.008-0.188-1.336-0.563c-0.234-0.328-0.352-0.703-0.352-1.125V59.681c-0.984,2.813-1.828,4.582-2.531,5.309
		c-0.258,0.281-0.727,0.422-1.406,0.422c-0.445-0.047-0.785-0.188-1.02-0.422c-0.281-0.328-0.422-0.703-0.422-1.125
		c0-0.539,0.152-1.148,0.457-1.828c1.758-3.094,3.398-6.762,4.922-11.004v-0.949h-3.41c-0.492,0-0.891-0.152-1.195-0.457
		c-0.328-0.234-0.492-0.703-0.492-1.406c0-0.656,0.164-1.113,0.492-1.371c0.234-0.211,0.633-0.316,1.195-0.316h3.41v-4.781
		c0-0.492,0.152-0.902,0.457-1.23c0.281-0.281,0.691-0.422,1.23-0.422s0.973,0.141,1.301,0.422c0.352,0.305,0.527,0.715,0.527,1.23
		v4.781h2.813c0.539,0,0.949,0.118,1.23,0.352c0.305,0.211,0.457,0.656,0.457,1.336c0,0.633-0.094,1.055-0.281,1.266
		c-0.305,0.399-0.773,0.598-1.406,0.598h-2.813v1.934c0.516,0.492,1.137,1.254,1.863,2.285c1.711,2.742,2.59,4.746,2.637,6.012
		c0,0.445-0.129,0.797-0.387,1.055c-0.305,0.234-0.738,0.352-1.301,0.352c-0.445,0-0.82-0.223-1.125-0.668
		C245.979,59.857,245.416,58.697,244.807,57.572z M265.76,56.939c0.328,0,0.68,0.094,1.055,0.281
		c0.492,0.305,0.75,0.727,0.773,1.266c0,0.54-0.375,1.336-1.125,2.391c-1.195,1.617-2.402,3.023-3.621,4.219
		c0.094,0.07,0.199,0.164,0.316,0.281c1.219,1.242,2.707,2.461,4.465,3.656c0.516,0.352,0.832,0.598,0.949,0.738
		c0.281,0.305,0.422,0.668,0.422,1.09c0,0.539-0.211,0.996-0.633,1.371c-0.469,0.422-0.961,0.633-1.477,0.633
		c-0.469,0-0.891-0.117-1.266-0.352c-1.828-1.313-3.539-2.813-5.133-4.5c-0.188-0.234-0.352-0.445-0.492-0.633
		c-2.578,1.945-5.156,3.469-7.734,4.57c-1.008,0.422-1.77,0.633-2.285,0.633s-0.902-0.141-1.16-0.422
		c-0.328-0.352-0.504-0.785-0.527-1.301c0-0.469,0.246-0.879,0.738-1.23c3.633-1.734,6.68-3.516,9.141-5.344
		c2.578-1.898,4.734-4.148,6.469-6.75C264.94,57.138,265.315,56.939,265.76,56.939z M258.975,40.205
		c0.633,0,1.066,0.118,1.301,0.352c0.375,0.305,0.563,0.703,0.563,1.195v1.969h6.469c0.609,0,1.043,0.141,1.301,0.422
		c0.258,0.211,0.387,0.633,0.387,1.266c0,0.563-0.105,0.984-0.316,1.266c-0.281,0.399-0.738,0.598-1.371,0.598h-7.418
		c-0.047,0.141-0.105,0.281-0.176,0.422c-0.281,0.821-1.16,2.145-2.637,3.973c-0.656,0.797-1.301,1.535-1.934,2.215
		c0.773,0.68,1.5,1.395,2.18,2.145c0.117-0.141,0.246-0.258,0.387-0.352c2.016-1.805,3.668-3.773,4.957-5.906
		c0.281-0.352,0.703-0.527,1.266-0.527c0.281,0,0.574,0.105,0.879,0.316c0.445,0.281,0.668,0.727,0.668,1.336
		c-0.023,0.281-0.141,0.645-0.352,1.09c-0.633,1.336-1.805,2.883-3.516,4.641c-3.797,3.984-6.961,6.715-9.492,8.191
		c-0.398,0.305-0.82,0.457-1.266,0.457c-0.398,0-0.809-0.199-1.23-0.598c-0.305-0.352-0.457-0.773-0.457-1.266
		c0-0.375,0.129-0.691,0.387-0.949c1.852-1.359,3.504-2.66,4.957-3.902c-1.219-1.218-2.625-2.449-4.219-3.691
		c-0.539-0.469-0.82-0.984-0.844-1.547c0.023-0.515,0.188-0.902,0.492-1.16c0.375-0.352,0.762-0.527,1.16-0.527
		c0.492,0.023,0.938,0.118,1.336,0.281c1.336-1.477,2.531-3.023,3.586-4.641h-5.309c-0.586,0-1.02-0.152-1.301-0.457
		c-0.258-0.258-0.387-0.726-0.387-1.406c0-0.563,0.129-0.996,0.387-1.301c0.281-0.258,0.715-0.387,1.301-0.387h6.434v-1.969
		c0-0.422,0.176-0.82,0.527-1.195C257.909,40.322,258.342,40.205,258.975,40.205z"/>
	<path fill="#FFFFFF" d="M286.705,40.486c0.68,0,1.301,0.329,1.863,0.984c1.523,1.898,3.164,3.926,4.922,6.082
		c0.281,0.234,0.422,0.656,0.422,1.266c-0.047,0.492-0.246,0.902-0.598,1.23c-0.352,0.305-0.762,0.457-1.23,0.457
		c-0.047,0-0.082-0.012-0.105-0.035c0.164,0.258,0.246,0.645,0.246,1.16c0,0.586-0.082,0.997-0.246,1.23
		c-0.305,0.399-0.785,0.598-1.441,0.598h-2.004v3.234h2.953c0.586,0,1.008,0.105,1.266,0.316c0.281,0.188,0.422,0.646,0.422,1.371
		c0,0.61-0.082,1.02-0.246,1.23c-0.281,0.375-0.762,0.563-1.441,0.563h-2.953v7.875c1.266-0.188,2.496-0.375,3.691-0.563
		c0.469,0,0.82,0.188,1.055,0.563c0.234,0.258,0.352,0.633,0.352,1.125c0,0.516-0.152,0.926-0.457,1.23
		c-0.188,0.258-0.551,0.41-1.09,0.457c-3.844,0.891-7.465,1.406-10.863,1.547c-0.586-0.023-0.984-0.152-1.195-0.387
		c-0.305-0.305-0.469-0.785-0.492-1.441c0-0.469,0.141-0.832,0.422-1.09c0.352-0.375,0.879-0.563,1.582-0.563
		c1.125-0.141,2.25-0.27,3.375-0.387v-8.367h-3.516c-0.516,0-0.926-0.129-1.23-0.387c-0.328-0.258-0.492-0.726-0.492-1.406
		c0-0.68,0.164-1.147,0.492-1.406c0.234-0.188,0.645-0.281,1.23-0.281h3.516v-3.234h-2.566c-0.492,0-0.891-0.141-1.195-0.422
		c-0.328-0.258-0.492-0.726-0.492-1.406c0-0.352,0.047-0.633,0.141-0.844c-0.492-0.023-0.961-0.234-1.406-0.633
		c-0.258-0.398-0.387-0.75-0.387-1.055c0-0.515,0.129-0.902,0.387-1.16c1.875-2.109,3.668-4.289,5.379-6.539
		C285.381,40.791,286.026,40.486,286.705,40.486z M281.397,61.193c0.281,0,0.551,0.047,0.809,0.141
		c0.258,0.281,0.586,0.785,0.984,1.512c0.727,1.617,1.102,2.789,1.125,3.516c0,0.445-0.129,0.797-0.387,1.055
		c-0.281,0.234-0.715,0.352-1.301,0.352c-0.422,0-0.785-0.223-1.09-0.668c-0.445-1.289-0.926-2.555-1.441-3.797
		c-0.188-0.352-0.281-0.633-0.281-0.844c0-0.445,0.199-0.797,0.598-1.055C280.694,61.263,281.022,61.193,281.397,61.193z
		 M282.241,49.908c0.047,0,0.082,0,0.105,0h8.191c0.164,0,0.316,0.023,0.457,0.07c-0.047-0.07-0.082-0.117-0.105-0.141
		c-0.867-0.914-1.922-2.391-3.164-4.43c-0.375-0.633-0.668-0.949-0.879-0.949c-0.234,0-0.492,0.211-0.773,0.633
		c-1.781,2.484-3.012,4.055-3.691,4.711C282.334,49.85,282.287,49.885,282.241,49.908z M291.346,60.912
		c0.563,0,1.02,0.094,1.371,0.281c0.398,0.234,0.598,0.609,0.598,1.125c0,0.234-0.059,0.551-0.176,0.949
		c-0.445,1.477-0.797,2.461-1.055,2.953c-0.352,0.586-0.773,0.879-1.266,0.879c-0.398,0-0.785-0.117-1.16-0.352
		c-0.352-0.234-0.527-0.586-0.527-1.055c0-0.164,0.047-0.387,0.141-0.668c0.422-1.031,0.797-2.18,1.125-3.445
		c0.094-0.211,0.223-0.375,0.387-0.492C290.924,60.97,291.112,60.912,291.346,60.912z M302.631,40.099
		c0.633,0,1.102,0.118,1.406,0.352c0.375,0.281,0.563,0.68,0.563,1.195v7.031h3.797c1.758,0,2.637,1.172,2.637,3.516v18
		c0,1.031-0.281,1.711-0.844,2.039c-0.656,0.422-1.629,0.633-2.918,0.633c-1.992,0-3.492-0.281-4.5-0.844
		c-0.586-0.328-0.914-0.809-0.984-1.441c0-1.313,0.516-2.004,1.547-2.074c0.211,0,0.469,0.035,0.773,0.105
		c1.102,0.375,2.109,0.563,3.023,0.563c0.281-0.047,0.422-0.27,0.422-0.668V65.13h-9.563v6.047c0,0.633-0.176,1.078-0.527,1.336
		c-0.258,0.234-0.703,0.352-1.336,0.352c-0.586,0-1.02-0.152-1.301-0.457c-0.258-0.305-0.387-0.715-0.387-1.23V52.193
		c0-2.343,0.809-3.516,2.426-3.516h3.902v-7.031c0-0.445,0.176-0.855,0.527-1.23C301.53,40.205,301.975,40.099,302.631,40.099z
		 M296.268,41.224c0.422,0.023,0.844,0.164,1.266,0.422c0.352,0.445,0.75,1.195,1.195,2.25c0.539,1.148,0.809,1.981,0.809,2.496
		c0,0.516-0.176,0.926-0.527,1.23c-0.375,0.305-0.867,0.457-1.477,0.457c-0.469,0-0.832-0.176-1.09-0.527
		c-0.492-1.429-1.102-2.835-1.828-4.219c-0.117-0.211-0.176-0.398-0.176-0.563c0-0.539,0.223-0.949,0.668-1.23
		C295.506,41.33,295.893,41.224,296.268,41.224z M297.991,55.287h9.563V52.72c0-0.352-0.141-0.527-0.422-0.527h-8.578
		c-0.375,0-0.563,0.223-0.563,0.668V55.287z M297.991,61.72h9.563v-3.094h-9.563V61.72z M309.381,41.084
		c0.539,0,1.008,0.129,1.406,0.387c0.469,0.281,0.703,0.715,0.703,1.301c0,0.234-0.105,0.563-0.316,0.984
		c-0.586,1.359-1.23,2.579-1.934,3.656c-0.352,0.422-0.738,0.645-1.16,0.668c-0.516,0-0.973-0.128-1.371-0.387
		c-0.469-0.352-0.703-0.785-0.703-1.301c0-0.188,0.059-0.422,0.176-0.703c0.844-1.523,1.477-2.789,1.898-3.797
		c0.164-0.258,0.34-0.457,0.527-0.598C308.819,41.154,309.077,41.084,309.381,41.084z"/>
</g>
</svg>
