<?xml version="1.0" encoding="utf-8"?>
<!-- Generator: Adobe Illustrator 17.0.0, SVG Export Plug-In . SVG Version: 6.00 Build 0)  -->
<!DOCTYPE svg PUBLIC "-//W3C//DTD SVG 1.1//EN" "http://www.w3.org/Graphics/SVG/1.1/DTD/svg11.dtd">
<svg version="1.1" id="圖層_1" xmlns="http://www.w3.org/2000/svg" xmlns:xlink="http://www.w3.org/1999/xlink" x="0px" y="0px"
	 width="256px" height="256px" viewBox="0 0 256 256" enable-background="new 0 0 256 256" xml:space="preserve">
<g>
	<g>
		<defs>
			<path id="SVGID_1_" d="M202.308,255.999H53.381c-29.52,0-53.537-24.016-53.537-53.534V53.538
				c0-29.519,24.017-53.537,53.537-53.537h148.927c29.52,0,53.536,24.019,53.536,53.537v148.927
				C255.845,231.984,231.828,255.999,202.308,255.999z"/>
		</defs>
		<use xlink:href="#SVGID_1_"  overflow="visible" fill="#E1E1E1"/>
		<clipPath id="SVGID_2_">
			<use xlink:href="#SVGID_1_"  overflow="visible"/>
		</clipPath>
		<g clip-path="url(#SVGID_2_)">
			<path fill="#F8F8F8" d="M202.308,243.199H53.381c-29.52,0-53.537-24.016-53.537-53.534V40.737
				c0-29.519,24.017-53.537,53.537-53.537h148.927c29.52,0,53.536,24.019,53.536,53.537v148.927
				C255.845,219.183,231.828,243.199,202.308,243.199z"/>
		</g>
	</g>
	<g>
		<g>
			<g>
				<path fill="#FD462A" d="M66.928,40.429c14.646,2.029,27.557,3.043,38.733,3.043c6.644,0,14.194-0.299,22.65-0.901
					c8.455-0.601,15.137-0.902,20.046-0.902c16.988,0,30.728,3.758,41.226,11.272c11.098,7.816,17.213,18.823,18.346,33.026
					c0.151,1.879,0.227,3.683,0.227,5.409c0,8.869-2.142,16.456-6.425,22.769c11.496,11.046,17.432,22.881,17.808,35.504
					c0.525,16.608-4.358,30.546-14.653,41.817c-11.347,12.474-27.09,18.71-47.227,18.71c-3.458,0-7.365-0.189-11.722-0.564
					c-5.861-0.526-9.807-0.828-11.835-0.901c-27.879-1.353-42.268-2.029-43.17-2.029c-8.416,0-16.269,1.539-23.556,4.621
					l-1.128-1.127c1.353-1.653,3.418-4.658,6.2-9.018c1.877-3.832,2.818-9.617,2.818-17.357V64.663
					c0-7.214-0.773-12.36-2.316-15.442c-1.381-2.779-3.615-5.298-6.702-7.552L66.928,40.429z M96.006,191.016h71.123
					c9.617,0,17.508-3.906,23.669-11.722c6.16-7.815,9.204-17.319,9.13-28.517c-0.076-8.264-2.857-15.78-8.341-22.542
					c-4.81-5.861-10.107-9.581-15.893-11.159c3.906-2.029,7.101-5.523,9.581-10.482c2.479-4.96,3.719-10.258,3.719-15.893
					c0-2.706-0.3-5.298-0.901-7.778c-4.058-16.606-15.893-24.91-35.505-24.91H96.006V191.016z"/>
			</g>
		</g>
	</g>
	<g>
		<g>
			<path fill="#FD462A" d="M72.673,164.866v-0.094c-21.14-1.438-37.562-18.938-37.562-40.249c0-21.313,16.421-38.812,37.562-40.25
				v-0.055l1-0.04h66.563c6.468,0,11.729,5.262,11.729,11.73c0,6.468-5.262,11.73-11.729,11.73H75.454
				c-9.309,0-16.882,7.574-16.882,16.884s7.573,16.883,16.882,16.883h81.074c6.468,0,11.73,5.263,11.73,11.73
				s-5.263,11.729-11.73,11.729H72.673z"/>
			<path fill="#F8F8F8" d="M140.235,85.179c5.926,0,10.73,4.804,10.73,10.73c0,5.926-4.804,10.73-10.73,10.73H75.454
				c-9.861,0-17.883,8.022-17.883,17.884c0,9.86,8.022,17.883,17.883,17.883h81.074c5.926,0,10.73,4.804,10.73,10.73
				c0,5.926-4.804,10.73-10.73,10.73H73.673v-0.04c-20.87-0.935-37.562-18.206-37.562-39.303s16.691-38.37,37.562-39.305v-0.04
				H140.235 M140.235,83.179H73.673h-2v0.171c-9.906,0.901-19.096,5.323-26.051,12.576c-7.423,7.741-11.511,17.897-11.511,28.597
				c0,10.7,4.088,20.856,11.511,28.597c6.954,7.252,16.145,11.674,26.051,12.575v0.132l2,0.04h82.855
				c7.019,0,12.73-5.711,12.73-12.73c0-7.019-5.711-12.73-12.73-12.73H75.454c-8.758,0-15.883-7.125-15.883-15.883
				c0-8.758,7.125-15.884,15.883-15.884h64.781c7.019,0,12.73-5.711,12.73-12.73S147.254,83.179,140.235,83.179L140.235,83.179z"/>
		</g>
	</g>
	<rect x="70.408" y="138.936" fill="#F8F8F8" width="20.74" height="28.828"/>
	<rect x="75.266" y="124.523" fill="#FD462A" width="20.74" height="49.962"/>
</g>
</svg>
