<?xml version="1.0" encoding="utf-8"?>
<!-- Generator: Adobe Illustrator 17.0.0, SVG Export Plug-In . SVG Version: 6.00 Build 0)  -->
<!DOCTYPE svg PUBLIC "-//W3C//DTD SVG 1.1//EN" "http://www.w3.org/Graphics/SVG/1.1/DTD/svg11.dtd">
<svg version="1.1" id="圖層_1" xmlns="http://www.w3.org/2000/svg" xmlns:xlink="http://www.w3.org/1999/xlink" x="0px" y="0px"
	 width="200px" height="85px" viewBox="0 0 200 85" enable-background="new 0 0 200 85" xml:space="preserve">
<g opacity="0.8">
	<path fill="#FFFFFF" d="M49.624,82.379c-4.548,0-7.415-3.323-7.547-3.479c-0.511-0.605-0.433-1.508,0.176-2.015
		c0.607-0.507,1.513-0.43,2.026,0.171c0.109,0.126,2.631,2.989,6.413,2.375c2.18-0.354,5.057-4.625,6.961-7.452
		c0.766-1.137,1.427-2.118,2.02-2.856c3.021-3.758,6.105-4.202,8.163-3.913c4.347,0.611,7.989,4.953,9.669,8.984
		c1.343,3.221,3.43,5.089,5.876,5.26c2.775,0.191,5.68-1.78,7.763-5.284c0.221-0.372,0.461-0.809,0.716-1.273
		c1.708-3.109,4.288-7.808,9.32-7.808c5.609,0,9.357,6.175,9.514,6.437c0.405,0.679,0.179,1.558-0.506,1.96
		c-0.684,0.403-1.568,0.178-1.973-0.502c-0.007-0.011-0.809-1.335-2.136-2.623c-1.132-1.1-2.901-2.411-4.9-2.411
		c-3.321,0-5.245,3.502-6.79,6.316c-0.267,0.486-0.519,0.944-0.765,1.358c-2.651,4.457-6.555,6.958-10.447,6.683
		c-3.593-0.251-6.553-2.745-8.336-7.02c-1.804-4.326-5.093-6.919-7.411-7.245c-1.909-0.269-3.763,0.695-5.507,2.864
		c-0.517,0.643-1.177,1.624-1.877,2.661c-2.44,3.622-5.477,8.131-8.891,8.685C50.628,82.34,50.116,82.379,49.624,82.379z"/>
</g>
<g opacity="0.4">
	<path fill="#FFFFFF" d="M29.306,82.379c-4.548,0-7.415-3.323-7.547-3.479c-0.511-0.605-0.433-1.508,0.176-2.015
		c0.607-0.507,1.513-0.43,2.026,0.171c0.109,0.126,2.631,2.989,6.413,2.375c2.18-0.354,5.057-4.625,6.961-7.452
		c0.766-1.137,1.427-2.118,2.02-2.856c3.021-3.758,6.105-4.202,8.163-3.913c4.347,0.611,7.989,4.953,9.669,8.984
		c1.343,3.221,3.43,5.089,5.876,5.26c2.775,0.191,5.68-1.78,7.763-5.284c0.221-0.372,0.461-0.809,0.716-1.273
		c1.708-3.109,4.288-7.808,9.32-7.808c5.609,0,9.357,6.175,9.514,6.437c0.405,0.679,0.179,1.558-0.506,1.96
		c-0.684,0.403-1.568,0.178-1.973-0.502c-0.007-0.011-0.809-1.335-2.136-2.623c-1.132-1.1-2.901-2.411-4.9-2.411
		c-3.321,0-5.245,3.502-6.79,6.316c-0.267,0.486-0.519,0.944-0.765,1.358c-2.651,4.457-6.555,6.958-10.447,6.683
		c-3.593-0.251-6.553-2.745-8.336-7.02c-1.804-4.326-5.093-6.919-7.411-7.245c-1.909-0.269-3.763,0.695-5.507,2.864
		c-0.517,0.643-1.177,1.624-1.877,2.661c-2.44,3.622-5.477,8.131-8.891,8.685C30.31,82.34,29.799,82.379,29.306,82.379z"/>
</g>
<g opacity="0.8">
	<path fill="#FFFFFF" d="M-24.698,82.379c-4.548,0-7.415-3.323-7.547-3.479c-0.511-0.605-0.433-1.508,0.176-2.015
		c0.607-0.507,1.513-0.43,2.026,0.171c0.109,0.126,2.631,2.989,6.413,2.375c2.18-0.354,5.057-4.625,6.961-7.452
		c0.766-1.137,1.427-2.118,2.02-2.856c3.021-3.758,6.105-4.202,8.163-3.913c4.347,0.611,7.989,4.953,9.669,8.984
		c1.343,3.221,3.43,5.089,5.876,5.26c2.775,0.191,5.68-1.78,7.763-5.284c0.221-0.372,0.461-0.809,0.716-1.273
		c1.708-3.109,4.288-7.808,9.32-7.808c5.609,0,9.357,6.175,9.514,6.437c0.405,0.679,0.179,1.558-0.506,1.96
		c-0.684,0.403-1.568,0.178-1.973-0.502c-0.007-0.011-0.809-1.335-2.136-2.623c-1.132-1.1-2.901-2.411-4.9-2.411
		c-3.321,0-5.245,3.502-6.79,6.316c-0.267,0.486-0.519,0.944-0.765,1.358c-2.651,4.457-6.555,6.958-10.447,6.683
		c-3.593-0.251-6.553-2.745-8.336-7.02c-1.804-4.326-5.093-6.919-7.411-7.245c-1.909-0.269-3.763,0.695-5.507,2.864
		c-0.517,0.643-1.177,1.624-1.877,2.661c-2.44,3.622-5.477,8.131-8.891,8.685C-23.694,82.34-24.206,82.379-24.698,82.379z"/>
</g>
<g opacity="0.4">
	<path fill="#FFFFFF" d="M-41.22,82.379c-4.548,0-7.415-3.323-7.547-3.479c-0.511-0.605-0.433-1.508,0.176-2.015
		c0.607-0.507,1.513-0.43,2.026,0.171c0.109,0.126,2.631,2.989,6.413,2.375c2.18-0.354,5.057-4.625,6.961-7.452
		c0.766-1.137,1.427-2.118,2.02-2.856c3.021-3.758,6.105-4.202,8.163-3.913c4.347,0.611,7.989,4.953,9.669,8.984
		c1.343,3.221,3.43,5.089,5.876,5.26c2.775,0.191,5.68-1.78,7.763-5.284c0.221-0.372,0.461-0.809,0.716-1.273
		c1.708-3.109,4.288-7.808,9.32-7.808c5.609,0,9.357,6.175,9.514,6.437c0.405,0.679,0.179,1.558-0.506,1.96
		c-0.684,0.403-1.568,0.178-1.973-0.502c-0.007-0.011-0.809-1.335-2.136-2.623c-1.132-1.1-2.901-2.411-4.9-2.411
		c-3.321,0-5.245,3.502-6.79,6.316c-0.267,0.486-0.519,0.944-0.765,1.358c-2.651,4.457-6.555,6.958-10.447,6.683
		c-3.593-0.251-6.553-2.745-8.336-7.02c-1.804-4.326-5.093-6.919-7.411-7.245c-1.909-0.269-3.763,0.695-5.507,2.864
		c-0.517,0.643-1.177,1.624-1.877,2.661c-2.44,3.622-5.477,8.131-8.891,8.685C-40.216,82.34-40.728,82.379-41.22,82.379z"/>
</g>
<g opacity="0.8">
	<path fill="#FFFFFF" d="M192.441,82.379c-4.548,0-7.415-3.323-7.547-3.479c-0.511-0.605-0.433-1.508,0.176-2.015
		c0.607-0.507,1.513-0.43,2.026,0.171c0.109,0.126,2.631,2.989,6.413,2.375c2.18-0.354,5.057-4.625,6.961-7.452
		c0.766-1.137,1.427-2.118,2.02-2.856c3.021-3.758,6.105-4.202,8.163-3.913c4.347,0.611,7.989,4.953,9.669,8.984
		c1.343,3.221,3.43,5.089,5.876,5.26c2.775,0.191,5.68-1.78,7.763-5.284c0.221-0.372,0.461-0.809,0.716-1.273
		c1.708-3.109,4.288-7.808,9.32-7.808c5.609,0,9.357,6.175,9.514,6.437c0.405,0.679,0.179,1.558-0.506,1.96
		c-0.684,0.403-1.568,0.178-1.973-0.502c-0.007-0.011-0.809-1.335-2.136-2.623c-1.132-1.1-2.901-2.411-4.9-2.411
		c-3.321,0-5.245,3.502-6.79,6.316c-0.267,0.486-0.519,0.944-0.765,1.358c-2.651,4.457-6.555,6.958-10.447,6.683
		c-3.593-0.251-6.553-2.745-8.336-7.02c-1.804-4.326-5.093-6.919-7.411-7.245c-1.909-0.269-3.763,0.695-5.507,2.864
		c-0.517,0.643-1.177,1.624-1.877,2.661c-2.44,3.622-5.477,8.131-8.891,8.685C193.445,82.34,192.933,82.379,192.441,82.379z"/>
</g>
<g opacity="0.4">
	<path fill="#FFFFFF" d="M172.123,82.379c-4.548,0-7.415-3.323-7.547-3.479c-0.511-0.605-0.433-1.508,0.176-2.015
		c0.607-0.507,1.513-0.43,2.026,0.171c0.109,0.126,2.631,2.989,6.413,2.375c2.18-0.354,5.057-4.625,6.961-7.452
		c0.766-1.137,1.427-2.118,2.02-2.856c3.021-3.758,6.105-4.202,8.163-3.913c4.347,0.611,7.989,4.953,9.669,8.984
		c1.343,3.221,3.43,5.089,5.876,5.26c2.775,0.191,5.68-1.78,7.763-5.284c0.221-0.372,0.461-0.809,0.716-1.273
		c1.708-3.109,4.288-7.808,9.32-7.808c5.609,0,9.357,6.175,9.514,6.437c0.405,0.679,0.179,1.558-0.506,1.96
		c-0.684,0.403-1.568,0.178-1.973-0.502c-0.007-0.011-0.809-1.335-2.136-2.623c-1.132-1.1-2.901-2.411-4.9-2.411
		c-3.321,0-5.245,3.502-6.79,6.316c-0.267,0.486-0.519,0.944-0.765,1.358c-2.651,4.457-6.555,6.958-10.447,6.683
		c-3.593-0.251-6.553-2.745-8.336-7.02c-1.804-4.326-5.093-6.919-7.411-7.245c-1.909-0.269-3.763,0.695-5.507,2.864
		c-0.517,0.643-1.177,1.624-1.877,2.661c-2.44,3.622-5.477,8.131-8.891,8.685C173.127,82.34,172.616,82.379,172.123,82.379z"/>
</g>
<g opacity="0.8">
	<path fill="#FFFFFF" d="M118.119,82.379c-4.548,0-7.415-3.323-7.547-3.479c-0.511-0.605-0.433-1.508,0.176-2.015
		c0.607-0.507,1.513-0.43,2.026,0.171c0.109,0.126,2.631,2.989,6.413,2.375c2.18-0.354,5.057-4.625,6.961-7.452
		c0.766-1.137,1.427-2.118,2.02-2.856c3.021-3.758,6.105-4.202,8.163-3.913c4.347,0.611,7.989,4.953,9.669,8.984
		c1.343,3.221,3.43,5.089,5.876,5.26c2.775,0.191,5.68-1.78,7.763-5.284c0.221-0.372,0.461-0.809,0.716-1.273
		c1.708-3.109,4.288-7.808,9.32-7.808c5.609,0,9.357,6.175,9.514,6.437c0.405,0.679,0.179,1.558-0.506,1.96
		c-0.684,0.403-1.568,0.178-1.973-0.502c-0.007-0.011-0.809-1.335-2.136-2.623c-1.132-1.1-2.901-2.411-4.9-2.411
		c-3.321,0-5.245,3.502-6.79,6.316c-0.267,0.486-0.519,0.944-0.765,1.358c-2.651,4.457-6.555,6.958-10.447,6.683
		c-3.593-0.251-6.553-2.745-8.336-7.02c-1.804-4.326-5.093-6.919-7.411-7.245c-1.909-0.269-3.763,0.695-5.507,2.864
		c-0.517,0.643-1.177,1.624-1.877,2.661c-2.44,3.622-5.477,8.131-8.891,8.685C119.123,82.34,118.612,82.379,118.119,82.379z"/>
</g>
<g opacity="0.4">
	<path fill="#FFFFFF" d="M101.597,82.379c-4.548,0-7.415-3.323-7.547-3.479c-0.511-0.605-0.433-1.508,0.176-2.015
		c0.607-0.507,1.513-0.43,2.026,0.171c0.109,0.126,2.631,2.989,6.413,2.375c2.18-0.354,5.057-4.625,6.961-7.452
		c0.766-1.137,1.427-2.118,2.02-2.856c3.021-3.758,6.105-4.202,8.163-3.913c4.347,0.611,7.989,4.953,9.669,8.984
		c1.343,3.221,3.43,5.089,5.876,5.26c2.775,0.191,5.68-1.78,7.763-5.284c0.221-0.372,0.461-0.809,0.716-1.273
		c1.708-3.109,4.288-7.808,9.32-7.808c5.609,0,9.357,6.175,9.514,6.437c0.405,0.679,0.179,1.558-0.506,1.96
		c-0.684,0.403-1.568,0.178-1.973-0.502c-0.007-0.011-0.809-1.335-2.136-2.623c-1.132-1.1-2.901-2.411-4.9-2.411
		c-3.321,0-5.245,3.502-6.79,6.316c-0.267,0.486-0.519,0.944-0.765,1.358c-2.651,4.457-6.555,6.958-10.447,6.683
		c-3.593-0.251-6.553-2.745-8.336-7.02c-1.804-4.326-5.093-6.919-7.411-7.245c-1.909-0.269-3.763,0.695-5.507,2.864
		c-0.517,0.643-1.177,1.624-1.877,2.661c-2.44,3.622-5.477,8.131-8.891,8.685C102.601,82.34,102.09,82.379,101.597,82.379z"/>
</g>
<g>
	<g>
		<g>
			<path fill="#FFFFFF" d="M49.875,45.37c0,1.859-0.226,3.248-0.677,4.168c-0.668,1.047-1.164,1.768-1.489,2.166l0.271,0.271
				c1.75-0.74,3.636-1.11,5.657-1.11c0.217,0,3.672,0.162,10.367,0.487c0.487,0.018,1.435,0.09,2.842,0.216
				c1.046,0.09,1.985,0.135,2.815,0.135c4.836,0,8.616-1.498,11.341-4.493c2.472-2.707,3.645-6.054,3.519-10.042
				c-0.09-3.031-1.516-5.874-4.277-8.526c1.029-1.516,1.543-3.338,1.543-5.468c0-0.415-0.018-0.848-0.055-1.299
				c-0.272-3.411-1.741-6.054-4.406-7.931c-2.521-1.804-5.821-2.707-9.9-2.707c-1.179,0-2.784,0.072-4.814,0.217
				c-2.031,0.145-3.844,0.216-5.439,0.216c-2.684,0-5.785-0.244-9.302-0.731l-0.163,0.298c0.741,0.541,1.278,1.146,1.609,1.813
				c0.371,0.74,0.556,1.976,0.556,3.708v3.219h4.981v-4.816h13.588c4.71,0,7.552,1.994,8.527,5.982
				c0.144,0.596,0.216,1.218,0.216,1.868c0,1.353-0.298,2.625-0.893,3.817c-0.596,1.191-1.363,2.03-2.301,2.517
				c1.389,0.379,2.661,1.272,3.816,2.68c1.317,1.624,1.985,3.429,2.003,5.413c0.018,2.689-0.713,4.972-2.193,6.848
				c-1.48,1.877-3.375,2.815-5.684,2.815h-17.08V28.547H49.92c-0.015,0-0.03,0.004-0.045,0.005V45.37z"/>
		</g>
	</g>
	<path fill="#FFFFFF" d="M69.39,35.429H56.179v5.154H69.39c1.423,0,2.577-1.154,2.577-2.577
		C71.967,36.582,70.813,35.429,69.39,35.429z"/>
</g>
<g>
	<path fill="none" stroke="#FFFFFF" stroke-width="1.5" stroke-miterlimit="10" d="M93.896,21.933
		c2.422,2.217,3.974,5.629,3.974,9.456c0,3.835-1.558,7.254-3.99,9.471"/>
	<path fill="none" stroke="#FFFFFF" stroke-width="1.5" stroke-miterlimit="10" d="M89.566,25.716
		c1.453,1.33,2.384,3.378,2.384,5.674c0,2.301-0.935,4.352-2.394,5.683"/>
	<path fill="none" stroke="#FFFFFF" stroke-width="1.5" stroke-miterlimit="10" d="M91.731,23.824
		c1.938,1.774,3.179,4.504,3.179,7.565c0,3.068-1.247,5.803-3.192,7.577"/>
</g>
<g>
	<path fill="none" stroke="#FFFFFF" stroke-width="1.5" stroke-miterlimit="10" d="M116.989,21.933
		c-2.422,2.217-3.974,5.629-3.974,9.456c0,3.835,1.558,7.254,3.99,9.471"/>
	<path fill="none" stroke="#FFFFFF" stroke-width="1.5" stroke-miterlimit="10" d="M121.318,25.716
		c-1.453,1.33-2.384,3.378-2.384,5.674c0,2.301,0.935,4.352,2.394,5.683"/>
	<path fill="none" stroke="#FFFFFF" stroke-width="1.5" stroke-miterlimit="10" d="M119.153,23.824
		c-1.938,1.774-3.179,4.504-3.179,7.565c0,3.068,1.247,5.803,3.192,7.577"/>
</g>
<path fill="#FFFFFF" d="M65.477,21.686H49.493v0.009c-5.012,0.225-9.02,4.372-9.02,9.439c0,4.74,3.516,8.654,8.073,9.323v-5.291
	c-1.692-0.572-2.92-2.149-2.92-4.032c0-2.368,1.927-4.295,4.294-4.295h15.557c1.423,0,2.577-1.154,2.577-2.577
	C68.054,22.84,66.9,21.686,65.477,21.686z"/>
<g>
	<g>
		<g>
			<path fill="#FFFFFF" d="M128.636,40.299c0,1.181-0.144,2.064-0.43,2.649c-0.424,0.665-0.74,1.124-0.946,1.376l0.172,0.172
				c1.112-0.47,2.311-0.705,3.595-0.705c0.138,0,2.334,0.103,6.588,0.31c0.31,0.011,0.912,0.057,1.806,0.138
				c0.665,0.057,1.261,0.086,1.789,0.086c3.073,0,5.476-0.952,7.208-2.856c1.571-1.72,2.316-3.847,2.236-6.382
				c-0.057-1.927-0.963-3.733-2.718-5.419c0.654-0.963,0.981-2.121,0.981-3.475c0-0.264-0.012-0.539-0.035-0.826
				c-0.173-2.167-1.106-3.847-2.8-5.04c-1.602-1.147-3.699-1.72-6.292-1.72c-0.749,0-1.769,0.046-3.059,0.138
				c-1.291,0.092-2.443,0.138-3.457,0.138c-1.706,0-3.676-0.155-5.911-0.465l-0.104,0.189c0.471,0.344,0.812,0.728,1.023,1.153
				c0.236,0.47,0.353,1.256,0.353,2.357v2.046h3.165v-3.061h8.635c2.993,0,4.799,1.267,5.419,3.802
				c0.092,0.378,0.138,0.774,0.138,1.187c0,0.86-0.189,1.669-0.568,2.426c-0.378,0.757-0.866,1.29-1.462,1.6
				c0.883,0.241,1.691,0.808,2.425,1.703c0.837,1.032,1.261,2.179,1.273,3.44c0.011,1.709-0.453,3.16-1.394,4.352
				c-0.94,1.193-2.145,1.789-3.612,1.789h-10.855V29.608h-3.136c-0.01,0-0.019,0.003-0.029,0.003V40.299z"/>
		</g>
	</g>
	<path fill="#FFFFFF" d="M141.038,33.981h-8.396v3.275h8.396c0.904,0,1.638-0.733,1.638-1.638
		C142.676,34.714,141.942,33.981,141.038,33.981z"/>
</g>
<path fill="#FFFFFF" d="M138.551,25.247h-10.158v0.006c-3.185,0.143-5.733,2.779-5.733,5.999c0,3.013,2.234,5.5,5.131,5.925v-3.362
	c-1.075-0.364-1.856-1.366-1.856-2.563c0-1.505,1.224-2.729,2.729-2.729h9.887c0.904,0,1.638-0.733,1.638-1.638
	S139.456,25.247,138.551,25.247z"/>
</svg>
