<svg xmlns="http://www.w3.org/2000/svg" viewBox="0 0 227.05 48.98"><defs><style>.a{fill:#363581;}</style></defs><title>logo</title><path class="a" d="M481.62,383.83h7.52c3.29,0,3.95,2.16,4.14,2.82s.28,1,.85,1H500c.75,0,.75-.66.75-1V375.32c0-.94-1-.85-1-.85l-31.59,0c-1,0-1.48.19-1.48.68v4.09c0,1.69.12,1.62.82,2s1.22,1.46,1.22,3.24v26.93c0,1.6,0,3.34-.66,4.37-.44.69-1.6.66-1.6,1.64v4.42c0,.92.33,1.06.89,1.06h14.48c1,0,1-.35,1-.78V418c0-1.13-.29-1.07-.77-1.37a3.55,3.55,0,0,1-1.39-2.61V403.48c0-.66.23-1.22.8-1.22h3.81a3,3,0,0,1,3.2,2.21c.09.47,0,1,1,1h5.73c.66,0,1-.38,1-1.13V391.63c0-.94-.28-1-1-1h-5.69c-1,0-.75,1.07-.94,1.5a2.52,2.52,0,0,1-2.3,1.32h-4.7a.94.94,0,0,1-.94-.94v-7.62A1,1,0,0,1,481.62,383.83Z" transform="translate(-466.48 -374.43)"/><path class="a" d="M634.3,374.43H619.16c-1,0-1.48.19-1.48.68v4.09c0,1.62.12,1.69.82,1.9s1.83.26,1.83,2v28.27c0,1.6.33,4.19-.85,4.87-1,.56-2-.07-2,1.41v4.58c0,.56.33.64.89.64h15.37c7.85,0,22-2.47,22-23.34C655.73,380.12,639.31,374.43,634.3,374.43Zm-.42,38.83c-1.41,0-1.69-.14-1.69-1.69v-26c0-1,2-.75,2.4-.47s8.88,1.88,8.88,14.95S635.29,413.26,633.87,413.26Z" transform="translate(-466.48 -374.43)"/><path class="a" d="M537.84,374.48H523.17c-.35,0-.49.28-.49.78v4.94a1.09,1.09,0,0,0,.71,1c.49.21,1.41.56,1.41,2.4v26.94c0,1.76-.28,2-1.55,2-.56,0-10.29,2.33-10.29-15.44,0-10.37,4.72-14.81,5.29-15.23a14.6,14.6,0,0,1,1.48-.92.91.91,0,0,0,.42-.92v-4.87c0-.49-.07-.71-.85-.71H503.78c-.71,0-.71.14-.71.56v5.15c0,.35.35.56.78.71s1.13.71.85,1.34a45.94,45.94,0,0,0-4.23,18.05c0,9.24,4.31,18.88,14.95,22.07a24,24,0,0,0,5.92.49c2.89,0,15.65.07,16.43.07s.78-.5.78-.92v-4.58c0-.57-.35-.57-.85-1.06s-1.27-1.2-1.27-4.65v-28a3,3,0,0,1,1.41-2.68c.56-.14.78-.42.78-1.13v-4.72C538.62,374.69,538.33,374.48,537.84,374.48Z" transform="translate(-466.48 -374.43)"/><path class="a" d="M614.37,374.48H599.7c-.35,0-.5.28-.5.78v4.94a1.1,1.1,0,0,0,.71,1c.49.21,1.41.56,1.41,2.4v26.94c0,1.76-.28,2-1.55,2-.57,0-10.3,2.33-10.3-15.44,0-10.37,4.73-14.81,5.29-15.23a14.6,14.6,0,0,1,1.48-.92.91.91,0,0,0,.42-.92v-4.87c0-.49-.07-.71-.85-.71H580.31c-.71,0-.71.14-.71.56v5.15c0,.35.35.56.78.71s1.13.71.85,1.34A46,46,0,0,0,577,400.28c0,9.24,4.31,18.88,15,22.07a24,24,0,0,0,5.92.49c2.89,0,15.65.07,16.43.07s.78-.5.78-.92v-4.58c0-.57-.35-.57-.85-1.06s-1.27-1.2-1.27-4.65v-28a3,3,0,0,1,1.41-2.68c.56-.14.78-.42.78-1.13v-4.72C615.14,374.69,614.86,374.48,614.37,374.48Z" transform="translate(-466.48 -374.43)"/><path class="a" d="M578,416.64c-1.2-.35-2.47-2.47-3.38-4.44s-8.25-18.47-8.74-19.53a1.74,1.74,0,0,1,.21-2.12c.42-.62,7-9.64,9.54-9.64,2,0,1.53-.45,1.53-.8v-4.79c0-.7-.28-.78-.92-.78H561.39c-.85,0-1.27.07-1.27.56v5.08c0,.49.35.71.7,1s-.14,1.27-.63,2.12a49,49,0,0,1-4.3,5.5c-1.2,1.06-1-.63-1-1.2V383.5c0-.71.07-1.89.85-2.26s1.2-.35,1.2-.85v-5.08c0-.63,0-.82-.87-.82H542c-.56,0-.87.19-.87.75v4.65c0,.73.21.82.56.92.76.2,1.48.71,1.48,2.33v30c0,2.12,0,2.33-.56,2.84-.46.39-1.48.28-1.48,1v5.19c0,.78,0,.71.64.71H556c.63,0,1-.07,1-.78v-4.65c0-.92-.74-.6-1.2-1.06a3.31,3.31,0,0,1-.85-1.69V403.81c0-1.16,1.06-2.26,1.9-1.27s5.36,11.56,5.64,12.55.35,1.2-.14,1.48-.73,0-.73.59v5c0,.38,0,.71.87.71h15.75c.61,0,.75-.09.75-.56v-4.72C579,416.64,578.56,416.82,578,416.64Z" transform="translate(-466.48 -374.43)"/><path class="a" d="M692.54,417.07c-.56-.28-.42-1-1.41-2.54s-12.19-36.5-12.69-38.08c-.33-1-.42-1.55-1.13-1.55h-8.79c-1.36,0-1.32.33-1.55,1-.34,1-10.06,34.22-10.76,36.38-.65,2-1,3.76-2.16,4.37s-1.55.14-1.55,1.83v3.72c0,.75.28,1,1.08,1h13.59c.85,0,1,0,1-.7v-4.23c0-1.51-.37-1.08-.8-1.22a2.44,2.44,0,0,1-1.46-1.31c-.57-1.07,0-3.24.56-4.79.38-1.14,1.06-1.06,2-1.06h7.59c1.41,0,1.55,1,1.55,1s.89,2.73,1.18,4,.14,1.74-.8,2.16c-.69.31-1,0-1,.75v4.47c0,1,.42,1.13,1.27,1.13h14c1.13,0,1.27-.7,1.27-.7v-3.53C693.53,417.49,693.1,417.35,692.54,417.07Zm-18.9-15.47H670a.78.78,0,0,1-.85-1c.14-.56,1.41-6.39,1.83-7.52s.7-1.36,1.18-.09c.2.54,1.92,6.28,2.21,7.52C674.49,401.08,674.35,401.6,673.64,401.6Z" transform="translate(-466.48 -374.43)"/></svg>