<svg xmlns="http://www.w3.org/2000/svg" width="11.688" height="69.719" viewBox="0 0 11.688 69.719">
  <metadata><?xpacket begin="﻿" id="W5M0MpCehiHzreSzNTczkc9d"?>
<x:xmpmeta xmlns:x="adobe:ns:meta/" x:xmptk="Adobe XMP Core 5.6-c138 79.159824, 2016/09/14-01:09:01        ">
   <rdf:RDF xmlns:rdf="http://www.w3.org/1999/02/22-rdf-syntax-ns#">
      <rdf:Description rdf:about=""/>
   </rdf:RDF>
</x:xmpmeta>
                                                                                                    
                                                                                                    
                                                                                                    
                                                                                                    
                                                                                                    
                                                                                                    
                                                                                                    
                                                                                                    
                                                                                                    
                                                                                                    
                                                                                                    
                                                                                                    
                                                                                                    
                                                                                                    
                                                                                                    
                                                                                                    
                                                                                                    
                                                                                                    
                                                                                                    
                                                                                                    
                           
<?xpacket end="w"?></metadata>
<defs>
    <style>
      .cls-1 {
        fill-rule: evenodd;
      }
    </style>
  </defs>
  <path id="SCROLL" class="cls-1" d="M46.942,751.387a2.409,2.409,0,0,1,.34,1.378q0,2.376-1.883,2.376v2.484a3.242,3.242,0,0,0,1.938-.6,3.964,3.964,0,0,0,1.317-1.737,6.433,6.433,0,0,0,.48-2.525,5.38,5.38,0,0,0-.84-3.177,2.69,2.69,0,0,0-2.316-1.18,2.894,2.894,0,0,0-2.219.966,7.652,7.652,0,0,0-1.492,3.077,6.852,6.852,0,0,1-.7,1.737,1.088,1.088,0,0,1-.93.59,1.125,1.125,0,0,1-.957-0.5,2.379,2.379,0,0,1-.363-1.411,2.219,2.219,0,0,1,.434-1.461,1.5,1.5,0,0,1,1.215-.519v-2.476a3.138,3.138,0,0,0-1.828.557,3.61,3.61,0,0,0-1.246,1.564,5.662,5.662,0,0,0-.441,2.294,6.228,6.228,0,0,0,.406,2.306,3.565,3.565,0,0,0,1.129,1.576,2.647,2.647,0,0,0,1.645.549,3.155,3.155,0,0,0,2.82-2.047,13.018,13.018,0,0,0,.777-2.038,6.67,6.67,0,0,1,.75-1.782,1.179,1.179,0,0,1,1.02-.495A1.087,1.087,0,0,1,46.942,751.387Zm-1.754-13.3a2.181,2.181,0,0,1,1.535.648,2.537,2.537,0,0,1,.5,1.712,2.1,2.1,0,0,1-.852,1.861,4.82,4.82,0,0,1-2.7.59H42.813a4.508,4.508,0,0,1-2.605-.631,2.148,2.148,0,0,1-.84-1.853,2.486,2.486,0,0,1,.5-1.695,2.3,2.3,0,0,1,1.6-.648V735.6a4.239,4.239,0,0,0-2.961,1.469,5.71,5.71,0,0,0-.387,5.987,4.413,4.413,0,0,0,1.918,1.745,6.509,6.509,0,0,0,2.891.61h0.7a5.826,5.826,0,0,0,4.043-1.324,4.64,4.64,0,0,0,1.473-3.635,5.211,5.211,0,0,0-1.055-3.4,3.946,3.946,0,0,0-2.891-1.432v2.475ZM48.977,725.6v-2.657H48.868l-4.648,2.6a3.6,3.6,0,0,0-1.238-1.614,3.364,3.364,0,0,0-1.941-.532,3.03,3.03,0,0,0-2.539,1.155,5.25,5.25,0,0,0-.9,3.284V732.3H48.977v-2.475H44.813v-1.972ZM39.5,729.821v-1.989a2.078,2.078,0,0,1,.461-1.481,1.67,1.67,0,0,1,1.266-.482,1.562,1.562,0,0,1,1.238.511,2.119,2.119,0,0,1,.449,1.444v2H39.5Zm3.539-19.868a6.509,6.509,0,0,0-2.949.64A4.6,4.6,0,0,0,38.13,712.4a5.554,5.554,0,0,0,0,5.339,4.6,4.6,0,0,0,1.961,1.807,6.527,6.527,0,0,0,2.957.639H43.61a6.367,6.367,0,0,0,2.9-.652,4.606,4.606,0,0,0,1.941-1.815,5.562,5.562,0,0,0-.008-5.343,4.564,4.564,0,0,0-1.953-1.795,6.556,6.556,0,0,0-2.945-.627H43.04Zm0.547,2.509a4.619,4.619,0,0,1,2.7.676A2.448,2.448,0,0,1,46.251,717a4.645,4.645,0,0,1-2.7.677H42.993a4.541,4.541,0,0,1-2.691-.685,2.472,2.472,0,0,1,.012-3.854,4.589,4.589,0,0,1,2.719-.676h0.555ZM37.6,703.989v2.476H48.977v-7.732H47.095v5.256H37.6Zm0-10.84v2.475H48.977v-7.732H47.095v5.257H37.6Z" transform="translate(-37.438 -687.906)"/>
</svg>
