<?xml version="1.0" encoding="utf-8"?>
<!-- Generator: Adobe Illustrator 17.1.0, SVG Export Plug-In . SVG Version: 6.00 Build 0)  -->
<!DOCTYPE svg PUBLIC "-//W3C//DTD SVG 1.1//EN" "http://www.w3.org/Graphics/SVG/1.1/DTD/svg11.dtd">
<svg version="1.1" id="Capa_1" xmlns:ev="http://www.w3.org/2001/xml-events"
	 xmlns="http://www.w3.org/2000/svg" xmlns:xlink="http://www.w3.org/1999/xlink" x="0px" y="0px" viewBox="0 0 26 26"
	 enable-background="new 0 0 26 26" xml:space="preserve">
<path fill="#FFFFFF" d="M16.47,4.19C17.27,3.46,18.33,3,19.5,3C21.99,3,24,5.01,24,7.5c0,0.64-0.14,1.25-0.38,1.81
	C22.12,6.69,19.53,4.77,16.47,4.19z M22.98,14.02c-0.64-0.41-1.35-0.72-2.12-0.88C20.23,10.21,17.62,8,14.5,8
	C10.91,8,8,10.91,8,14.5c0,3.12,2.21,5.73,5.15,6.35c0.16,0.77,0.47,1.48,0.88,2.12C9.55,22.73,6,19.03,6,14.5C6,9.81,9.81,6,14.5,6
	C19.03,6,22.73,9.55,22.98,14.02z M4.5,19C2.02,19,0,16.99,0,14.5S2.02,10,4.5,10c0.17,0,0.33,0.03,0.5,0.05
	c-0.64,1.35-1,2.86-1,4.45s0.36,3.1,1,4.45C4.83,18.97,4.67,19,4.5,19z M19.5,15c2.49,0,4.5,2.01,4.5,4.5S21.99,24,19.5,24
	S15,21.99,15,19.5S17.01,15,19.5,15z"/>
</svg>
