<?xml version="1.0" encoding="utf-8"?>
<!-- Generator: Adobe Illustrator 17.1.0, SVG Export Plug-In . SVG Version: 6.00 Build 0)  -->
<!DOCTYPE svg PUBLIC "-//W3C//DTD SVG 1.1//EN" "http://www.w3.org/Graphics/SVG/1.1/DTD/svg11.dtd">
<svg version="1.1" id="Capa_1" xmlns:ev="http://www.w3.org/2001/xml-events"
	 xmlns="http://www.w3.org/2000/svg" xmlns:xlink="http://www.w3.org/1999/xlink" x="0px" y="0px" viewBox="0 -1 26 26"
	 enable-background="new 0 -1 26 26" xml:space="preserve">
<path fill="#FFFFFF" d="M19.9,1.23h-1.86v0v0l-11.13,0l0,0H5.06c-0.61,0-1.11-0.5-1.11-1.11S4.45-1,5.06-1L19.9-1
	c0.61,0,1.11,0.5,1.11,1.11C21.02,0.73,20.52,1.23,19.9,1.23z M18.05,16.19c0,2.08,0,3.88,0,5.08l-11.13,0c0-1.2,0-3.02,0-5.11
	c0-1.4,2.97-2.92,2.97-4.43c0-1.57-2.97-3.13-2.97-4.55c0-1.82,0-3.38,0-4.46l11.13,0c0,1.07,0,2.62,0,4.42
	c0,1.51-2.97,3.17-2.97,4.84C15.08,13.41,18.05,14.85,18.05,16.19z M16.56,7.16c0.42-0.79,0.74-2.24,0.74-2.97
	c-2.43-0.63-6.52,0.03-9.65,0.74c0,0.76,0.36,1.38,0.74,2.23c0.38,0.85,1.34,2.97,4.05,2.97C15.15,10.13,16.15,7.96,16.56,7.16z
	 M13.19,14.59c-2.71,0-4.41,2.77-4.79,3.59c-0.38,0.81,0,1.62,0,1.62l8.16-0.03c0,0,0.42-1.57,0-2.34
	C16.15,16.67,15.9,14.58,13.19,14.59z M5.07,22.75l1.86,0l0,0l0,0l11.13,0l-5.56,0l7.42,0c0.61,0,1.11,0.5,1.11,1.11
	c0,0.61-0.5,1.11-1.11,1.11l-14.84,0c-0.61,0-1.11-0.5-1.11-1.11C3.95,23.25,4.45,22.75,5.07,22.75z"/>
</svg>
