<?xml version="1.0" encoding="utf-8"?>
<!-- Generator: Adobe Illustrator 17.0.0, SVG Export Plug-In . SVG Version: 6.00 Build 0)  -->
<!DOCTYPE svg PUBLIC "-//W3C//DTD SVG 1.1//EN" "http://www.w3.org/Graphics/SVG/1.1/DTD/svg11.dtd">
<svg version="1.1" id="圖層_1" xmlns="http://www.w3.org/2000/svg" xmlns:xlink="http://www.w3.org/1999/xlink" x="0px" y="0px"
	 width="100px" height="100px" viewBox="0 0 100 100" enable-background="new 0 0 100 100" xml:space="preserve">
<g>
	
		<radialGradient id="SVGID_1_" cx="-3941.856" cy="-409.7776" r="390.1815" gradientTransform="matrix(0.217 0 0 0.217 908.0718 139.2095)" gradientUnits="userSpaceOnUse">
		<stop  offset="0" style="stop-color:#EFEA45"/>
		<stop  offset="0.1071" style="stop-color:#EFE143"/>
		<stop  offset="0.2819" style="stop-color:#EEC93D"/>
		<stop  offset="0.5024" style="stop-color:#ECA133"/>
		<stop  offset="0.7579" style="stop-color:#EA6A25"/>
		<stop  offset="0.85" style="stop-color:#E95520"/>
	</radialGradient>
	<path fill="url(#SVGID_1_)" d="M50.25,27.665h0.009c0.364,0,0.725-0.09,1.08-0.124c1.257-0.291,2.33-1.168,2.844-2.398
		c0.647-1.551,0.269-3.339-0.939-4.5c-3.204-2.418-6.342-4.322-9.189-5.777c-8.055-4.117-15.165-5.583-18.234-6.06
		C8.559,18.928-0.821,38.933,2.753,58.874c1.776-3.246,5.236-8.716,10.876-14.346c5.107-5.1,10.944-9.252,17.349-12.342
		c1.005-0.485,2.024-0.929,3.057-1.361c3.6-1.507,10.398-3.16,16.218-3.16H50.25z"/>
	
		<radialGradient id="SVGID_2_" cx="159.4591" cy="-4890.9019" r="390.1815" gradientTransform="matrix(0.0671 -0.2064 0.2064 0.0671 1049.9489 408.7908)" gradientUnits="userSpaceOnUse">
		<stop  offset="0" style="stop-color:#EFEA45"/>
		<stop  offset="0.1071" style="stop-color:#EFE143"/>
		<stop  offset="0.2819" style="stop-color:#EEC93D"/>
		<stop  offset="0.5024" style="stop-color:#ECA133"/>
		<stop  offset="0.7579" style="stop-color:#EA6A25"/>
		<stop  offset="0.85" style="stop-color:#E95520"/>
	</radialGradient>
	<path fill="url(#SVGID_2_)" d="M28.848,42.99l0.003-0.009c0.113-0.347,0.139-0.717,0.216-1.066
		c0.112-1.285-0.391-2.577-1.402-3.446c-1.275-1.095-3.092-1.288-4.57-0.497c-3.29,2.299-6.071,4.696-8.334,6.954
		C8.356,51.314,4.765,57.624,3.363,60.395c4.292,19.546,20.42,34.649,40.489,37.412c-2.538-2.692-6.671-7.673-10.283-14.777
		c-3.272-6.433-5.417-13.267-6.377-20.314c-0.15-1.106-0.258-2.212-0.35-3.328c-0.321-3.89,0.208-10.865,2.006-16.401L28.848,42.99z
		"/>
	
		<radialGradient id="SVGID_3_" cx="5688.6377" cy="-2375.0632" r="390.1815" gradientTransform="matrix(-0.1756 -0.1276 0.1276 -0.1756 1350.1783 357.1628)" gradientUnits="userSpaceOnUse">
		<stop  offset="0" style="stop-color:#EFEA45"/>
		<stop  offset="0.1071" style="stop-color:#EFE143"/>
		<stop  offset="0.2819" style="stop-color:#EEC93D"/>
		<stop  offset="0.5024" style="stop-color:#ECA133"/>
		<stop  offset="0.7579" style="stop-color:#EA6A25"/>
		<stop  offset="0.85" style="stop-color:#E95520"/>
	</radialGradient>
	<path fill="url(#SVGID_3_)" d="M36.81,68.081l-0.008-0.006c-0.295-0.214-0.639-0.354-0.947-0.535
		c-1.188-0.504-2.572-0.425-3.71,0.269c-1.436,0.875-2.18,2.543-1.885,4.193c1.17,3.84,2.591,7.225,4.038,10.075
		c4.097,8.065,8.988,13.43,11.19,15.62c19.916,1.958,39.264-8.713,48.093-26.946c-3.344,1.582-9.359,3.974-17.232,5.213
		c-7.129,1.124-14.292,1.052-21.29-0.213c-1.098-0.199-2.184-0.439-3.274-0.696c-3.798-0.897-10.269-3.555-14.978-6.976
		L36.81,68.081z"/>
	
		<radialGradient id="SVGID_4_" cx="5004.543" cy="3660.9353" r="390.1815" gradientTransform="matrix(-0.1756 0.1276 -0.1276 -0.1756 1393.8533 55.6737)" gradientUnits="userSpaceOnUse">
		<stop  offset="0" style="stop-color:#EFEA45"/>
		<stop  offset="0.1071" style="stop-color:#EFE143"/>
		<stop  offset="0.2819" style="stop-color:#EEC93D"/>
		<stop  offset="0.5024" style="stop-color:#ECA133"/>
		<stop  offset="0.7579" style="stop-color:#EA6A25"/>
		<stop  offset="0.85" style="stop-color:#E95520"/>
	</radialGradient>
	<path fill="url(#SVGID_4_)" d="M63.133,68.262l-0.008,0.006c-0.295,0.214-0.534,0.498-0.801,0.735
		c-0.846,0.974-1.199,2.315-0.891,3.612c0.388,1.636,1.745,2.859,3.405,3.089c4.013,0.074,7.672-0.231,10.83-0.727
		c8.936-1.404,15.55-4.398,18.313-5.815c8.016-18.336,3.846-40.035-10.766-54.066c0.471,3.669,0.887,10.129-0.367,17.999
		c-1.134,7.127-3.416,13.917-6.781,20.182c-0.528,0.983-1.092,1.941-1.674,2.898c-2.027,3.335-6.555,8.668-11.263,12.089
		L63.133,68.262z"/>
	
		<radialGradient id="SVGID_5_" cx="-947.4296" cy="4875.5483" r="390.1815" gradientTransform="matrix(0.0671 0.2064 -0.2064 0.0671 1120.6163 -79.0288)" gradientUnits="userSpaceOnUse">
		<stop  offset="0" style="stop-color:#EFEA45"/>
		<stop  offset="0.1071" style="stop-color:#EFE143"/>
		<stop  offset="0.2819" style="stop-color:#EEC93D"/>
		<stop  offset="0.5024" style="stop-color:#ECA133"/>
		<stop  offset="0.7579" style="stop-color:#EA6A25"/>
		<stop  offset="0.85" style="stop-color:#E95520"/>
	</radialGradient>
	<path fill="url(#SVGID_5_)" d="M71.44,43.283l0.003,0.009c0.113,0.347,0.309,0.662,0.452,0.989c0.665,1.106,1.831,1.855,3.16,1.963
		c1.675,0.136,3.259-0.776,3.99-2.284c1.31-3.794,2.151-7.368,2.655-10.524c1.426-8.933,0.623-16.148,0.129-19.214
		C66.866,0.933,44.941-1.807,27.08,7.754c3.636,0.686,9.907,2.287,17.005,5.911c6.428,3.281,12.181,7.549,17.099,12.686
		c0.772,0.806,1.509,1.638,2.239,2.487c2.546,2.958,6.218,8.912,8.017,14.448L71.44,43.283z"/>
</g>
</svg>
