<?xml version="1.0" encoding="iso-8859-1"?>
<!-- Generator: Adobe Illustrator 17.0.0, SVG Export Plug-In . SVG Version: 6.00 Build 0)  -->
<!DOCTYPE svg PUBLIC "-//W3C//DTD SVG 1.1//EN" "http://www.w3.org/Graphics/SVG/1.1/DTD/svg11.dtd">
<svg version="1.1" id="&#x5716;&#x5C64;_1" xmlns="http://www.w3.org/2000/svg" xmlns:xlink="http://www.w3.org/1999/xlink" x="0px"
	 y="0px" width="110px" height="90px" viewBox="0 0 110 90" style="enable-background:new 0 0 110 90;" xml:space="preserve">
<path style="opacity:0.75;fill:#FFFFFF;" d="M78.909,5.898c-10.684,0-20.647,3.653-23.898,11.611
	C51.477,9.551,41.798,5.898,31.114,5.898c-14.405,0-26.217,6.78-26.217,20.615v0.261v2.347v48.892v2.349h1.622h2.86h1.296
	c3.356-6.872,11.544-10.96,20.439-10.96c10.497,0,19.279,7.184,21.298,16.701h5.144c2.02-9.518,10.828-16.701,21.326-16.701
	c8.895,0,15.957,3.044,20.466,10.96h1.296h2.86h1.599v-4.436V27.818v-1.044v-0.261C105.103,12.677,93.314,5.898,78.909,5.898z
	 M52.912,76.428c-4.697-6.751-12.716-11.202-21.79-11.202c-9.073,0-16.832,2.624-21.79,9.375l-0.261,0.14V26.252l0,0v-0.261
	c0.783-10.914,10.461-15.918,21.997-15.918c11.785,0,21.436,4.882,21.754,16.129c-0.004,0.19,0.004,0.381,0.004,0.572l0.086,3.419
	V76.428z M100.928,27.818v46.783c-4.697-6.751-12.978-9.375-22.051-9.375s-17.093,4.451-21.79,11.202V27.035v-0.261
	c0-11.511,9.827-16.701,21.812-16.701c11.535,0,21.245,2.916,22.028,13.831v0.261L100.928,27.818L100.928,27.818z"/>
</svg>
