<?xml version="1.0" encoding="iso-8859-1"?>
<!-- Generator: Adobe Illustrator 17.0.0, SVG Export Plug-In . SVG Version: 6.00 Build 0)  -->
<!DOCTYPE svg PUBLIC "-//W3C//DTD SVG 1.1//EN" "http://www.w3.org/Graphics/SVG/1.1/DTD/svg11.dtd">

<svg class="logo-outline" version="1.1" xmlns="http://www.w3.org/2000/svg" viewBox="0 0 90 110" >

<style>
.logo-outline path
{
  fill: none;
  stroke: #FF5C26;
  stroke-width: 0.5;
  stroke-linecap: round;
  stroke-linejoin: round;
  stroke-miterlimit: 10;
  /* stroke-dasharray: 30; */
  -webkit-animation: draw 4s linear infinite;
  -moz-animation: draw 4s linear infinite;
  -o-animation: draw 4s linear infinite;
  animation: draw 4s linear infinite;
}
@-webkit-keyframes draw{ to {stroke-dashoffset: 0;}}
@-moz-keyframes draw{ to {stroke-dashoffset: 0;}}
@-o-keyframes draw{ to {stroke-dashoffset: 0;}}
@keyframes draw{ to {stroke-dashoffset: 0;};
</style>
<path stroke-dasharray="250" stroke-dashoffset="250" d="M1.626,92.984h4.938
	c1.348,0,2.296,0.123,2.843,0.369c0.548,0.246,1.01,0.681,1.386,1.302c0.377,0.623,0.565,1.327,0.565,2.113
	c0,0.725-0.162,1.379-0.484,1.963c-0.323,0.585-0.741,1.018-1.257,1.297c0.731,0.261,1.303,0.705,1.716,1.334
	s0.619,1.395,0.619,2.297c0,1.094-0.263,2.018-0.789,2.773c-0.526,0.755-1.148,1.222-1.866,1.399
	c-0.499,0.123-1.658,0.185-3.476,0.185H1.626V92.984z M4.107,95.486v3.476h1.641c0.984,0,1.593-0.017,1.825-0.051
	c0.424-0.068,0.755-0.248,0.995-0.538c0.238-0.291,0.358-0.686,0.358-1.185c0-0.444-0.098-0.805-0.292-1.082
	c-0.195-0.276-0.431-0.449-0.708-0.518c-0.276-0.068-1.071-0.103-2.384-0.103H4.107z M4.107,101.464v4.01h2.312
	c1.014,0,1.664-0.053,1.952-0.158c0.288-0.106,0.529-0.313,0.725-0.624c0.194-0.311,0.293-0.704,0.293-1.182
	c0-0.491-0.104-0.895-0.313-1.212s-0.487-0.535-0.833-0.654s-1.053-0.18-2.121-0.18H4.107z"/>
<path stroke-dasharray="250" stroke-dashoffset="250" d="M14.023,108.017V92.984h3.721l2.241,10.265
	l2.224-10.265h3.739v15.032h-2.317V96.173l-2.457,11.844h-2.395L16.34,96.173v11.844H14.023z"/>
<path stroke-dasharray="250" stroke-dashoffset="250" d="M36.295,102.489l2.41,0.934
	c-0.377,1.682-1.002,2.91-1.877,3.687c-0.875,0.775-1.952,1.163-3.23,1.163c-1.606,0-2.908-0.618-3.906-1.855
	c-1.148-1.429-1.723-3.356-1.723-5.783c0-2.563,0.578-4.569,1.734-6.02c1.006-1.257,2.357-1.887,4.055-1.887
	c1.382,0,2.538,0.473,3.469,1.416c0.664,0.67,1.149,1.664,1.457,2.983l-2.461,0.718c-0.157-0.813-0.471-1.438-0.939-1.871
	c-0.469-0.435-1.022-0.651-1.659-0.651c-0.911,0-1.654,0.396-2.229,1.189s-0.862,2.103-0.862,3.927c0,1.895,0.28,3.24,0.841,4.041
	c0.561,0.799,1.288,1.199,2.184,1.199c0.656,0,1.224-0.255,1.703-0.764C35.737,104.405,36.083,103.597,36.295,102.489z"/>
<path stroke-dasharray="250" stroke-dashoffset="250" d="M48.774,108.017l-4.41-15.032h2.697
	l3.122,11.126l3.02-11.126h2.646l-4.42,15.032H48.774z"/>
<path stroke-dasharray="250" stroke-dashoffset="250" d="M55.275,102.418
	c0-1.068,0.211-2.041,0.635-2.918c0.424-0.876,0.978-1.533,1.662-1.972c0.683-0.438,1.452-0.658,2.307-0.658
	c1.436,0,2.563,0.563,3.384,1.69s1.23,2.443,1.23,3.949c0,1.123-0.214,2.137-0.641,3.041c-0.428,0.904-0.988,1.584-1.682,2.039
	c-0.694,0.455-1.455,0.683-2.282,0.683c-1.326,0-2.427-0.506-3.301-1.52C55.712,105.739,55.275,104.294,55.275,102.418z
	 M57.695,102.571c0,1.104,0.215,1.939,0.646,2.505s0.953,0.849,1.563,0.849c0.597,0,1.106-0.284,1.531-0.854
	s0.638-1.409,0.638-2.52c0-1.084-0.216-1.91-0.647-2.479c-0.432-0.568-0.949-0.854-1.552-0.854c-0.597,0-1.108,0.285-1.537,0.854
	C57.909,100.642,57.695,101.475,57.695,102.571z"/>
<path stroke-dasharray="250" stroke-dashoffset="250" d="M66.348,95.65v-2.666h2.369v2.666H66.348z
	 M66.348,108.017v-10.89h2.369v10.89H66.348z"/>
<path stroke-dasharray="250" stroke-dashoffset="250" d="M78.93,100.337l-2.327,0.512
	c-0.172-1.141-0.712-1.712-1.619-1.712c-0.585,0-1.056,0.247-1.413,0.74c-0.357,0.494-0.536,1.327-0.536,2.5
	c0,1.296,0.178,2.211,0.534,2.746c0.357,0.534,0.833,0.802,1.43,0.802c0.445,0,0.813-0.152,1.101-0.456
	c0.288-0.305,0.493-0.843,0.616-1.615l2.328,0.481c-0.479,2.625-1.855,3.938-4.133,3.938c-1.455,0-2.536-0.554-3.24-1.663
	s-1.056-2.445-1.056-4.007c0-1.869,0.398-3.292,1.196-4.268c0.797-0.977,1.843-1.465,3.136-1.465c1.048,0,1.901,0.277,2.562,0.831
	C78.169,98.255,78.643,99.134,78.93,100.337z"/>
<path stroke-dasharray="250" stroke-dashoffset="250" d="M85.903,104.562l2.348,0.481
	c-0.315,1.094-0.805,1.905-1.468,2.436c-0.664,0.529-1.472,0.794-2.423,0.794c-1.321,0-2.342-0.441-3.06-1.324
	c-0.85-1.027-1.273-2.466-1.273-4.314c0-1.822,0.427-3.28,1.282-4.376c0.724-0.925,1.66-1.388,2.809-1.388
	c1.278,0,2.28,0.473,3.005,1.418c0.834,1.082,1.251,2.677,1.251,4.786l-0.01,0.328h-5.917c0.014,0.864,0.207,1.534,0.581,2.007
	c0.373,0.474,0.824,0.711,1.353,0.711C85.142,106.12,85.649,105.601,85.903,104.562z M86.026,101.639
	c-0.021-0.851-0.202-1.491-0.544-1.92s-0.749-0.644-1.22-0.644c-0.5,0-0.92,0.224-1.262,0.669c-0.349,0.453-0.52,1.085-0.513,1.895
	H86.026z"/>

<path stroke-dasharray="1100" stroke-dashoffset="1100" d="M22.073,63.763c0,3.375-0.41,5.898-1.229,7.569
	c-1.213,1.901-2.114,3.211-2.703,3.932l0.492,0.491c3.178-1.344,6.602-2.015,10.271-2.015c0.394,0,6.668,0.295,18.824,0.885
	c0.885,0.032,2.605,0.164,5.161,0.393c1.9,0.164,3.604,0.246,5.111,0.246c8.781,0,15.645-2.719,20.593-8.159
	c4.489-4.915,6.618-10.993,6.389-18.234c-0.164-5.504-2.752-10.665-7.765-15.482c1.868-2.753,2.802-6.061,2.802-9.928
	c0-0.753-0.033-1.539-0.099-2.359c-0.494-6.193-3.161-10.993-8-14.401c-4.578-3.276-10.569-4.915-17.976-4.915
	c-2.14,0-5.054,0.132-8.741,0.393c-3.687,0.262-6.98,0.393-9.877,0.393c-4.874,0-10.503-0.442-16.89-1.327l-0.296,0.541
	c1.346,0.983,2.32,2.081,2.922,3.293c0.673,1.344,1.01,3.588,1.01,6.734v5.845h9.043V8.912h24.672
	c8.552,0,13.713,3.621,15.482,10.862c0.262,1.081,0.393,2.211,0.393,3.391c0,2.457-0.541,4.767-1.622,6.93
	c-1.081,2.162-2.474,3.686-4.178,4.571c2.522,0.688,4.832,2.31,6.93,4.866c2.391,2.949,3.604,6.226,3.637,9.829
	c0.032,4.883-1.295,9.027-3.982,12.435c-2.687,3.408-6.127,5.111-10.321,5.111H31.117V33.217h-8.961
	c-0.028,0-0.054,0.008-0.082,0.008V63.763z"/>

<path stroke-dasharray="250" stroke-dashoffset="250" d="M57.507,45.712h-22.99v9.358h22.99
	c2.584,0,4.679-2.095,4.679-4.679C62.186,47.807,60.092,45.712,57.507,45.712z"/>
<path stroke-dasharray="350" stroke-dashoffset="350" d="M50.403,20.759H21.379v0.017C12.278,21.183,5,28.715,5,37.914
	c0,8.964,6.918,16.319,15.692,17.067v-9.465c-3.594-0.692-6.335-3.809-6.335-7.602c0-4.3,3.498-7.798,7.798-7.798h28.247
	c2.584,0,4.679-2.095,4.679-4.679C55.082,22.853,52.987,20.759,50.403,20.759z"/>
</svg>
