<?xml version="1.0" encoding="utf-8"?>
<!-- Generator: Adobe Illustrator 17.0.0, SVG Export Plug-In . SVG Version: 6.00 Build 0)  -->
<!DOCTYPE svg PUBLIC "-//W3C//DTD SVG 1.1//EN" "http://www.w3.org/Graphics/SVG/1.1/DTD/svg11.dtd">
<svg version="1.1" id="圖層_1" xmlns="http://www.w3.org/2000/svg" xmlns:xlink="http://www.w3.org/1999/xlink" x="0px" y="0px"
	 width="800px" height="210px" viewBox="0 0 800 210" enable-background="new 0 0 800 210" xml:space="preserve">
<polyline fill="none" stroke="#B3B3B3" stroke-miterlimit="10" points="789.778,166.013 29.152,166.013 29.152,65.633 "/>
<polyline fill="none" stroke="#E7551C" stroke-linejoin="round" stroke-miterlimit="10" points="29.299,119.332 30.549,128.246 
	31.8,123.789 32.609,125.642 33.64,124.448 34.596,127.535 35.625,132.624 37.832,137.005 39.403,136.072 40.481,137.18 
	42.786,139.044 43.374,143.413 46.368,149.473 48.06,152.98 49.094,155.162 52.332,144.102 56.256,135.712 57.286,132.624 
	59.493,137.005 61.063,136.072 62.141,137.18 64.446,139.044 65.035,143.413 68.026,143.113 69.743,146.666 69.989,148.531 
	71.263,149.928 71.85,148.112 72.003,147.792 73.181,148.586 73.621,144.311 74.284,141.643 75.498,142.291 75.976,139.111 
	76.896,137.555 77.521,135.08 78.257,137.415 78.587,134.443 79.839,130.336 80.501,132.248 82.377,129.063 83.811,127.08 
	84.584,128.779 85.724,130.054 86.938,130.549 87.527,131.824 89.439,135.706 90.138,139.671 91.095,137.9 92.199,139.03 
	92.861,140.798 93.964,140.798 94.838,145.473 97.878,141.262 100.428,139.032 102.881,145.092 103.913,142.853 105.593,142.228 
	108.367,145.956 110.417,146.234 117.726,140.798 121.503,140.798 126.036,139.887 128.68,141.442 130.578,144.485 136.989,131.916 
	142.034,135.286 143.356,132.762 145.809,135.825 151.663,129.798 156.575,131.197 157.706,122.81 161.293,124.119 165.827,116.954 
	168.848,119.052 171.303,107.866 173.946,110.838 175.269,107.692 177.533,109.701 178.666,106.468 186.219,106.118 193.961,93.622 
	200.382,103.234 203.97,99.04 209.069,102.273 216.056,104.021 221.343,94.582 228.141,105.244 230.406,100.176 236.072,106.205 
	239.471,104.546 246.078,107.167 249.479,112.322 252.311,119.401 257.787,110.662 260.997,119.576 264.208,115.119 
	266.286,116.972 268.929,115.778 271.383,118.866 274.026,123.954 279.692,128.335 283.721,127.402 286.491,128.51 292.406,130.374 
	293.916,134.744 301.598,140.803 305.943,144.31 308.596,146.493 316.906,135.432 326.977,127.042 329.622,123.954 335.286,128.335 
	339.315,127.402 342.085,128.51 347.999,130.374 349.51,134.744 357.19,134.443 361.596,137.997 362.227,139.861 365.499,141.259 
	367.006,139.442 367.396,139.122 370.418,139.918 371.55,135.642 373.251,132.974 376.366,133.622 377.594,130.441 379.954,128.886 
	381.56,126.41 383.448,128.746 384.297,125.773 387.508,121.667 389.208,123.578 394.022,120.393 397.704,118.411 399.687,120.11 
	402.615,121.385 405.73,121.879 407.241,123.154 412.15,127.036 413.944,131.001 416.399,129.231 419.233,130.036 420.932,131.478 
	423.762,131.478 426.007,136.479 433.81,132.43 440.356,130.281 446.651,136.382 449.3,134.163 453.614,133.547 460.732,137.282 
	465.995,137.447 467.023,140.475 468.117,144.429 470.628,145.984 472.43,149.028 478.515,136.46 483.307,139.829 484.561,137.304 
	486.89,140.368 492.448,134.34 497.112,135.74 498.186,127.352 501.593,124.119 505.897,116.954 508.765,119.052 511.096,107.866 
	513.605,110.838 514.86,107.692 517.011,109.701 518.086,106.468 525.259,106.118 532.609,93.622 538.704,103.234 542.111,99.04 
	546.952,102.273 553.587,104.021 558.606,94.582 565.06,105.244 567.211,100.176 572.59,106.205 575.818,104.546 582.091,107.167 
	585.319,112.322 588.008,119.401 593.208,110.662 596.255,119.576 599.303,115.119 601.277,127.874 603.787,126.68 606.117,129.768 
	608.626,126.68 614.005,129.243 617.831,128.311 620.46,129.419 626.076,131.283 627.511,135.652 634.804,141.711 638.929,147.944 
	641.448,143.767 649.338,131.798 658.901,123.408 661.411,120.32 666.789,132.537 670.615,131.605 673.244,129.988 678.86,131.851 
	680.295,136.22 687.587,142.28 691.769,145.833 692.368,147.544 695.475,148.788 696.905,148.788 697.276,148.621 700.145,149.494 
	701.22,145.257 702.835,142.608 705.793,143.266 706.958,140.999 709.199,139.446 710.724,148.332 712.516,150.669 713.323,147.695 
	716.371,143.589 717.986,145.501 722.556,132.662 726.052,130.68 727.935,132.38 730.715,139.105 733.672,139.599 735.106,140.875 
	739.767,138.397 741.471,142.361 743.802,140.592 746.492,141.708 748.105,143.461 750.793,143.461 752.924,148.151 
	760.333,143.946 766.547,141.719 772.525,136.421 775.04,143.263 779.135,142.637 785.893,146.367 790.891,146.529 "/>
<polyline fill="none" stroke="#0064DC" stroke-miterlimit="10" points="790.708,156.605 787.432,155.029 783.671,156.883 
	778.38,155.24 776.009,156.605 772.686,148.093 768.382,158.969 765.872,159.523 764.07,160.7 757.983,162.054 753.193,163.385 
	751.938,162.378 749.609,163.593 744.051,161.198 739.387,161.754 738.312,158.422 734.906,158.943 730.603,149.737 
	727.734,151.479 725.403,147.037 722.893,148.216 721.639,146.967 719.488,147.765 718.412,156.135 711.24,155.996 703.89,138.764 
	697.795,142.581 694.388,140.916 689.547,142.2 682.913,142.894 677.892,139.146 671.439,146.105 669.287,144.093 663.908,146.487 
	660.681,136.174 654.408,137.216 651.181,139.263 648.49,142.074 643.291,147.689 640.244,148.502 637.197,146.733 635.223,148.191 
	632.712,147.717 630.381,148.942 627.873,147.717 622.494,148.734 618.67,148.364 616.038,148.805 610.423,149.544 608.989,151.279 
	601.696,153.684 597.57,145.993 595.051,144.334 587.161,143.188 577.599,139.857 575.089,138.631 569.71,139.65 565.884,139.279 
	563.254,139.719 557.639,140.458 556.205,142.193 548.912,144.6 544.731,146.012 544.133,146.827 541.025,147.456 539.593,147.456 
	539.224,147.254 536.354,147.532 535.279,145.818 533.665,144.748 530.706,145.001 529.541,143.735 527.3,143.116 525.775,142.132 
	523.983,143.06 523.178,141.879 520.127,140.248 518.513,141.007 513.942,139.742 510.447,138.956 508.565,139.63 505.784,140.136 
	502.827,140.333 501.393,140.839 496.733,144.398 495.029,145.972 492.697,145.269 490.007,145.571 488.394,146.124 
	485.706,146.124 483.575,148.129 476.166,149.055 469.951,148.206 463.974,146.089 454.085,147.512 452.819,146.16 450.322,147.525 
	446.821,148.093 442.287,147.608 439.645,148.163 437.746,149.34 431.335,150.694 426.29,152.024 424.968,151.018 422.514,152.233 
	416.662,149.837 411.749,150.392 410.617,140.702 407.03,141.223 402.497,138.376 399.475,139.21 397.02,134.768 394.377,135.947 
	393.056,134.698 390.792,135.497 389.658,134.213 382.104,134.073 374.363,129.111 367.942,132.928 364.354,133.08 359.256,134.364 
	352.269,135.058 346.98,137.669 340.183,141.903 337.917,139.891 332.251,140.468 328.854,139.808 322.245,140.85 318.846,142.897 
	316.013,145.708 310.537,150.413 307.327,153.954 304.118,145.824 302.04,147.282 299.395,146.808 296.941,148.034 294.298,146.808 
	288.632,147.826 284.604,147.456 281.833,147.895 275.918,146.818 274.408,148.553 266.728,142.782 262.381,145.993 
	259.728,144.334 251.419,143.188 241.346,139.857 238.703,138.631 233.038,139.65 229.008,139.279 226.238,139.719 220.324,140.458 
	218.814,142.193 211.133,144.6 206.729,146.012 206.098,146.827 202.825,147.456 201.319,147.456 200.929,147.254 197.906,147.532 
	196.774,145.818 195.074,144.748 191.958,145.001 190.729,143.735 188.37,143.116 186.764,142.132 184.876,143.06 184.028,141.879 
	180.816,140.248 179.116,141.007 174.301,139.742 170.619,138.956 168.637,139.63 165.709,140.136 162.594,140.333 161.083,140.839 
	156.176,139.855 154.38,141.43 151.924,140.727 149.091,141.301 147.392,142.13 144.561,142.13 142.318,143.86 134.513,144.65 
	127.967,143.732 121.672,146.123 110.343,150.019 110.343,150.02 108.999,148.444 107.455,150.296 105.284,148.654 104.311,150.02 
	102.947,150.588 101.181,150.103 100.151,150.657 99.412,151.834 96.914,153.188 94.948,154.519 94.433,153.512 93.477,154.727 
	91.197,152.332 89.283,152.887 88.842,143.196 87.444,143.716 85.678,140.871 84.501,141.705 83.544,137.262 82.515,138.441 
	82,137.193 81.118,137.991 80.676,136.707 77.734,136.568 74.717,131.605 72.216,135.421 70.818,135.574 68.832,136.858 
	66.109,137.552 64.049,140.163 61.401,144.398 60.518,142.385 58.311,142.962 56.986,142.303 54.412,143.344 53.088,145.392 
	51.983,148.202 49.85,152.908 48.6,156.448 47.35,148.319 46.539,149.777 45.509,149.303 44.552,150.528 43.523,149.303 
	41.316,150.321 39.746,149.95 38.667,150.39 36.362,149.313 35.774,151.048 32.782,145.277 31.088,148.487 30.055,146.829 "/>
<text transform="matrix(1 0 0 1 207.6225 181.251)" fill="#333333" font-family="'ArialNarrow'" font-size="10">08</text>
<text transform="matrix(1 0 0 1 233.6455 181.251)" fill="#333333" font-family="'ArialNarrow'" font-size="10">09</text>
<text transform="matrix(1 0 0 1 259.6694 181.251)" fill="#333333" font-family="'ArialNarrow'" font-size="10">10</text>
<text transform="matrix(1 0 0 1 285.6929 181.251)" fill="#333333" font-family="'ArialNarrow'" font-size="10">11</text>
<text transform="matrix(1 0 0 1 311.7163 181.251)" fill="#333333" font-family="'ArialNarrow'" font-size="10">12</text>
<text transform="matrix(1 0 0 1 337.7402 181.251)" fill="#333333" font-family="'ArialNarrow'" font-size="10">13</text>
<text transform="matrix(1 0 0 1 363.7637 181.251)" fill="#333333" font-family="'ArialNarrow'" font-size="10">14</text>
<text transform="matrix(1 0 0 1 389.7876 181.251)" fill="#333333" font-family="'ArialNarrow'" font-size="10">15</text>
<text transform="matrix(1 0 0 1 415.8105 181.251)" fill="#333333" font-family="'ArialNarrow'" font-size="10">16</text>
<text transform="matrix(1 0 0 1 441.835 181.251)" fill="#333333" font-family="'ArialNarrow'" font-size="10">17</text>
<text transform="matrix(1 0 0 1 467.8584 181.251)" fill="#333333" font-family="'ArialNarrow'" font-size="10">18</text>
<text transform="matrix(1 0 0 1 493.8818 181.251)" fill="#333333" font-family="'ArialNarrow'" font-size="10">19</text>
<text transform="matrix(1 0 0 1 519.9043 181.251)" fill="#333333" font-family="'ArialNarrow'" font-size="10">20</text>
<text transform="matrix(1 0 0 1 545.9287 181.251)" fill="#333333" font-family="'ArialNarrow'" font-size="10">21</text>
<text transform="matrix(1 0 0 1 571.9521 181.251)" fill="#333333" font-family="'ArialNarrow'" font-size="10">22</text>
<text transform="matrix(1 0 0 1 597.9756 181.251)" fill="#333333" font-family="'ArialNarrow'" font-size="10">23</text>
<text transform="matrix(1 0 0 1 624 181.251)" fill="#333333" font-family="'ArialNarrow'" font-size="10">24</text>
<text transform="matrix(1 0 0 1 650.0224 181.251)" fill="#333333" font-family="'ArialNarrow'" font-size="10">25</text>
<text transform="matrix(1 0 0 1 676.0468 181.251)" fill="#333333" font-family="'ArialNarrow'" font-size="10">26</text>
<text transform="matrix(1 0 0 1 702.0693 181.251)" fill="#333333" font-family="'ArialNarrow'" font-size="10">27</text>
<text transform="matrix(1 0 0 1 728.0938 181.251)" fill="#333333" font-family="'ArialNarrow'" font-size="10">28</text>
<text transform="matrix(1 0 0 1 754.1161 181.251)" fill="#333333" font-family="'ArialNarrow'" font-size="10">29</text>
<text transform="matrix(1 0 0 1 780.1406 181.251)" fill="#333333" font-family="'ArialNarrow'" font-size="10">30</text>
<text transform="matrix(1 0 0 1 25.457 181.251)" fill="#333333" font-family="'ArialNarrow'" font-size="10">01</text>
<text transform="matrix(1 0 0 1 51.4805 181.251)" fill="#333333" font-family="'ArialNarrow'" font-size="10">02</text>
<text transform="matrix(1 0 0 1 77.5039 181.251)" fill="#333333" font-family="'ArialNarrow'" font-size="10">03</text>
<text transform="matrix(1 0 0 1 103.5283 181.251)" fill="#333333" font-family="'ArialNarrow'" font-size="10">04</text>
<text transform="matrix(1 0 0 1 181.5991 181.251)" fill="#333333" font-family="'ArialNarrow'" font-size="10">07</text>
<text transform="matrix(1 0 0 1 155.5752 181.251)" fill="#333333" font-family="'ArialNarrow'" font-size="10">06</text>
<text transform="matrix(1 0 0 1 129.5513 181.251)" fill="#333333" font-family="'ArialNarrow'" font-size="10">05</text>
<text transform="matrix(1 0 0 1 18.4317 168.0264)" fill="#333333" font-family="'ArialNarrow'" font-size="10">0</text>
<text transform="matrix(1 0 0 1 7.0151 77.858)" fill="#333333" font-family="'ArialNarrow'" font-size="10">1000</text>
<text transform="matrix(1 0 0 1 11.6123 119.5845)" fill="#333333" font-family="'ArialNarrow'" font-size="10">500</text>
<text transform="matrix(1 0 0 1 622.6761 32.4827)" fill="#464E55" font-family="'Helvetica-Narrow-Bold'" font-size="20.8">2,657</text>
<text transform="matrix(1 0 0 1 725.1842 32.4827)" fill="#464E55" font-family="'Helvetica-Narrow-Bold'" font-size="20.8">1,864</text>
<g>
	<path fill="#2E6CFF" d="M607.822,16.439c1.495-0.03,2.711-1.257,2.711-2.767s-1.215-2.736-2.711-2.767
		c-1.495,0.03-2.711,1.257-2.711,2.767S606.327,16.407,607.822,16.439z"/>
	<path fill="#2E6CFF" d="M612.96,17.546l-5.011-0.575l-4.977,0.575c-0.379,0-0.838,0.281-0.838,0.661v8.051
		c0,0.379-0.053,0.141,0.327,0.141h0.345c0.379,0,1.106,0.238,1.106-0.141v-5.808c0-0.379,0.176-0.403,0.287-0.403
		s0.306,0.023,0.306,0.403V38.68c0,0.379,0.297,0.162,0.677,0.162h0.632c0.379,0,1.06,0.217,1.06-0.162v-8.367
		c0-0.379-0.06-0.95,0.319-0.95h0.604h0.604c0.379,0,0.843,0.57,0.843,0.95v8.367c0,0.379,0.158,0.162,0.537,0.162h0.632
		c0.379,0,1.2,0.217,1.2-0.162V20.451c0-0.379,0.186-0.403,0.296-0.403c0.11,0,0.296,0.023,0.296,0.403v5.808
		c0,0.379-0.016,0.141,0.364,0.141h0.389c0.379,0,1.025,0.238,1.025-0.141v-8.051C613.983,17.828,613.339,17.546,612.96,17.546z"/>
</g>
<g>
	<path fill="#FF2300" d="M705.766,17.547l-4.946-0.575l-5.009,0.575c-0.379,0-0.696,0.281-0.696,0.661v8.051
		c0,0.379,0.378,0.14,0.758,0.14h0.46c0.379,0,0.559,0.239,0.559-0.14v-5.808c0-0.379,0.17-0.403,0.281-0.403
		s0.168,0.041,0.241,0.403l0.778,4.144l-2.622,7.136h1.915v6.948c0,0.379,0.251,0.161,0.631,0.161h0.632
		c0.379,0,0.514,0.218,0.514-0.161v-6.948h1.585h1.377v6.948c0,0.379,0.341,0.161,0.721,0.161h0.632
		c0.379,0,0.424,0.218,0.424-0.161v-6.948h2.122l-2.642-7.136l0.758-4.292c0.073-0.361,0.067-0.328,0.178-0.328
		c0.111,0,0.178,0.097,0.178,0.477v5.808c0,0.379,0.387,0.14,0.767,0.14h0.46c0.379,0,0.551,0.239,0.551-0.14v-8.051
		C706.372,17.829,706.145,17.547,705.766,17.547z"/>
	<path fill="#FF2300" d="M700.761,16.441c0.019,0,0.029-0.001,0.086-0.001c0.058,0.001,0.067,0.001,0.086,0.001
		c1.529,0,2.768-1.24,2.768-2.768s-1.24-2.768-2.768-2.768c-0.019,0-0.029,0.001-0.086,0.001c-0.058-0.001-0.067-0.001-0.086-0.001
		c-1.529,0-2.768,1.24-2.768,2.768S699.232,16.441,700.761,16.441z"/>
</g>
</svg>
