<?xml version="1.0" encoding="utf-8"?>
<!-- Generator: Adobe Illustrator 17.0.0, SVG Export Plug-In . SVG Version: 6.00 Build 0)  -->
<!DOCTYPE svg PUBLIC "-//W3C//DTD SVG 1.1//EN" "http://www.w3.org/Graphics/SVG/1.1/DTD/svg11.dtd" [
	<!ENTITY ns_flows "http://ns.adobe.com/Flows/1.0/">
	<!ENTITY ns_extend "http://ns.adobe.com/Extensibility/1.0/">
	<!ENTITY ns_ai "http://ns.adobe.com/AdobeIllustrator/10.0/">
	<!ENTITY ns_graphs "http://ns.adobe.com/Graphs/1.0/">
]>
<svg version="1.1" id="圖層_1" xmlns:x="&ns_extend;" xmlns:i="&ns_ai;" xmlns:graph="&ns_graphs;"
	 xmlns="http://www.w3.org/2000/svg" xmlns:xlink="http://www.w3.org/1999/xlink" xmlns:a="http://ns.adobe.com/AdobeSVGViewerExtensions/3.0/"
	 x="0px" y="0px" width="800px" height="500px" viewBox="0 0 800 500" enable-background="new 0 0 800 500" xml:space="preserve">
<text transform="matrix(1 0 0 1 -1048.1073 198.769)" fill="#FF2300" font-family="'Helvetica-Narrow-Bold'" font-size="33.6">851</text>
<text transform="matrix(1 0 0 1 -1223.165 198.7696)" fill="#0064DC" font-family="'Helvetica-Narrow-Bold'" font-size="33.6">1,385</text>
<text transform="matrix(1 0 0 1 -1048.1062 261.9869)" fill="#0064DC" font-family="'Helvetica-Narrow-Bold'" font-size="20.8">75%</text>
<text transform="matrix(1 0 0 1 -1048.1062 284.8502)" fill="#ED1C24" font-family="'Helvetica-Narrow-Bold'" font-size="20.8">65%</text>
<g id="android_5_" enable-background="new    ">
	<g id="android_6_">
		<g>
			<path fill="#39B54A" d="M-1089.6,271.875c0,1.046,0.117,1.541,1.134,1.541h1.33c-0.044,0-0.063,0.681-0.063,0.854v3.793
				c0,0.992,1.036,1.796,2,1.796c0.964,0,2-0.805,2-1.796v-3.793c0-0.173-0.54-0.854-0.584-0.854h3.242
				c-0.044,0,0.542,0.681,0.542,0.854v3.793c0,0.992,0.636,1.796,1.6,1.796c0.964,0,1.6-0.805,1.6-1.796v-3.793
				c0-0.173-0.345-0.854-0.39-0.854h1.33c1.016,0,2.26-0.495,2.26-1.541v-13.659h-16V271.875z M-1092.8,258.7
				c-0.964,0-1.6,0.804-1.6,1.796v7.685c0,0.992,0.636,1.796,1.6,1.796c0.964,0,1.6-0.805,1.6-1.796v-7.685
				C-1091.2,259.505-1091.836,258.7-1092.8,258.7z M-1070.8,258.7c-0.964,0-2,0.804-2,1.796v7.685c0,0.992,1.036,1.796,2,1.796
				c0.964,0,2-0.805,2-1.796v-7.685C-1068.8,259.505-1069.836,258.7-1070.8,258.7z M-1078.158,251.467l0.328-0.484l0.323-0.488
				l0.725-1.115c0.089-0.138,0.053-0.321-0.08-0.412c-0.134-0.092-0.315-0.054-0.404,0.084l-0.778,1.202l-0.327,0.505l-0.332,0.512
				c-1.051-0.419-2.224-0.655-3.461-0.655c-1.237,0-2.41,0.235-3.46,0.654l-0.331-0.512l-0.327-0.505l-0.779-1.201
				c-0.089-0.138-0.27-0.175-0.404-0.083c-0.133,0.092-0.17,0.277-0.08,0.415l0.725,1.12l0.323,0.499l0.328,0.463
				c-2.469,1.184-4.14,3.549-4.14,5.949h16.29C-1074.019,255.016-1075.689,252.651-1078.158,251.467z M-1085.654,255.108
				c-0.482,0-0.873-0.403-0.873-0.898s0.391-0.897,0.873-0.897c0.482,0,0.873,0.402,0.873,0.897S-1085.172,255.108-1085.654,255.108
				z M-1078.673,255.108c-0.482,0-0.872-0.403-0.872-0.898s0.391-0.897,0.872-0.897c0.482,0,0.873,0.402,0.873,0.897
				C-1077.801,254.705-1078.191,255.108-1078.673,255.108z"/>
		</g>
	</g>
</g>
<g id="apple_5_" enable-background="new    ">
	<g id="apple_6_">
		<g>
			<path fill="#CCCCCC" d="M-1249.244,257.284c1.097-1.238,1.838-2.959,1.636-4.672c-1.581,0.059-3.496,0.978-4.631,2.215
				c-1.017,1.098-1.906,2.846-1.668,4.528C-1252.143,259.483-1250.343,258.52-1249.244,257.284z M-1245.286,268.161
				c-0.04-3.707,3.247-5.484,3.395-5.574c-1.847-2.514-4.725-2.859-5.749-2.898c-2.448-0.231-4.778,1.342-6.02,1.342
				c-1.239,0-3.157-1.308-5.187-1.275c-2.67,0.037-5.13,1.445-6.504,3.67c-2.772,4.477-0.709,11.112,1.993,14.745
				c1.321,1.776,2.896,3.775,4.962,3.701c1.992-0.073,2.744-1.199,5.151-1.199c2.408,0,3.084,1.199,5.19,1.162
				c2.142-0.036,3.499-1.81,4.81-3.593c1.517-2.063,2.141-4.062,2.178-4.163C-1241.115,274.059-1245.243,272.587-1245.286,268.161z"
				/>
		</g>
	</g>
</g>
<text transform="matrix(1 0 0 1 -1223.1648 265.6793)" fill="#0064DC" font-family="'Helvetica-Narrow-Bold'" font-size="20.8">25%</text>
<text transform="matrix(1 0 0 1 -1223.165 288.5417)" fill="#ED1C24" font-family="'Helvetica-Narrow-Bold'" font-size="20.8">35%</text>
<text transform="matrix(1 0 0 1 -998.2568 261.9869)" fill="#0064DC" font-family="'Helvetica-Narrow-Bold'" font-size="20.8">1220</text>
<text transform="matrix(1 0 0 1 -998.2568 284.8502)" fill="#ED1C24" font-family="'Helvetica-Narrow-Bold'" font-size="20.8">715</text>
<text transform="matrix(1 0 0 1 -1174.115 265.6793)" fill="#0064DC" font-family="'Helvetica-Narrow-Bold'" font-size="20.8">165</text>
<text transform="matrix(1 0 0 1 -1174.115 288.5417)" fill="#ED1C24" font-family="'Helvetica-Narrow-Bold'" font-size="20.8">136</text>
<rect x="-1366" y="327.416" fill="none" stroke="#B3B3B3" stroke-miterlimit="10" width="80" height="24"/>
<text transform="matrix(1 0 0 1 -1355.1777 344.8716)" fill="#333333" font-family="'MicrosoftJhengHeiRegular'"  a:adobe-font-script="chineseTraditional" font-size="12.8">年齡分布</text>
<text transform="matrix(1 0 0 1 -1368.2422 132.4111)" fill="#333333" font-family="'MicrosoftJhengHeiRegular'"  a:adobe-font-script="chineseTraditional" font-size="16.8">本月會員</text>
<g>
	<g>
		<g>
			<g>
				<path fill-rule="evenodd" clip-rule="evenodd" fill="#E6E6E6" stroke="#FFFFFF" stroke-miterlimit="10" d="M-1162.724,416.856
					l-7.416-38.152c2.528-0.492,4.84-0.714,7.416-0.714V416.856z"/>
			</g>
		</g>
		<g>
			<g>
				<path fill-rule="evenodd" clip-rule="evenodd" fill="#ED1C7C" d="M-1162.724,416.856h-38.866
					c0-18.889,12.908-34.548,31.45-38.152L-1162.724,416.856z"/>
			</g>
		</g>
		<g>
			<g>
				<path fill-rule="evenodd" clip-rule="evenodd" fill="#00B6E7" stroke="#FFFFFF" stroke-miterlimit="10" d="M-1162.724,416.856
					l22.845,31.443c-17.366,12.617-41.671,8.767-54.288-8.598c-5.047-6.946-7.423-14.259-7.423-22.845H-1162.724z"/>
			</g>
		</g>
		<g>
			<g>
				<path fill="#FCE650" stroke="#FFFFFF" stroke-miterlimit="10" d="M-1162.724,416.856V377.99
					c21.465,0,38.866,17.401,38.866,38.866c0,12.879-5.602,23.873-16.021,31.443L-1162.724,416.856z"/>
			</g>
		</g>
	</g>
	<g>
		<g>
		</g>
		<g>
		</g>
		<g>
		</g>
		<g>
		</g>
	</g>
</g>
<g>
	<g>
		<g>
			<g>
				<path fill-rule="evenodd" clip-rule="evenodd" fill="#E6E6E6" stroke="#FFFFFF" stroke-miterlimit="10" d="M-1015.977,416.856
					l-10.059-37.542c3.317-0.889,6.625-1.324,10.059-1.324V416.856z"/>
			</g>
		</g>
		<g>
			<g>
				<path fill-rule="evenodd" clip-rule="evenodd" fill="#ED1C7C" d="M-1015.977,416.856l-38.813-2.034
					c0.899-17.149,12.167-31.063,28.754-35.508L-1015.977,416.856z"/>
			</g>
		</g>
		<g>
			<g>
				<path fill-rule="evenodd" clip-rule="evenodd" fill="#00B6E7" stroke="#FFFFFF" stroke-miterlimit="10" d="M-1015.977,416.856
					l36.964,12.01c-6.633,20.415-28.56,31.587-48.974,24.954c-17.148-5.572-27.746-20.992-26.803-38.998L-1015.977,416.856z"/>
			</g>
		</g>
		<g>
			<g>
				<path fill="#FCE650" stroke="#FFFFFF" stroke-miterlimit="10" d="M-1015.977,416.856V377.99
					c21.465,0,38.866,17.401,38.866,38.866c0,4.293-0.576,7.927-1.902,12.01L-1015.977,416.856z"/>
			</g>
		</g>
	</g>
	<g>
		<g>
		</g>
		<g>
		</g>
		<g>
		</g>
		<g>
		</g>
	</g>
</g>
<g>
	<g>
		<g>
			<g>
				<path fill="#E6E6E6" stroke="#FFFFFF" stroke-miterlimit="10" d="M-1309.053,414.527l-2.711-38.771
					c0.856-0.06,1.853-0.095,2.711-0.095V414.527z"/>
			</g>
		</g>
		<g>
			<g>
				<path fill="#ED1C7C" stroke="#FFFFFF" stroke-miterlimit="10" d="M-1309.053,414.527l-37.712-9.403
					c4.154-16.662,17.87-28.171,35-29.369L-1309.053,414.527z"/>
			</g>
		</g>
		<g>
			<g>
				<path fill="#00B6E7" stroke="#FFFFFF" stroke-miterlimit="10" d="M-1309.053,414.527l24.983,29.773
					c-16.443,13.798-40.958,11.653-54.756-4.791c-8.279-9.866-11.054-21.889-7.938-34.385L-1309.053,414.527z"/>
			</g>
		</g>
		<g>
			<g>
				<path fill="#FCE650" stroke="#FFFFFF" stroke-miterlimit="10" d="M-1309.053,414.527v-38.866
					c21.465,0,38.866,17.401,38.866,38.866c0,12.02-4.675,22.047-13.884,29.773L-1309.053,414.527z"/>
			</g>
		</g>
	</g>
	<g>
		<g>
		</g>
		<g>
		</g>
		<g>
		</g>
		<g>
		</g>
	</g>
</g>
<g>
	
		<text transform="matrix(1 0 0 1 -1247.6376 342.813)" fill="#333333" font-family="'MicrosoftJhengHeiBold'"  a:adobe-font-script="chineseTraditional" font-size="12.8">0-20</text>
</g>
<rect x="-1266.4" y="332.616" fill="#FCE650" width="12.8" height="12.8"/>
<rect x="-1201.6" y="332.616" fill="#00B6E7" width="12.8" height="12.8"/>
<rect x="-1128.8" y="332.616" fill="#ED1C7C" width="12.8" height="12.8"/>
<rect x="-1058.4" y="332.616" fill="#CCCCCC" width="12.8" height="12.8"/>
<g>
	<path fill="#0064DC" d="M-1253.702,177.171c2.019-0.041,3.66-1.698,3.66-3.736s-1.641-3.694-3.66-3.736
		c-2.019,0.041-3.66,1.698-3.66,3.736S-1255.72,177.13-1253.702,177.171z"/>
	<path fill="#0064DC" d="M-1246.873,178.667l-6.712-0.776l-6.803,0.776c-0.512,0-1.212,0.38-1.212,0.893v10.871
		c0,0.512,0.146,0.585,0.658,0.585h0.466c0.512,0,1.276-0.073,1.276-0.585v-7.842c0-0.512,0.237-0.544,0.387-0.544
		c0.15,0,0.413,0.031,0.413,0.544v24.614c0,0.512,0.619,0.614,1.131,0.614h0.854c0.512,0,1.215-0.101,1.215-0.614v-11.298
		c0-0.512,0.136-0.889,0.649-0.889h0.815h0.815c0.512,0,0.921,0.376,0.921,0.889v11.298c0,0.512,0.431,0.614,0.943,0.614h0.854
		c0.512,0,1.403-0.101,1.403-0.614v-24.614c0-0.512,0.251-0.544,0.4-0.544c0.15,0,0.4,0.031,0.4,0.544v7.842
		c0,0.512,0.196,0.585,0.708,0.585h0.525c0.513,0,1.167-0.073,1.167-0.585V179.56C-1245.6,179.048-1246.36,178.667-1246.873,178.667
		z"/>
</g>
<g>
	<path fill="#FF2300" d="M-1075.218,178.669l-6.679-0.776l-6.763,0.776c-0.512,0-0.939,0.38-0.939,0.893v10.871
		c0,0.512,0.511,0.584,1.023,0.584h0.621c0.512,0,0.755-0.071,0.755-0.584v-7.842c0-0.512,0.23-0.544,0.379-0.544
		c0.149,0,0.227,0.056,0.326,0.544l1.05,5.793l-3.541,9.833h2.586v8.988c0,0.512,0.339,0.612,0.852,0.612h0.854
		c0.512,0,0.694-0.1,0.694-0.612v-8.988h2.14h1.86v8.988c0,0.512,0.461,0.612,0.974,0.612h0.854c0.512,0,0.572-0.1,0.572-0.612
		v-8.988h2.866l-3.568-9.833l1.024-5.895c0.099-0.488,0.09-0.493,0.24-0.493c0.15,0,0.24,0.082,0.24,0.595v7.842
		c0,0.512,0.523,0.584,1.035,0.584h0.621c0.512,0,0.744-0.071,0.744-0.584v-10.871
		C-1074.4,179.049-1074.706,178.669-1075.218,178.669z"/>
	<path fill="#FF2300" d="M-1081.977,177.175c0.026,0,0.039-0.001,0.116-0.002c0.078,0.001,0.09,0.002,0.116,0.002
		c2.064,0,3.738-1.674,3.738-3.738c0-2.064-1.673-3.738-3.738-3.738c-0.026,0-0.039,0.001-0.116,0.002
		c-0.078-0.001-0.09-0.002-0.116-0.002c-2.064,0-3.738,1.674-3.738,3.738C-1085.715,175.501-1084.041,177.175-1081.977,177.175z"/>
</g>
<rect x="-1704.4" y="20.216" fill="#F2F2F2" stroke="#CCCCCC" stroke-miterlimit="10" width="301.6" height="35.2"/>
<rect x="-1704.4" y="55.416" fill="#FFFFFF" stroke="#CCCCCC" stroke-miterlimit="10" width="301.6" height="54.4"/>
<rect x="-1704.4" y="109.816" fill="#FFFFFF" stroke="#CCCCCC" stroke-miterlimit="10" width="301.6" height="51.2"/>
<rect x="-1704.4" y="161.016" fill="#FFFFFF" stroke="#CCCCCC" stroke-miterlimit="10" width="301.6" height="52.8"/>
<rect x="-1704.4" y="213.816" fill="#FFFFFF" stroke="#CCCCCC" stroke-miterlimit="10" width="301.6" height="52.8"/>
<rect x="-1704.4" y="266.616" fill="#FFFFFF" stroke="#CCCCCC" stroke-miterlimit="10" width="301.6" height="52.8"/>
<rect x="-1704.4" y="319.416" fill="#FFFFFF" stroke="#CCCCCC" stroke-miterlimit="10" width="301.6" height="52.8"/>
<rect x="-1704.4" y="372.216" fill="#FFFFFF" stroke="#CCCCCC" stroke-miterlimit="10" width="301.6" height="52.8"/>
<text transform="matrix(1 0 0 1 -1646.0736 81.0351)"><tspan x="0" y="0" font-family="'MicrosoftJhengHeiRegular'"  a:adobe-font-script="chineseTraditional" font-size="14.4">中華電信</tspan><tspan x="0" y="52.8" font-family="'MicrosoftJhengHeiRegular'"  a:adobe-font-script="chineseTraditional" font-size="14.4">台灣大</tspan><tspan x="0" y="105.6" font-family="'MicrosoftJhengHeiRegular'"  a:adobe-font-script="chineseTraditional" font-size="14.4">亞太電信</tspan><tspan x="0" y="158.4" font-family="'MicrosoftJhengHeiRegular'"  a:adobe-font-script="chineseTraditional" font-size="14.4">威寶電信</tspan><tspan x="0" y="211.2" font-family="'MicrosoftJhengHeiRegular'"  a:adobe-font-script="chineseTraditional" font-size="14.4">遠傳電信</tspan><tspan x="0" y="264" font-family="'MicrosoftJhengHeiRegular'"  a:adobe-font-script="chineseTraditional" font-size="14.4">大眾電信</tspan><tspan x="0" y="316.8" font-family="'MicrosoftJhengHeiRegular'"  a:adobe-font-script="chineseTraditional" font-size="14.4">其他業者</tspan></text>
<text transform="matrix(1 0 0 1 -1660.3555 44.0278)" fill="#333333" font-family="'MicrosoftJhengHeiBold'"  a:adobe-font-script="chineseTraditional" font-size="14.4">電信系統商</text>
<text transform="matrix(1 0 0 1 -1480.4442 44.0278)" fill="#0064DC" font-family="'MicrosoftJhengHeiBold'"  a:adobe-font-script="chineseTraditional" font-size="14.4">男</text>
<text transform="matrix(1 0 0 1 -1437.2441 44.0278)" fill="#FF2300" font-family="'MicrosoftJhengHeiBold'"  a:adobe-font-script="chineseTraditional" font-size="14.4">女</text>
<text transform="matrix(1 0 0 1 -1110.5663 342.8131)" fill="#333333" font-family="'MicrosoftJhengHeiBold'"  a:adobe-font-script="chineseTraditional" font-size="12.8">41-60</text>
<line fill="none" stroke="#CCCCCC" stroke-miterlimit="10" x1="-1366.4" y1="229.816" x2="-936" y2="229.816"/>
<line fill="none" stroke="#CCCCCC" stroke-miterlimit="10" x1="-1366.4" y1="309.816" x2="-936" y2="309.816"/>
<line fill="none" stroke="#CCCCCC" stroke-miterlimit="10" x1="-1366.4" y1="149.816" x2="-936" y2="149.816"/>
<line fill="none" stroke="#CCCCCC" stroke-miterlimit="10" x1="-1366.4" y1="93.016" x2="-936" y2="93.016"/>
<text transform="matrix(1 0 0 1 -1368.2422 176.3696)" fill="#333333" font-family="'MicrosoftJhengHeiRegular'"  a:adobe-font-script="chineseTraditional" font-size="16.8">性 別</text>
<text transform="matrix(1 0 0 1 -1368.2422 257.0094)" fill="#333333" font-family="'MicrosoftJhengHeiRegular'"  a:adobe-font-script="chineseTraditional" font-size="16.8">手機系統</text>
<text transform="matrix(1 0 0 1 -1325.5811 479.4898)" fill="#333333" font-family="'MicrosoftJhengHeiRegular'"  a:adobe-font-script="chineseTraditional" font-size="16.8">所有</text>
<text transform="matrix(1 0 0 1 -1180.7997 479.4898)" fill="#333333" font-family="'MicrosoftJhengHeiRegular'"  a:adobe-font-script="chineseTraditional" font-size="16.8">男性</text>
<text transform="matrix(1 0 0 1 -1032.7821 479.4898)" fill="#333333" font-family="'MicrosoftJhengHeiRegular'"  a:adobe-font-script="chineseTraditional" font-size="16.8">女性</text>
<text transform="matrix(1 0 0 1 -1038.5664 342.813)" fill="#333333" font-family="'MicrosoftJhengHeiBold'"  a:adobe-font-script="chineseTraditional" font-size="12.8">61-80</text>
<text transform="matrix(1 0 0 1 -1183.6376 342.813)" fill="#333333" font-family="'MicrosoftJhengHeiBold'"  a:adobe-font-script="chineseTraditional" font-size="12.8">21-40</text>
<text transform="matrix(1 0 0 1 -995.617 411.4166)" fill="#333333" font-family="'Helvetica-Narrow-Bold'" font-size="14.4">30%</text>
<text transform="matrix(1 0 0 1 -1027.7987 447.3239)" fill="#333333" font-family="'Helvetica-Narrow-Bold'" font-size="14.4">46%</text>
<text transform="matrix(1 0 0 1 -1056.5985 406.2163)" fill="#333333" font-family="'Helvetica-Narrow-Bold'" font-size="14.4">20%</text>
<text transform="matrix(1 0 0 1 -1030.1143 378.1373)" fill="#333333" font-family="'Helvetica-Narrow-Bold'" font-size="14.4">4%</text>
<text transform="matrix(1 0 0 1 -1141.2354 411.4166)" fill="#333333" font-family="'Helvetica-Narrow-Bold'" font-size="14.4">40%</text>
<text transform="matrix(1 0 0 1 -1173.4158 447.3239)" fill="#333333" font-family="'Helvetica-Narrow-Bold'" font-size="14.4">35%</text>
<text transform="matrix(1 0 0 1 -1201.4158 402.2163)" fill="#333333" font-family="'Helvetica-Narrow-Bold'" font-size="14.4">22%</text>
<text transform="matrix(1 0 0 1 -1175.7323 378.1373)" fill="#333333" font-family="'Helvetica-Narrow-Bold'" font-size="14.4">3%</text>
<text transform="matrix(0.9887 0 0 1 -1286.3778 411.4156)" fill="#333333" font-family="'Helvetica-Narrow-Bold'" font-size="14.4">39%</text>
<text transform="matrix(1 0 0 1 -1317.7588 447.3239)" fill="#333333" font-family="'Helvetica-Narrow-Bold'" font-size="14.4">40%</text>
<text transform="matrix(1 0 0 1 -1343.3588 394.2164)" fill="#333333" font-family="'Helvetica-Narrow-Bold'" font-size="14.4">20%</text>
<text transform="matrix(1 0 0 1 -1320.0751 378.1373)" fill="#333333" font-family="'Helvetica-Narrow-Bold'" font-size="14.4">1%</text>
<g>
	<path fill="#0064DC" d="M-1489.709,33.624c0.847-0.017,1.536-0.713,1.536-1.568c0-0.856-0.689-1.551-1.536-1.568
		c-0.847,0.017-1.536,0.713-1.536,1.568C-1491.245,32.911-1490.556,33.607-1489.709,33.624z"/>
	<path fill="#0064DC" d="M-1486.888,34.252l-2.795-0.326l-2.732,0.326c-0.215,0-0.385,0.16-0.385,0.375v4.563
		c0,0.215-0.163,0.626,0.052,0.626h0.196c0.215,0,0.552-0.411,0.552-0.626v-3.292c0-0.215-0.068-0.228-0.006-0.228
		s0.006,0.013,0.006,0.228V46.23c0,0.215,0.579-0.014,0.794-0.014h0.359c0.215,0,0.448,0.229,0.448,0.014v-4.742
		c0-0.215,0.12-0.072,0.335-0.072h0.342h0.342c0.215,0,0.581-0.143,0.581,0.072v4.742c0,0.215-0.014-0.014,0.201-0.014h0.359
		c0.215,0,0.24,0.229,0.24,0.014V35.898c0-0.215,0.337-0.228,0.4-0.228s0.4,0.013,0.4,0.228v3.292c0,0.215-0.033,0.626,0.182,0.626
		h0.22c0.215,0,0.398-0.411,0.398-0.626v-4.563C-1486.4,34.412-1486.673,34.252-1486.888,34.252z"/>
</g>
<g>
	<path fill="#FF2300" d="M-1443.404,34.253l-2.734-0.326l-2.953,0.326c-0.215,0-0.509,0.16-0.509,0.375v4.563
		c0,0.215,0.512,0.625,0.727,0.625h0.261c0.215,0,0.612-0.41,0.612-0.625v-3.292c0-0.215-0.051-0.228,0.012-0.228
		s0.021,0.023,0.063,0.228l0.404,2.311l-1.523,4.007h1.044v4.015c0,0.215,0.183-0.015,0.399-0.015h0.359
		c0.215,0,0.043,0.23,0.043,0.015v-4.015h1.147h0.453v4.015c0,0.215,0.521-0.015,0.736-0.015h0.359c0.215,0,0.505,0.23,0.505,0.015
		v-4.015h0.938l-1.498-4.007l0.43-2.414c0.042-0.205,0.002-0.177,0.065-0.177s0.065,0.065,0.065,0.28v3.292
		c0,0.215,0.29,0.625,0.505,0.625h0.261c0.215,0,0.034-0.41,0.034-0.625v-4.563C-1443.2,34.412-1443.189,34.253-1443.404,34.253z"/>
	<path fill="#FF2300" d="M-1446.102,33.626c0.011,0,0.016-0.001,0.049-0.001c0.033,0,0.038,0.001,0.049,0.001
		c0.867,0,1.569-0.702,1.569-1.569c0-0.867-0.703-1.569-1.569-1.569c-0.011,0-0.016,0.001-0.049,0.001
		c-0.033,0-0.038-0.001-0.049-0.001c-0.866,0-1.569,0.702-1.569,1.569C-1447.671,32.923-1446.969,33.626-1446.102,33.626z"/>
</g>
<text transform="matrix(1 0 0 1 -1259.9999 131.878)"><tspan x="0" y="0" fill="#333333" font-family="'MicrosoftJhengHeiRegular'"  a:adobe-font-script="chineseTraditional" font-size="28.8">2,236</tspan><tspan x="73.406" y="0" fill="#333333" font-family="'MicrosoftJhengHeiRegular'"  a:adobe-font-script="chineseTraditional" font-size="33.6"> </tspan><tspan x="81.807" y="0" fill="#333333" font-family="'MicrosoftJhengHeiRegular'"  a:adobe-font-script="chineseTraditional" font-size="16.8">人</tspan></text>
<g>
	<path fill="#F2F2F2" d="M-1658,94.416c0,2.75-2.25,5-5,5h-23.6c-2.75,0-5-2.25-5-5v-23.6c0-2.75,2.25-5,5-5h23.6c2.75,0,5,2.25,5,5
		V94.416z"/>
	<path fill="none" stroke="#E6E6E6" stroke-miterlimit="10" d="M-1658,94.416c0,2.75-2.25,5-5,5h-23.6c-2.75,0-5-2.25-5-5v-23.6
		c0-2.75,2.25-5,5-5h23.6c2.75,0,5,2.25,5,5V94.416z"/>
</g>
<g>
	<path fill="#F2F2F2" d="M-1658,147.216c0,2.75-2.25,5-5,5h-23.6c-2.75,0-5-2.25-5-5v-23.6c0-2.75,2.25-5,5-5h23.6
		c2.75,0,5,2.25,5,5V147.216z"/>
	<path fill="none" stroke="#E6E6E6" stroke-miterlimit="10" d="M-1658,147.216c0,2.75-2.25,5-5,5h-23.6c-2.75,0-5-2.25-5-5v-23.6
		c0-2.75,2.25-5,5-5h23.6c2.75,0,5,2.25,5,5V147.216z"/>
</g>
<g>
	<path fill="#F2F2F2" d="M-1658,199.216c0,2.75-2.25,5-5,5h-23.6c-2.75,0-5-2.25-5-5v-23.6c0-2.75,2.25-5,5-5h23.6
		c2.75,0,5,2.25,5,5V199.216z"/>
	<path fill="none" stroke="#E6E6E6" stroke-miterlimit="10" d="M-1658,199.216c0,2.75-2.25,5-5,5h-23.6c-2.75,0-5-2.25-5-5v-23.6
		c0-2.75,2.25-5,5-5h23.6c2.75,0,5,2.25,5,5V199.216z"/>
</g>
<g>
	<path fill="#F2F2F2" d="M-1658,252.016c0,2.75-2.25,5-5,5h-23.6c-2.75,0-5-2.25-5-5v-23.6c0-2.75,2.25-5,5-5h23.6
		c2.75,0,5,2.25,5,5V252.016z"/>
	<path fill="none" stroke="#E6E6E6" stroke-miterlimit="10" d="M-1658,252.016c0,2.75-2.25,5-5,5h-23.6c-2.75,0-5-2.25-5-5v-23.6
		c0-2.75,2.25-5,5-5h23.6c2.75,0,5,2.25,5,5V252.016z"/>
</g>
<g>
	<path fill="#F2F2F2" d="M-1658,304.549c0,2.75-2.25,5-5,5h-23.6c-2.75,0-5-2.25-5-5v-23.6c0-2.75,2.25-5,5-5h23.6
		c2.75,0,5,2.25,5,5V304.549z"/>
	<path fill="none" stroke="#E6E6E6" stroke-miterlimit="10" d="M-1658,304.549c0,2.75-2.25,5-5,5h-23.6c-2.75,0-5-2.25-5-5v-23.6
		c0-2.75,2.25-5,5-5h23.6c2.75,0,5,2.25,5,5V304.549z"/>
</g>
<g>
	<path fill="#F2F2F2" d="M-1658,357.083c0,2.75-2.25,5-5,5h-23.6c-2.75,0-5-2.25-5-5v-23.6c0-2.75,2.25-5,5-5h23.6
		c2.75,0,5,2.25,5,5V357.083z"/>
	<path fill="none" stroke="#E6E6E6" stroke-miterlimit="10" d="M-1658,357.083c0,2.75-2.25,5-5,5h-23.6c-2.75,0-5-2.25-5-5v-23.6
		c0-2.75,2.25-5,5-5h23.6c2.75,0,5,2.25,5,5V357.083z"/>
</g>
<g>
	<path fill="#F2F2F2" d="M-1658,409.616c0,2.75-2.25,5-5,5h-23.6c-2.75,0-5-2.25-5-5v-23.6c0-2.75,2.25-5,5-5h23.6
		c2.75,0,5,2.25,5,5V409.616z"/>
	<path fill="none" stroke="#E6E6E6" stroke-miterlimit="10" d="M-1658,409.616c0,2.75-2.25,5-5,5h-23.6c-2.75,0-5-2.25-5-5v-23.6
		c0-2.75,2.25-5,5-5h23.6c2.75,0,5,2.25,5,5V409.616z"/>
</g>
<text transform="matrix(1 0 0 1 -1455.3354 79.4156)"><tspan x="0" y="0" fill="#0064DC" font-family="'MicrosoftJhengHeiBold'"  a:adobe-font-script="chineseTraditional" font-size="14.4">31%</tspan><tspan x="0" y="52.24" fill="#0064DC" font-family="'MicrosoftJhengHeiBold'"  a:adobe-font-script="chineseTraditional" font-size="14.4">26%</tspan><tspan x="0" y="104.48" fill="#0064DC" font-family="'MicrosoftJhengHeiBold'"  a:adobe-font-script="chineseTraditional" font-size="14.4">20%</tspan><tspan x="0" y="156.72" fill="#0064DC" font-family="'MicrosoftJhengHeiBold'"  a:adobe-font-script="chineseTraditional" font-size="14.4">15%</tspan><tspan x="0" y="208.96" fill="#0064DC" font-family="'MicrosoftJhengHeiBold'"  a:adobe-font-script="chineseTraditional" font-size="14.4">10%</tspan><tspan x="8.578" y="261.2" fill="#0064DC" font-family="'MicrosoftJhengHeiBold'"  a:adobe-font-script="chineseTraditional" font-size="14.4">3%</tspan><tspan x="8.578" y="313.44" fill="#0064DC" font-family="'MicrosoftJhengHeiBold'"  a:adobe-font-script="chineseTraditional" font-size="14.4">0%</tspan></text>
<text transform="matrix(1 0 0 1 -1455.3354 99.2536)"><tspan x="0" y="0" fill="#FF2300" font-family="'MicrosoftJhengHeiBold'"  a:adobe-font-script="chineseTraditional" font-size="14.4">29%</tspan><tspan x="0" y="52.24" fill="#FF2300" font-family="'MicrosoftJhengHeiBold'"  a:adobe-font-script="chineseTraditional" font-size="14.4">24%</tspan><tspan x="0" y="104.48" fill="#FF2300" font-family="'MicrosoftJhengHeiBold'"  a:adobe-font-script="chineseTraditional" font-size="14.4">18%</tspan><tspan x="0" y="156.72" fill="#FF2300" font-family="'MicrosoftJhengHeiBold'"  a:adobe-font-script="chineseTraditional" font-size="14.4">12%</tspan><tspan x="0" y="208.96" fill="#FF2300" font-family="'MicrosoftJhengHeiBold'"  a:adobe-font-script="chineseTraditional" font-size="14.4">20%</tspan><tspan x="8.578" y="261.2" fill="#FF2300" font-family="'MicrosoftJhengHeiBold'"  a:adobe-font-script="chineseTraditional" font-size="14.4">1%</tspan><tspan x="8.578" y="313.44" fill="#FF2300" font-family="'MicrosoftJhengHeiBold'"  a:adobe-font-script="chineseTraditional" font-size="14.4">0%</tspan></text>
<text transform="matrix(1 0 0 1 -1526.9199 79.4156)"><tspan x="0" y="0" fill="#0064DC" font-family="'MicrosoftJhengHeiBold'"  a:adobe-font-script="chineseTraditional" font-size="14.4">264</tspan><tspan x="8.578" y="52.24" fill="#0064DC" font-family="'MicrosoftJhengHeiBold'"  a:adobe-font-script="chineseTraditional" font-size="14.4">86</tspan><tspan x="8.578" y="104.48" fill="#0064DC" font-family="'MicrosoftJhengHeiBold'"  a:adobe-font-script="chineseTraditional" font-size="14.4">24</tspan><tspan x="8.578" y="156.72" fill="#0064DC" font-family="'MicrosoftJhengHeiBold'"  a:adobe-font-script="chineseTraditional" font-size="14.4">17</tspan><tspan x="0" y="208.96" fill="#0064DC" font-family="'MicrosoftJhengHeiBold'"  a:adobe-font-script="chineseTraditional" font-size="14.4">165</tspan><tspan x="8.578" y="261.2" fill="#0064DC" font-family="'MicrosoftJhengHeiBold'"  a:adobe-font-script="chineseTraditional" font-size="14.4">16</tspan><tspan x="17.156" y="313.44" fill="#0064DC" font-family="'MicrosoftJhengHeiBold'"  a:adobe-font-script="chineseTraditional" font-size="14.4">0</tspan></text>
<text transform="matrix(1 0 0 1 -1645.2738 101.0157)"><tspan x="0" y="0" fill="#42210B" font-family="'MicrosoftJhengHeiRegular'"  a:adobe-font-script="chineseTraditional" font-size="14.4">391</tspan><tspan x="0" y="52.24" fill="#42210B" font-family="'MicrosoftJhengHeiRegular'"  a:adobe-font-script="chineseTraditional" font-size="14.4">154</tspan><tspan x="0" y="104.48" fill="#42210B" font-family="'MicrosoftJhengHeiRegular'"  a:adobe-font-script="chineseTraditional" font-size="14.4">54</tspan><tspan x="0" y="156.72" fill="#42210B" font-family="'MicrosoftJhengHeiRegular'"  a:adobe-font-script="chineseTraditional" font-size="14.4">46</tspan><tspan x="0" y="208.96" fill="#42210B" font-family="'MicrosoftJhengHeiRegular'"  a:adobe-font-script="chineseTraditional" font-size="14.4">282</tspan><tspan x="0" y="261.2" fill="#42210B" font-family="'MicrosoftJhengHeiRegular'"  a:adobe-font-script="chineseTraditional" font-size="14.4">27</tspan><tspan x="0" y="313.44" fill="#42210B" font-family="'MicrosoftJhengHeiRegular'"  a:adobe-font-script="chineseTraditional" font-size="14.4">0</tspan></text>
<text transform="matrix(1 0 0 1 -1526.9199 99.2536)"><tspan x="0" y="0" fill="#FF2300" font-family="'MicrosoftJhengHeiBold'"  a:adobe-font-script="chineseTraditional" font-size="14.4">127</tspan><tspan x="8.578" y="52.24" fill="#FF2300" font-family="'MicrosoftJhengHeiBold'"  a:adobe-font-script="chineseTraditional" font-size="14.4">68</tspan><tspan x="8.578" y="104.48" fill="#FF2300" font-family="'MicrosoftJhengHeiBold'"  a:adobe-font-script="chineseTraditional" font-size="14.4">30</tspan><tspan x="8.578" y="156.72" fill="#FF2300" font-family="'MicrosoftJhengHeiBold'"  a:adobe-font-script="chineseTraditional" font-size="14.4">29</tspan><tspan x="0" y="208.96" fill="#FF2300" font-family="'MicrosoftJhengHeiBold'"  a:adobe-font-script="chineseTraditional" font-size="14.4">117</tspan><tspan x="8.578" y="261.2" fill="#FF2300" font-family="'MicrosoftJhengHeiBold'"  a:adobe-font-script="chineseTraditional" font-size="14.4">11</tspan><tspan x="17.156" y="313.44" fill="#FF2300" font-family="'MicrosoftJhengHeiBold'"  a:adobe-font-script="chineseTraditional" font-size="14.4">0</tspan></text>
<path fill-rule="evenodd" clip-rule="evenodd" fill="#4D4D4D" d="M-1672.311,44.531c-0.698,0-1.263-0.565-1.263-1.263V29.794
	c0-0.698,0.565-1.263,1.263-1.263s1.263,0.565,1.263,1.263v13.474C-1671.048,43.966-1671.613,44.531-1672.311,44.531
	 M-1677.364,44.531c-0.698,0-1.263-0.565-1.263-1.263V33.163c0-0.698,0.565-1.263,1.263-1.263s1.263,0.565,1.263,1.263v10.105
	C-1676.1,43.966-1676.666,44.531-1677.364,44.531 M-1682.416,44.531c-0.698,0-1.263-0.565-1.263-1.263v-6.737
	c0-0.698,0.565-1.263,1.263-1.263s1.263,0.565,1.263,1.263v6.737C-1681.153,43.966-1681.719,44.531-1682.416,44.531
	 M-1687.469,44.531c-0.698,0-1.263-0.565-1.263-1.263v-3.368c0-0.698,0.565-1.263,1.263-1.263s1.263,0.565,1.263,1.263v3.368
	C-1686.206,43.966-1686.771,44.531-1687.469,44.531"/>
<g>
	<path fill="#FFFFFF" d="M-1354.459,35.752c0,1.65-1.35,3-3,3h-10c-1.65,0-3-1.35-3-3v-10c0-1.65,1.35-3,3-3h10c1.65,0,3,1.35,3,3
		V35.752z"/>
	<path fill="none" stroke="#CCCCCC" stroke-width="2" stroke-miterlimit="10" d="M-1354.459,35.752c0,1.65-1.35,3-3,3h-10
		c-1.65,0-3-1.35-3-3v-10c0-1.65,1.35-3,3-3h10c1.65,0,3,1.35,3,3V35.752z"/>
</g>
<g>
	
		<text transform="matrix(1 0 0 1 -1344.7998 37.3692)" fill="#333333" font-family="'MicrosoftJhengHeiRegular'"  a:adobe-font-script="chineseTraditional" font-size="16.8">基隆市</text>
</g>
<path fill-rule="evenodd" clip-rule="evenodd" fill="#39B54A" d="M-1349.168,24.896L-1349.168,24.896l-10.152,10.152
	c-0.24,0.24-0.571,0.388-0.936,0.388c-0.366,0-0.697-0.148-0.937-0.388l-5.738-5.738c-0.24-0.24-0.387-0.571-0.387-0.936
	c0-0.731,0.593-1.324,1.324-1.324c0.365,0,0.697,0.148,0.936,0.387l4.802,4.802l9.215-9.216c0.24-0.24,0.571-0.387,0.937-0.387
	c0.731,0,1.324,0.593,1.324,1.324C-1348.78,24.325-1348.928,24.656-1349.168,24.896"/>
<g>
	<path fill="#FFFFFF" d="M-1254.459,35.752c0,1.65-1.35,3-3,3h-10c-1.65,0-3-1.35-3-3v-10c0-1.65,1.35-3,3-3h10c1.65,0,3,1.35,3,3
		V35.752z"/>
	<path fill="none" stroke="#CCCCCC" stroke-width="2" stroke-miterlimit="10" d="M-1254.459,35.752c0,1.65-1.35,3-3,3h-10
		c-1.65,0-3-1.35-3-3v-10c0-1.65,1.35-3,3-3h10c1.65,0,3,1.35,3,3V35.752z"/>
</g>
<g>
	
		<text transform="matrix(1 0 0 1 -1242.5371 37.3692)" fill="#333333" font-family="'MicrosoftJhengHeiRegular'"  a:adobe-font-script="chineseTraditional" font-size="16.8">新北市</text>
</g>
<path fill-rule="evenodd" clip-rule="evenodd" fill="#39B54A" d="M-1249.168,24.896L-1249.168,24.896l-10.152,10.152
	c-0.24,0.24-0.571,0.388-0.936,0.388c-0.366,0-0.697-0.148-0.937-0.388l-5.738-5.738c-0.24-0.24-0.387-0.571-0.387-0.936
	c0-0.731,0.593-1.324,1.324-1.324c0.365,0,0.697,0.148,0.936,0.387l4.802,4.802l9.215-9.216c0.24-0.24,0.571-0.387,0.937-0.387
	c0.731,0,1.324,0.593,1.324,1.324C-1248.78,24.325-1248.928,24.656-1249.168,24.896"/>
<g>
	<path fill="#FFFFFF" d="M-1154.459,35.752c0,1.65-1.35,3-3,3h-10c-1.65,0-3-1.35-3-3v-10c0-1.65,1.35-3,3-3h10c1.65,0,3,1.35,3,3
		V35.752z"/>
	<path fill="none" stroke="#CCCCCC" stroke-width="2" stroke-miterlimit="10" d="M-1154.459,35.752c0,1.65-1.35,3-3,3h-10
		c-1.65,0-3-1.35-3-3v-10c0-1.65,1.35-3,3-3h10c1.65,0,3,1.35,3,3V35.752z"/>
</g>
<g>
	
		<text transform="matrix(1 0 0 1 -1142.459 37.3692)" fill="#333333" font-family="'MicrosoftJhengHeiRegular'"  a:adobe-font-script="chineseTraditional" font-size="16.8">台北市</text>
</g>
<path fill-rule="evenodd" clip-rule="evenodd" fill="#39B54A" d="M-1149.168,24.896L-1149.168,24.896l-10.152,10.152
	c-0.24,0.24-0.571,0.388-0.936,0.388c-0.366,0-0.697-0.148-0.937-0.388l-5.738-5.738c-0.24-0.24-0.387-0.571-0.387-0.936
	c0-0.731,0.593-1.324,1.324-1.324c0.365,0,0.697,0.148,0.936,0.387l4.802,4.802l9.215-9.216c0.24-0.24,0.571-0.387,0.937-0.387
	c0.731,0,1.324,0.593,1.324,1.324C-1148.78,24.325-1148.928,24.656-1149.168,24.896"/>
<g>
	<path fill="#FFFFFF" d="M-1254.459,68.552c0,1.65-1.35,3-3,3h-10c-1.65,0-3-1.35-3-3v-10c0-1.65,1.35-3,3-3h10c1.65,0,3,1.35,3,3
		V68.552z"/>
	<path fill="none" stroke="#CCCCCC" stroke-width="2" stroke-miterlimit="10" d="M-1254.459,68.552c0,1.65-1.35,3-3,3h-10
		c-1.65,0-3-1.35-3-3v-10c0-1.65,1.35-3,3-3h10c1.65,0,3,1.35,3,3V68.552z"/>
</g>
<g>
	
		<text transform="matrix(1 0 0 1 -1242.5371 70.169)" fill="#333333" font-family="'MicrosoftJhengHeiRegular'"  a:adobe-font-script="chineseTraditional" font-size="16.8">苗栗市</text>
</g>
<path fill-rule="evenodd" clip-rule="evenodd" fill="#39B54A" d="M-1249.168,57.696L-1249.168,57.696l-10.152,10.152
	c-0.24,0.24-0.571,0.388-0.936,0.388c-0.366,0-0.697-0.148-0.937-0.388l-5.738-5.738c-0.24-0.24-0.387-0.571-0.387-0.936
	c0-0.731,0.593-1.324,1.324-1.324c0.365,0,0.697,0.148,0.936,0.387l4.802,4.802l9.215-9.216c0.24-0.24,0.571-0.387,0.937-0.387
	c0.731,0,1.324,0.593,1.324,1.324C-1248.78,57.125-1248.928,57.456-1249.168,57.696"/>
<g>
	<path fill="#FFFFFF" d="M-1154.459,68.552c0,1.65-1.35,3-3,3h-10c-1.65,0-3-1.35-3-3v-10c0-1.65,1.35-3,3-3h10c1.65,0,3,1.35,3,3
		V68.552z"/>
	<path fill="none" stroke="#CCCCCC" stroke-width="2" stroke-miterlimit="10" d="M-1154.459,68.552c0,1.65-1.35,3-3,3h-10
		c-1.65,0-3-1.35-3-3v-10c0-1.65,1.35-3,3-3h10c1.65,0,3,1.35,3,3V68.552z"/>
</g>
<g>
	
		<text transform="matrix(1 0 0 1 -1142.459 70.169)" fill="#333333" font-family="'MicrosoftJhengHeiRegular'"  a:adobe-font-script="chineseTraditional" font-size="16.8">台中市</text>
</g>
<path fill-rule="evenodd" clip-rule="evenodd" fill="#39B54A" d="M-1149.168,57.696L-1149.168,57.696l-10.152,10.152
	c-0.24,0.24-0.571,0.388-0.936,0.388c-0.366,0-0.697-0.148-0.937-0.388l-5.738-5.738c-0.24-0.24-0.387-0.571-0.387-0.936
	c0-0.731,0.593-1.324,1.324-1.324c0.365,0,0.697,0.148,0.936,0.387l4.802,4.802l9.215-9.216c0.24-0.24,0.571-0.387,0.937-0.387
	c0.731,0,1.324,0.593,1.324,1.324C-1148.78,57.125-1148.928,57.456-1149.168,57.696"/>
<g>
	<path fill="#FFFFFF" d="M-1047.259,68.552c0,1.65-1.35,3-3,3h-10c-1.65,0-3-1.35-3-3v-10c0-1.65,1.35-3,3-3h10c1.65,0,3,1.35,3,3
		V68.552z"/>
	<path fill="none" stroke="#CCCCCC" stroke-width="2" stroke-miterlimit="10" d="M-1047.259,68.552c0,1.65-1.35,3-3,3h-10
		c-1.65,0-3-1.35-3-3v-10c0-1.65,1.35-3,3-3h10c1.65,0,3,1.35,3,3V68.552z"/>
</g>
<g>
	
		<text transform="matrix(1 0 0 1 -1035.2588 70.169)" fill="#333333" font-family="'MicrosoftJhengHeiRegular'"  a:adobe-font-script="chineseTraditional" font-size="16.8">雲林市</text>
</g>
<path fill-rule="evenodd" clip-rule="evenodd" fill="#39B54A" d="M-1041.968,57.696L-1041.968,57.696l-10.152,10.152
	c-0.24,0.24-0.571,0.388-0.936,0.388c-0.366,0-0.697-0.148-0.937-0.388l-5.738-5.738c-0.24-0.24-0.387-0.571-0.387-0.936
	c0-0.731,0.593-1.324,1.324-1.324c0.366,0,0.697,0.148,0.936,0.387l4.802,4.802l9.215-9.216c0.24-0.24,0.571-0.387,0.937-0.387
	c0.731,0,1.324,0.593,1.324,1.324C-1041.58,57.125-1041.729,57.456-1041.968,57.696"/>
<g>
	<path fill="#FFFFFF" d="M-1047.259,35.752c0,1.65-1.35,3-3,3h-10c-1.65,0-3-1.35-3-3v-10c0-1.65,1.35-3,3-3h10c1.65,0,3,1.35,3,3
		V35.752z"/>
	<path fill="none" stroke="#CCCCCC" stroke-width="2" stroke-miterlimit="10" d="M-1047.259,35.752c0,1.65-1.35,3-3,3h-10
		c-1.65,0-3-1.35-3-3v-10c0-1.65,1.35-3,3-3h10c1.65,0,3,1.35,3,3V35.752z"/>
</g>
<g>
	
		<text transform="matrix(1 0 0 1 -1040.1367 37.3692)" fill="#333333" font-family="'MicrosoftJhengHeiRegular'"  a:adobe-font-script="chineseTraditional" font-size="16.8">桃園市</text>
</g>
<g>
	<path fill="#FFFFFF" d="M-1354.459,68.552c0,1.65-1.35,3-3,3h-10c-1.65,0-3-1.35-3-3v-10c0-1.65,1.35-3,3-3h10c1.65,0,3,1.35,3,3
		V68.552z"/>
	<path fill="none" stroke="#CCCCCC" stroke-width="2" stroke-miterlimit="10" d="M-1354.459,68.552c0,1.65-1.35,3-3,3h-10
		c-1.65,0-3-1.35-3-3v-10c0-1.65,1.35-3,3-3h10c1.65,0,3,1.35,3,3V68.552z"/>
</g>
<g>
	
		<text transform="matrix(1 0 0 1 -1347.3369 70.169)" fill="#333333" font-family="'MicrosoftJhengHeiRegular'"  a:adobe-font-script="chineseTraditional" font-size="16.8">新竹市</text>
</g>
<g>
	<path fill="#FFFFFF" d="M-935.6,68.401c0,3.85-3.15,7-7,7h-18c-3.85,0-7-3.15-7-7v-42c0-3.85,3.15-7,7-7h18c3.85,0,7,3.15,7,7
		V68.401z"/>
	<path fill="none" stroke="#999999" stroke-width="0.5" stroke-miterlimit="10" d="M-935.6,68.401c0,3.85-3.15,7-7,7h-18
		c-3.85,0-7-3.15-7-7v-42c0-3.85,3.15-7,7-7h18c3.85,0,7,3.15,7,7V68.401z"/>
</g>
<polyline fill="none" stroke="#999999" stroke-linecap="round" stroke-miterlimit="10" points="-956.711,44.201 -951.687,50.601 
	-946.663,44.201 "/>
<text transform="matrix(1 0 0 1 -188.3572 114.6805)" fill="#FF2300" font-family="'Helvetica-Narrow-Bold'" font-size="33.6">851</text>
<text transform="matrix(1 0 0 1 -363.4155 114.6809)" fill="#0064DC" font-family="'Helvetica-Narrow-Bold'" font-size="33.6">1,385</text>
<text transform="matrix(1 0 0 1 -188.3569 177.8982)" fill="#0064DC" font-family="'Helvetica-Narrow-Bold'" font-size="20.8">75%</text>
<text transform="matrix(1 0 0 1 -188.3569 200.7609)" fill="#ED1C24" font-family="'Helvetica-Narrow-Bold'" font-size="20.8">65%</text>
<g id="android_2_" enable-background="new    ">
	<g id="android_3_">
		<g>
			<path fill="#39B54A" d="M-229.85,187.786c0,1.046,0.117,1.541,1.134,1.541h1.33c-0.044,0-0.063,0.681-0.063,0.854v3.793
				c0,0.992,1.036,1.796,2,1.796c0.964,0,2-0.805,2-1.796v-3.793c0-0.173-0.54-0.854-0.584-0.854h3.242
				c-0.044,0,0.542,0.681,0.542,0.854v3.793c0,0.992,0.636,1.796,1.6,1.796c0.964,0,1.6-0.805,1.6-1.796v-3.793
				c0-0.173-0.345-0.854-0.39-0.854h1.33c1.016,0,2.26-0.495,2.26-1.541v-13.659h-16V187.786z M-233.05,174.612
				c-0.964,0-1.6,0.804-1.6,1.796v7.685c0,0.992,0.636,1.796,1.6,1.796c0.964,0,1.6-0.805,1.6-1.796v-7.685
				C-231.45,175.416-232.086,174.612-233.05,174.612z M-211.05,174.612c-0.964,0-2,0.804-2,1.796v7.685c0,0.992,1.036,1.796,2,1.796
				c0.964,0,2-0.805,2-1.796v-7.685C-209.05,175.416-210.086,174.612-211.05,174.612z M-218.408,167.378l0.328-0.484l0.323-0.488
				l0.725-1.115c0.089-0.138,0.053-0.321-0.08-0.412c-0.134-0.092-0.315-0.054-0.404,0.084l-0.778,1.202l-0.327,0.505l-0.332,0.512
				c-1.051-0.419-2.224-0.655-3.461-0.655c-1.237,0-2.41,0.235-3.46,0.654l-0.331-0.512l-0.327-0.505l-0.779-1.201
				c-0.089-0.138-0.27-0.175-0.404-0.083c-0.133,0.092-0.17,0.277-0.08,0.415l0.725,1.12l0.323,0.499l0.328,0.463
				c-2.469,1.184-4.14,3.549-4.14,5.949h16.29C-214.269,170.927-215.939,168.562-218.408,167.378z M-225.904,171.019
				c-0.482,0-0.873-0.403-0.873-0.898s0.39-0.897,0.873-0.897c0.482,0,0.873,0.402,0.873,0.897S-225.422,171.019-225.904,171.019z
				 M-218.923,171.019c-0.482,0-0.872-0.403-0.872-0.898s0.39-0.897,0.872-0.897c0.482,0,0.873,0.402,0.873,0.897
				C-218.051,170.617-218.441,171.019-218.923,171.019z"/>
		</g>
	</g>
</g>
<g id="apple_2_" enable-background="new    ">
	<g id="apple_3_">
		<g>
			<path fill="#CCCCCC" d="M-389.494,173.195c1.097-1.238,1.838-2.959,1.636-4.672c-1.581,0.059-3.496,0.978-4.631,2.215
				c-1.017,1.098-1.906,2.846-1.669,4.528C-392.393,175.395-390.593,174.432-389.494,173.195z M-385.536,184.072
				c-0.04-3.707,3.247-5.484,3.395-5.574c-1.847-2.514-4.725-2.859-5.749-2.898c-2.448-0.231-4.777,1.342-6.02,1.342
				c-1.239,0-3.157-1.308-5.187-1.274c-2.67,0.037-5.13,1.445-6.504,3.67c-2.773,4.477-0.709,11.112,1.993,14.745
				c1.321,1.776,2.896,3.775,4.962,3.701c1.992-0.073,2.744-1.199,5.151-1.199c2.408,0,3.084,1.199,5.19,1.162
				c2.142-0.036,3.499-1.81,4.81-3.593c1.517-2.063,2.141-4.062,2.178-4.163C-381.365,189.97-385.493,188.498-385.536,184.072z"/>
		</g>
	</g>
</g>
<text transform="matrix(1 0 0 1 -363.4155 181.5905)" fill="#0064DC" font-family="'Helvetica-Narrow-Bold'" font-size="20.8">25%</text>
<text transform="matrix(1 0 0 1 -363.4148 204.4534)" fill="#ED1C24" font-family="'Helvetica-Narrow-Bold'" font-size="20.8">35%</text>
<text transform="matrix(1 0 0 1 -138.5067 177.8982)" fill="#0064DC" font-family="'Helvetica-Narrow-Bold'" font-size="20.8">1220</text>
<text transform="matrix(1 0 0 1 -138.5067 200.7609)" fill="#ED1C24" font-family="'Helvetica-Narrow-Bold'" font-size="20.8">715</text>
<text transform="matrix(1 0 0 1 -314.3657 181.5905)" fill="#0064DC" font-family="'Helvetica-Narrow-Bold'" font-size="20.8">165</text>
<text transform="matrix(1 0 0 1 -314.3657 204.4534)" fill="#ED1C24" font-family="'Helvetica-Narrow-Bold'" font-size="20.8">136</text>
<rect x="-506.25" y="251.327" fill="none" stroke="#B3B3B3" stroke-miterlimit="10" width="80" height="24"/>
<text transform="matrix(1 0 0 1 -495.4283 268.7835)" fill="#333333" font-family="'MicrosoftJhengHeiRegular'"  a:adobe-font-script="chineseTraditional" font-size="12.8">年齡分布</text>
<text transform="matrix(1 0 0 1 -508.4928 47.5227)" fill="#333333" font-family="'MicrosoftJhengHeiRegular'"  a:adobe-font-script="chineseTraditional" font-size="16.8">本月會員</text>
<g>
	<g>
		<g>
			<g>
				<path fill-rule="evenodd" clip-rule="evenodd" fill="#E6E6E6" stroke="#FFFFFF" stroke-miterlimit="10" d="M-302.974,348.767
					l-7.416-38.152c2.529-0.491,4.84-0.714,7.416-0.714V348.767z"/>
			</g>
		</g>
		<g>
			<g>
				<path fill-rule="evenodd" clip-rule="evenodd" fill="#ED1C7C" d="M-302.974,348.767h-38.866
					c0-18.889,12.908-34.548,31.45-38.152L-302.974,348.767z"/>
			</g>
		</g>
		<g>
			<g>
				<path fill-rule="evenodd" clip-rule="evenodd" fill="#00B6E7" stroke="#FFFFFF" stroke-miterlimit="10" d="M-302.974,348.767
					l22.845,31.443c-17.366,12.617-41.671,8.767-54.288-8.598c-5.047-6.946-7.423-14.259-7.423-22.845H-302.974z"/>
			</g>
		</g>
		<g>
			<g>
				<path fill="#FCE650" stroke="#FFFFFF" stroke-miterlimit="10" d="M-302.974,348.767v-38.866
					c21.465,0,38.866,17.401,38.866,38.866c0,12.879-5.602,23.873-16.021,31.443L-302.974,348.767z"/>
			</g>
		</g>
	</g>
	<g>
		<g>
		</g>
		<g>
		</g>
		<g>
		</g>
		<g>
		</g>
	</g>
</g>
<g>
	<g>
		<g>
			<g>
				<path fill-rule="evenodd" clip-rule="evenodd" fill="#E6E6E6" stroke="#FFFFFF" stroke-miterlimit="10" d="M-156.227,348.767
					l-10.059-37.542c3.317-0.889,6.625-1.324,10.059-1.324V348.767z"/>
			</g>
		</g>
		<g>
			<g>
				<path fill-rule="evenodd" clip-rule="evenodd" fill="#ED1C7C" d="M-156.227,348.767l-38.813-2.034
					c0.899-17.149,12.167-31.063,28.754-35.508L-156.227,348.767z"/>
			</g>
		</g>
		<g>
			<g>
				<path fill-rule="evenodd" clip-rule="evenodd" fill="#00B6E7" stroke="#FFFFFF" stroke-miterlimit="10" d="M-156.227,348.767
					l36.964,12.01c-6.633,20.415-28.56,31.587-48.974,24.954c-17.148-5.572-27.746-20.992-26.803-38.998L-156.227,348.767z"/>
			</g>
		</g>
		<g>
			<g>
				<path fill="#FCE650" stroke="#FFFFFF" stroke-miterlimit="10" d="M-156.227,348.767v-38.866
					c21.465,0,38.866,17.401,38.866,38.866c0,4.293-0.576,7.927-1.902,12.01L-156.227,348.767z"/>
			</g>
		</g>
	</g>
	<g>
		<g>
		</g>
		<g>
		</g>
		<g>
		</g>
		<g>
		</g>
	</g>
</g>
<g>
	<g>
		<g>
			<g>
				<path fill="#E6E6E6" stroke="#FFFFFF" stroke-miterlimit="10" d="M-449.303,346.439l-2.711-38.771
					c0.857-0.06,1.853-0.095,2.711-0.095V346.439z"/>
			</g>
		</g>
		<g>
			<g>
				<path fill="#ED1C7C" stroke="#FFFFFF" stroke-miterlimit="10" d="M-449.303,346.439l-37.712-9.403
					c4.154-16.662,17.87-28.171,35-29.369L-449.303,346.439z"/>
			</g>
		</g>
		<g>
			<g>
				<path fill="#00B6E7" stroke="#FFFFFF" stroke-miterlimit="10" d="M-449.303,346.439l24.983,29.773
					c-16.443,13.798-40.958,11.653-54.756-4.79c-8.279-9.866-11.054-21.889-7.938-34.385L-449.303,346.439z"/>
			</g>
		</g>
		<g>
			<g>
				<path fill="#FCE650" stroke="#FFFFFF" stroke-miterlimit="10" d="M-449.303,346.439v-38.866
					c21.465,0,38.866,17.401,38.866,38.866c0,12.02-4.675,22.047-13.883,29.773L-449.303,346.439z"/>
			</g>
		</g>
	</g>
	<g>
		<g>
		</g>
		<g>
		</g>
		<g>
		</g>
		<g>
		</g>
	</g>
</g>
<g>
	
		<text transform="matrix(1 0 0 1 -387.8873 266.7249)" fill="#333333" font-family="'MicrosoftJhengHeiBold'"  a:adobe-font-script="chineseTraditional" font-size="12.8">0-20</text>
</g>
<rect x="-406.65" y="256.527" fill="#FCE650" width="12.8" height="12.8"/>
<rect x="-341.85" y="256.527" fill="#00B6E7" width="12.8" height="12.8"/>
<rect x="-269.05" y="256.527" fill="#ED1C7C" width="12.8" height="12.8"/>
<rect x="-198.65" y="256.527" fill="#CCCCCC" width="12.8" height="12.8"/>
<g>
	<path fill="#0064DC" d="M-393.952,93.083c2.019-0.041,3.66-1.698,3.66-3.736c0-2.038-1.641-3.694-3.66-3.736
		c-2.019,0.041-3.66,1.698-3.66,3.736C-397.612,91.385-395.97,93.041-393.952,93.083z"/>
	<path fill="#0064DC" d="M-387.123,94.579l-6.712-0.776l-6.803,0.776c-0.512,0-1.212,0.38-1.212,0.893v10.871
		c0,0.512,0.146,0.585,0.658,0.585h0.466c0.512,0,1.276-0.073,1.276-0.585V98.5c0-0.512,0.237-0.544,0.387-0.544
		s0.413,0.031,0.413,0.544v24.614c0,0.512,0.619,0.614,1.131,0.614h0.854c0.512,0,1.215-0.101,1.215-0.614v-11.298
		c0-0.512,0.136-0.889,0.649-0.889h0.815h0.815c0.512,0,0.921,0.376,0.921,0.889v11.298c0,0.512,0.431,0.614,0.943,0.614h0.854
		c0.512,0,1.403-0.101,1.403-0.614V98.5c0-0.512,0.251-0.544,0.4-0.544s0.4,0.031,0.4,0.544v7.842c0,0.512,0.196,0.585,0.708,0.585
		h0.525c0.512,0,1.167-0.073,1.167-0.585V95.472C-385.85,94.959-386.61,94.579-387.123,94.579z"/>
</g>
<g>
	<path fill="#FF2300" d="M-215.468,94.58l-6.679-0.776l-6.763,0.776c-0.512,0-0.939,0.38-0.939,0.893v10.871
		c0,0.512,0.511,0.584,1.023,0.584h0.621c0.512,0,0.755-0.071,0.755-0.584v-7.842c0-0.512,0.23-0.544,0.379-0.544
		s0.227,0.056,0.326,0.544l1.05,5.793l-3.541,9.833h2.586v8.988c0,0.512,0.339,0.612,0.852,0.612h0.854
		c0.512,0,0.694-0.1,0.694-0.612v-8.988h2.14h1.86v8.988c0,0.512,0.461,0.612,0.974,0.612h0.854c0.512,0,0.572-0.1,0.572-0.612
		v-8.988h2.866l-3.568-9.833l1.023-5.895c0.099-0.488,0.09-0.493,0.24-0.493c0.149,0,0.24,0.082,0.24,0.595v7.842
		c0,0.512,0.523,0.584,1.035,0.584h0.621c0.512,0,0.744-0.071,0.744-0.584V95.473C-214.65,94.961-214.956,94.58-215.468,94.58z"/>
	<path fill="#FF2300" d="M-222.227,93.086c0.026,0,0.039-0.001,0.116-0.002c0.078,0.001,0.09,0.002,0.116,0.002
		c2.064,0,3.738-1.674,3.738-3.738c0-2.064-1.674-3.738-3.738-3.738c-0.026,0-0.039,0.001-0.116,0.002
		c-0.078-0.001-0.09-0.002-0.116-0.002c-2.064,0-3.738,1.674-3.738,3.738C-225.965,91.413-224.291,93.086-222.227,93.086z"/>
</g>
<rect x="-844.65" y="20.927" fill="#F2F2F2" stroke="#CCCCCC" stroke-miterlimit="10" width="301.6" height="35.2"/>
<rect x="-844.65" y="56.127" fill="#FFFFFF" stroke="#CCCCCC" stroke-miterlimit="10" width="301.6" height="54.4"/>
<rect x="-844.65" y="110.527" fill="#FFFFFF" stroke="#CCCCCC" stroke-miterlimit="10" width="301.6" height="51.2"/>
<rect x="-844.65" y="161.727" fill="#FFFFFF" stroke="#CCCCCC" stroke-miterlimit="10" width="301.6" height="52.8"/>
<rect x="-844.65" y="214.527" fill="#FFFFFF" stroke="#CCCCCC" stroke-miterlimit="10" width="301.6" height="52.8"/>
<rect x="-844.65" y="267.327" fill="#FFFFFF" stroke="#CCCCCC" stroke-miterlimit="10" width="301.6" height="52.8"/>
<rect x="-844.65" y="320.127" fill="#FFFFFF" stroke="#CCCCCC" stroke-miterlimit="10" width="301.6" height="52.8"/>
<rect x="-844.65" y="372.927" fill="#FFFFFF" stroke="#CCCCCC" stroke-miterlimit="10" width="301.6" height="52.8"/>
<text transform="matrix(1 0 0 1 -786.3239 81.7464)"><tspan x="0" y="0" font-family="'MicrosoftJhengHeiRegular'"  a:adobe-font-script="chineseTraditional" font-size="14.4">中華電信</tspan><tspan x="0" y="52.8" font-family="'MicrosoftJhengHeiRegular'"  a:adobe-font-script="chineseTraditional" font-size="14.4">台灣大</tspan><tspan x="0" y="105.6" font-family="'MicrosoftJhengHeiRegular'"  a:adobe-font-script="chineseTraditional" font-size="14.4">亞太電信</tspan><tspan x="0" y="158.4" font-family="'MicrosoftJhengHeiRegular'"  a:adobe-font-script="chineseTraditional" font-size="14.4">威寶電信</tspan><tspan x="0" y="211.2" font-family="'MicrosoftJhengHeiRegular'"  a:adobe-font-script="chineseTraditional" font-size="14.4">遠傳電信</tspan><tspan x="0" y="264" font-family="'MicrosoftJhengHeiRegular'"  a:adobe-font-script="chineseTraditional" font-size="14.4">大眾電信</tspan><tspan x="0" y="316.8" font-family="'MicrosoftJhengHeiRegular'"  a:adobe-font-script="chineseTraditional" font-size="14.4">其他業者</tspan></text>
<text transform="matrix(1 0 0 1 -800.6053 44.7395)" fill="#333333" font-family="'MicrosoftJhengHeiBold'"  a:adobe-font-script="chineseTraditional" font-size="14.4">電信系統商</text>
<text transform="matrix(1 0 0 1 -620.6941 44.7395)" fill="#0064DC" font-family="'MicrosoftJhengHeiBold'"  a:adobe-font-script="chineseTraditional" font-size="14.4">男</text>
<text transform="matrix(1 0 0 1 -577.4939 44.7395)" fill="#FF2300" font-family="'MicrosoftJhengHeiBold'"  a:adobe-font-script="chineseTraditional" font-size="14.4">女</text>
<text transform="matrix(1 0 0 1 -250.8161 266.7248)" fill="#333333" font-family="'MicrosoftJhengHeiBold'"  a:adobe-font-script="chineseTraditional" font-size="12.8">41-60</text>
<line fill="none" stroke="#CCCCCC" stroke-miterlimit="10" x1="-506.65" y1="145.727" x2="-76.25" y2="145.727"/>
<line fill="none" stroke="#CCCCCC" stroke-miterlimit="10" x1="-506.65" y1="225.727" x2="-76.25" y2="225.727"/>
<line fill="none" stroke="#CCCCCC" stroke-miterlimit="10" x1="-506.65" y1="65.727" x2="-76.25" y2="65.727"/>
<text transform="matrix(1 0 0 1 -508.4928 92.2805)" fill="#333333" font-family="'MicrosoftJhengHeiRegular'"  a:adobe-font-script="chineseTraditional" font-size="16.8">性 別</text>
<text transform="matrix(1 0 0 1 -287.4499 47.5227)" fill="#998675" font-family="'MicrosoftJhengHeiRegular'"  a:adobe-font-script="chineseTraditional" font-size="14.4">(新增)</text>
<text transform="matrix(1 0 0 1 -508.4928 172.9211)" fill="#333333" font-family="'MicrosoftJhengHeiRegular'"  a:adobe-font-script="chineseTraditional" font-size="16.8">手機系統</text>
<text transform="matrix(1 0 0 1 -467.9323 411.4007)" fill="#333333" font-family="'MicrosoftJhengHeiRegular'"  a:adobe-font-script="chineseTraditional" font-size="16.8">所 有</text>
<text transform="matrix(1 0 0 1 -323.1501 411.4007)" fill="#333333" font-family="'MicrosoftJhengHeiRegular'"  a:adobe-font-script="chineseTraditional" font-size="16.8">男 性</text>
<text transform="matrix(1 0 0 1 -175.1325 411.4007)" fill="#333333" font-family="'MicrosoftJhengHeiRegular'"  a:adobe-font-script="chineseTraditional" font-size="16.8">女 性</text>
<text transform="matrix(1 0 0 1 -178.8162 266.7249)" fill="#333333" font-family="'MicrosoftJhengHeiBold'"  a:adobe-font-script="chineseTraditional" font-size="12.8">61-80</text>
<text transform="matrix(1 0 0 1 -323.8875 266.7239)" fill="#333333" font-family="'MicrosoftJhengHeiBold'"  a:adobe-font-script="chineseTraditional" font-size="12.8">21-40</text>
<text transform="matrix(1 0 0 1 -135.8676 343.3274)" fill="#333333" font-family="'Helvetica-Narrow-Bold'" font-size="14.4">30%</text>
<text transform="matrix(1 0 0 1 -168.0484 379.2356)" fill="#333333" font-family="'Helvetica-Narrow-Bold'" font-size="14.4">46%</text>
<text transform="matrix(1 0 0 1 -196.8482 338.1273)" fill="#333333" font-family="'Helvetica-Narrow-Bold'" font-size="14.4">20%</text>
<text transform="matrix(1 0 0 1 -170.364 310.049)" fill="#333333" font-family="'Helvetica-Narrow-Bold'" font-size="14.4">4%</text>
<text transform="matrix(1 0 0 1 -281.4852 343.3274)" fill="#333333" font-family="'Helvetica-Narrow-Bold'" font-size="14.4">40%</text>
<text transform="matrix(1 0 0 1 -313.6664 379.2356)" fill="#333333" font-family="'Helvetica-Narrow-Bold'" font-size="14.4">35%</text>
<text transform="matrix(1 0 0 1 -341.6664 334.1273)" fill="#333333" font-family="'Helvetica-Narrow-Bold'" font-size="14.4">22%</text>
<text transform="matrix(1 0 0 1 -315.982 310.049)" fill="#333333" font-family="'Helvetica-Narrow-Bold'" font-size="14.4">3%</text>
<text transform="matrix(0.9887 0 0 1 -426.6285 343.3275)" fill="#333333" font-family="'Helvetica-Narrow-Bold'" font-size="14.4">39%</text>
<text transform="matrix(1 0 0 1 -458.0084 379.2356)" fill="#333333" font-family="'Helvetica-Narrow-Bold'" font-size="14.4">40%</text>
<text transform="matrix(1 0 0 1 -483.6089 326.1281)" fill="#333333" font-family="'Helvetica-Narrow-Bold'" font-size="14.4">20%</text>
<text transform="matrix(1 0 0 1 -460.3247 310.049)" fill="#333333" font-family="'Helvetica-Narrow-Bold'" font-size="14.4">1%</text>
<g>
	<path fill="#0064DC" d="M-629.959,34.335c0.847-0.017,1.536-0.713,1.536-1.568s-0.689-1.551-1.536-1.568
		c-0.847,0.017-1.536,0.713-1.536,1.568S-630.806,34.318-629.959,34.335z"/>
	<path fill="#0064DC" d="M-627.138,34.963l-2.794-0.326l-2.732,0.326c-0.215,0-0.385,0.16-0.385,0.375v4.563
		c0,0.215-0.163,0.626,0.052,0.626h0.196c0.215,0,0.552-0.411,0.552-0.626v-3.292c0-0.215-0.068-0.228-0.006-0.228
		s0.006,0.013,0.006,0.228v10.332c0,0.215,0.579-0.014,0.794-0.014h0.359c0.215,0,0.448,0.229,0.448,0.014v-4.742
		c0-0.215,0.12-0.072,0.335-0.072h0.342h0.342c0.215,0,0.581-0.143,0.581,0.072v4.742c0,0.215-0.014-0.014,0.201-0.014h0.359
		c0.215,0,0.24,0.229,0.24,0.014V36.609c0-0.215,0.337-0.228,0.4-0.228s0.4,0.013,0.4,0.228v3.292c0,0.215-0.033,0.626,0.182,0.626
		h0.22c0.215,0,0.398-0.411,0.398-0.626v-4.563C-626.65,35.123-626.923,34.963-627.138,34.963z"/>
</g>
<g>
	<path fill="#FF2300" d="M-583.654,34.964l-2.734-0.326l-2.953,0.326c-0.215,0-0.509,0.16-0.509,0.375v4.563
		c0,0.215,0.512,0.625,0.727,0.625h0.261c0.215,0,0.612-0.41,0.612-0.625V36.61c0-0.215-0.051-0.228,0.012-0.228
		s0.021,0.023,0.063,0.228l0.404,2.311l-1.523,4.007h1.044v4.015c0,0.215,0.183-0.015,0.399-0.015h0.359
		c0.215,0,0.043,0.23,0.043,0.015v-4.015h1.147h0.453v4.015c0,0.215,0.521-0.015,0.736-0.015h0.359c0.215,0,0.505,0.23,0.505,0.015
		v-4.015h0.938l-1.498-4.007l0.43-2.414c0.042-0.205,0.002-0.177,0.065-0.177s0.065,0.065,0.065,0.28v3.292
		c0,0.215,0.29,0.625,0.505,0.625h0.261c0.215,0,0.034-0.41,0.034-0.625v-4.563C-583.45,35.124-583.439,34.964-583.654,34.964z"/>
	<path fill="#FF2300" d="M-586.352,34.337c0.011,0,0.016-0.001,0.049-0.001c0.033,0,0.038,0.001,0.049,0.001
		c0.867,0,1.569-0.702,1.569-1.569c0-0.867-0.703-1.569-1.569-1.569c-0.011,0-0.016,0.001-0.049,0.001
		c-0.033,0-0.038-0.001-0.049-0.001c-0.867,0-1.569,0.702-1.569,1.569C-587.921,33.634-587.219,34.337-586.352,34.337z"/>
</g>
<text transform="matrix(1 0 0 1 -400.2506 46.989)"><tspan x="0" y="0" fill="#333333" font-family="'MicrosoftJhengHeiRegular'"  a:adobe-font-script="chineseTraditional" font-size="28.8">2,236</tspan><tspan x="73.406" y="0" fill="#333333" font-family="'MicrosoftJhengHeiRegular'"  a:adobe-font-script="chineseTraditional" font-size="33.6"> </tspan><tspan x="81.807" y="0" fill="#333333" font-family="'MicrosoftJhengHeiRegular'"  a:adobe-font-script="chineseTraditional" font-size="16.8">人</tspan></text>
<g>
	<path fill="#F2F2F2" d="M-798.25,95.127c0,2.75-2.25,5-5,5h-23.6c-2.75,0-5-2.25-5-5v-23.6c0-2.75,2.25-5,5-5h23.6
		c2.75,0,5,2.25,5,5V95.127z"/>
	<path fill="none" stroke="#E6E6E6" stroke-miterlimit="10" d="M-798.25,95.127c0,2.75-2.25,5-5,5h-23.6c-2.75,0-5-2.25-5-5v-23.6
		c0-2.75,2.25-5,5-5h23.6c2.75,0,5,2.25,5,5V95.127z"/>
</g>
<g>
	<path fill="#F2F2F2" d="M-798.25,147.927c0,2.75-2.25,5-5,5h-23.6c-2.75,0-5-2.25-5-5v-23.6c0-2.75,2.25-5,5-5h23.6
		c2.75,0,5,2.25,5,5V147.927z"/>
	<path fill="none" stroke="#E6E6E6" stroke-miterlimit="10" d="M-798.25,147.927c0,2.75-2.25,5-5,5h-23.6c-2.75,0-5-2.25-5-5v-23.6
		c0-2.75,2.25-5,5-5h23.6c2.75,0,5,2.25,5,5V147.927z"/>
</g>
<g>
	<path fill="#F2F2F2" d="M-798.25,199.927c0,2.75-2.25,5-5,5h-23.6c-2.75,0-5-2.25-5-5v-23.6c0-2.75,2.25-5,5-5h23.6
		c2.75,0,5,2.25,5,5V199.927z"/>
	<path fill="none" stroke="#E6E6E6" stroke-miterlimit="10" d="M-798.25,199.927c0,2.75-2.25,5-5,5h-23.6c-2.75,0-5-2.25-5-5v-23.6
		c0-2.75,2.25-5,5-5h23.6c2.75,0,5,2.25,5,5V199.927z"/>
</g>
<g>
	<path fill="#F2F2F2" d="M-798.25,252.727c0,2.75-2.25,5-5,5h-23.6c-2.75,0-5-2.25-5-5v-23.6c0-2.75,2.25-5,5-5h23.6
		c2.75,0,5,2.25,5,5V252.727z"/>
	<path fill="none" stroke="#E6E6E6" stroke-miterlimit="10" d="M-798.25,252.727c0,2.75-2.25,5-5,5h-23.6c-2.75,0-5-2.25-5-5v-23.6
		c0-2.75,2.25-5,5-5h23.6c2.75,0,5,2.25,5,5V252.727z"/>
</g>
<g>
	<path fill="#F2F2F2" d="M-798.25,305.261c0,2.75-2.25,5-5,5h-23.6c-2.75,0-5-2.25-5-5v-23.6c0-2.75,2.25-5,5-5h23.6
		c2.75,0,5,2.25,5,5V305.261z"/>
	<path fill="none" stroke="#E6E6E6" stroke-miterlimit="10" d="M-798.25,305.261c0,2.75-2.25,5-5,5h-23.6c-2.75,0-5-2.25-5-5v-23.6
		c0-2.75,2.25-5,5-5h23.6c2.75,0,5,2.25,5,5V305.261z"/>
</g>
<g>
	<path fill="#F2F2F2" d="M-798.25,357.794c0,2.75-2.25,5-5,5h-23.6c-2.75,0-5-2.25-5-5v-23.6c0-2.75,2.25-5,5-5h23.6
		c2.75,0,5,2.25,5,5V357.794z"/>
	<path fill="none" stroke="#E6E6E6" stroke-miterlimit="10" d="M-798.25,357.794c0,2.75-2.25,5-5,5h-23.6c-2.75,0-5-2.25-5-5v-23.6
		c0-2.75,2.25-5,5-5h23.6c2.75,0,5,2.25,5,5V357.794z"/>
</g>
<g>
	<path fill="#F2F2F2" d="M-798.25,410.327c0,2.75-2.25,5-5,5h-23.6c-2.75,0-5-2.25-5-5v-23.6c0-2.75,2.25-5,5-5h23.6
		c2.75,0,5,2.25,5,5V410.327z"/>
	<path fill="none" stroke="#E6E6E6" stroke-miterlimit="10" d="M-798.25,410.327c0,2.75-2.25,5-5,5h-23.6c-2.75,0-5-2.25-5-5v-23.6
		c0-2.75,2.25-5,5-5h23.6c2.75,0,5,2.25,5,5V410.327z"/>
</g>
<text transform="matrix(1 0 0 1 -595.5857 80.1272)"><tspan x="0" y="0" fill="#0064DC" font-family="'MicrosoftJhengHeiBold'"  a:adobe-font-script="chineseTraditional" font-size="14.4">31%</tspan><tspan x="0" y="52.24" fill="#0064DC" font-family="'MicrosoftJhengHeiBold'"  a:adobe-font-script="chineseTraditional" font-size="14.4">26%</tspan><tspan x="0" y="104.48" fill="#0064DC" font-family="'MicrosoftJhengHeiBold'"  a:adobe-font-script="chineseTraditional" font-size="14.4">20%</tspan><tspan x="0" y="156.72" fill="#0064DC" font-family="'MicrosoftJhengHeiBold'"  a:adobe-font-script="chineseTraditional" font-size="14.4">15%</tspan><tspan x="0" y="208.96" fill="#0064DC" font-family="'MicrosoftJhengHeiBold'"  a:adobe-font-script="chineseTraditional" font-size="14.4">10%</tspan><tspan x="8.578" y="261.2" fill="#0064DC" font-family="'MicrosoftJhengHeiBold'"  a:adobe-font-script="chineseTraditional" font-size="14.4">3%</tspan><tspan x="8.578" y="313.44" fill="#0064DC" font-family="'MicrosoftJhengHeiBold'"  a:adobe-font-script="chineseTraditional" font-size="14.4">0%</tspan></text>
<text transform="matrix(1 0 0 1 -595.5857 99.9645)"><tspan x="0" y="0" fill="#FF2300" font-family="'MicrosoftJhengHeiBold'"  a:adobe-font-script="chineseTraditional" font-size="14.4">29%</tspan><tspan x="0" y="52.24" fill="#FF2300" font-family="'MicrosoftJhengHeiBold'"  a:adobe-font-script="chineseTraditional" font-size="14.4">24%</tspan><tspan x="0" y="104.48" fill="#FF2300" font-family="'MicrosoftJhengHeiBold'"  a:adobe-font-script="chineseTraditional" font-size="14.4">18%</tspan><tspan x="0" y="156.72" fill="#FF2300" font-family="'MicrosoftJhengHeiBold'"  a:adobe-font-script="chineseTraditional" font-size="14.4">12%</tspan><tspan x="0" y="208.96" fill="#FF2300" font-family="'MicrosoftJhengHeiBold'"  a:adobe-font-script="chineseTraditional" font-size="14.4">20%</tspan><tspan x="8.578" y="261.2" fill="#FF2300" font-family="'MicrosoftJhengHeiBold'"  a:adobe-font-script="chineseTraditional" font-size="14.4">1%</tspan><tspan x="8.578" y="313.44" fill="#FF2300" font-family="'MicrosoftJhengHeiBold'"  a:adobe-font-script="chineseTraditional" font-size="14.4">0%</tspan></text>
<text transform="matrix(1 0 0 1 -667.1697 80.1272)"><tspan x="0" y="0" fill="#0064DC" font-family="'MicrosoftJhengHeiBold'"  a:adobe-font-script="chineseTraditional" font-size="14.4">264</tspan><tspan x="8.578" y="52.24" fill="#0064DC" font-family="'MicrosoftJhengHeiBold'"  a:adobe-font-script="chineseTraditional" font-size="14.4">86</tspan><tspan x="8.578" y="104.48" fill="#0064DC" font-family="'MicrosoftJhengHeiBold'"  a:adobe-font-script="chineseTraditional" font-size="14.4">24</tspan><tspan x="8.578" y="156.72" fill="#0064DC" font-family="'MicrosoftJhengHeiBold'"  a:adobe-font-script="chineseTraditional" font-size="14.4">17</tspan><tspan x="0" y="208.96" fill="#0064DC" font-family="'MicrosoftJhengHeiBold'"  a:adobe-font-script="chineseTraditional" font-size="14.4">165</tspan><tspan x="8.578" y="261.2" fill="#0064DC" font-family="'MicrosoftJhengHeiBold'"  a:adobe-font-script="chineseTraditional" font-size="14.4">16</tspan><tspan x="17.156" y="313.44" fill="#0064DC" font-family="'MicrosoftJhengHeiBold'"  a:adobe-font-script="chineseTraditional" font-size="14.4">0</tspan></text>
<text transform="matrix(1 0 0 1 -785.524 101.7272)"><tspan x="0" y="0" fill="#42210B" font-family="'MicrosoftJhengHeiRegular'"  a:adobe-font-script="chineseTraditional" font-size="14.4">391</tspan><tspan x="0" y="52.24" fill="#42210B" font-family="'MicrosoftJhengHeiRegular'"  a:adobe-font-script="chineseTraditional" font-size="14.4">154</tspan><tspan x="0" y="104.48" fill="#42210B" font-family="'MicrosoftJhengHeiRegular'"  a:adobe-font-script="chineseTraditional" font-size="14.4">54</tspan><tspan x="0" y="156.72" fill="#42210B" font-family="'MicrosoftJhengHeiRegular'"  a:adobe-font-script="chineseTraditional" font-size="14.4">46</tspan><tspan x="0" y="208.96" fill="#42210B" font-family="'MicrosoftJhengHeiRegular'"  a:adobe-font-script="chineseTraditional" font-size="14.4">282</tspan><tspan x="0" y="261.2" fill="#42210B" font-family="'MicrosoftJhengHeiRegular'"  a:adobe-font-script="chineseTraditional" font-size="14.4">27</tspan><tspan x="0" y="313.44" fill="#42210B" font-family="'MicrosoftJhengHeiRegular'"  a:adobe-font-script="chineseTraditional" font-size="14.4">0</tspan></text>
<text transform="matrix(1 0 0 1 -667.1697 99.9645)"><tspan x="0" y="0" fill="#FF2300" font-family="'MicrosoftJhengHeiBold'"  a:adobe-font-script="chineseTraditional" font-size="14.4">127</tspan><tspan x="8.578" y="52.24" fill="#FF2300" font-family="'MicrosoftJhengHeiBold'"  a:adobe-font-script="chineseTraditional" font-size="14.4">68</tspan><tspan x="8.578" y="104.48" fill="#FF2300" font-family="'MicrosoftJhengHeiBold'"  a:adobe-font-script="chineseTraditional" font-size="14.4">30</tspan><tspan x="8.578" y="156.72" fill="#FF2300" font-family="'MicrosoftJhengHeiBold'"  a:adobe-font-script="chineseTraditional" font-size="14.4">29</tspan><tspan x="0" y="208.96" fill="#FF2300" font-family="'MicrosoftJhengHeiBold'"  a:adobe-font-script="chineseTraditional" font-size="14.4">117</tspan><tspan x="8.578" y="261.2" fill="#FF2300" font-family="'MicrosoftJhengHeiBold'"  a:adobe-font-script="chineseTraditional" font-size="14.4">11</tspan><tspan x="17.156" y="313.44" fill="#FF2300" font-family="'MicrosoftJhengHeiBold'"  a:adobe-font-script="chineseTraditional" font-size="14.4">0</tspan></text>
<path fill-rule="evenodd" clip-rule="evenodd" fill="#4D4D4D" d="M-812.561,45.242c-0.698,0-1.263-0.565-1.263-1.263V30.505
	c0-0.698,0.565-1.263,1.263-1.263c0.698,0,1.263,0.565,1.263,1.263v13.474C-811.298,44.677-811.863,45.242-812.561,45.242
	 M-817.614,45.242c-0.698,0-1.263-0.565-1.263-1.263V33.874c0-0.698,0.565-1.263,1.263-1.263c0.698,0,1.263,0.565,1.263,1.263
	v10.105C-816.35,44.677-816.916,45.242-817.614,45.242 M-822.666,45.242c-0.698,0-1.263-0.565-1.263-1.263v-6.737
	c0-0.698,0.565-1.263,1.263-1.263s1.263,0.565,1.263,1.263v6.737C-821.403,44.677-821.969,45.242-822.666,45.242 M-827.719,45.242
	c-0.698,0-1.263-0.565-1.263-1.263v-3.368c0-0.698,0.565-1.263,1.263-1.263s1.263,0.565,1.263,1.263v3.368
	C-826.456,44.677-827.021,45.242-827.719,45.242"/>
<text transform="matrix(1 0 0 1 -828.3267 86.6022)" fill="#B3B3B3" font-family="'ArialMT'" font-size="12.8">Logo</text>
<text transform="matrix(1 0 0 1 -828.3267 138.5271)" fill="#B3B3B3" font-family="'ArialMT'" font-size="12.8">Logo</text>
<text transform="matrix(1 0 0 1 -828.3267 190.9271)" fill="#B3B3B3" font-family="'ArialMT'" font-size="12.8">Logo</text>
<text transform="matrix(1 0 0 1 -828.3267 243.3275)" fill="#B3B3B3" font-family="'ArialMT'" font-size="12.8">Logo</text>
<text transform="matrix(1 0 0 1 -828.3267 296.927)" fill="#B3B3B3" font-family="'ArialMT'" font-size="12.8">Logo</text>
<text transform="matrix(1 0 0 1 -828.3267 349.7278)" fill="#B3B3B3" font-family="'ArialMT'" font-size="12.8">Logo</text>
<text transform="matrix(1 0 0 1 -828.3267 401.6253)" fill="#B3B3B3" font-family="'ArialMT'" font-size="12.8">Logo</text>
<text transform="matrix(1 0 0 1 36.3438 47.4399)" fill="#333333" font-family="'MicrosoftJhengHeiBold'"  a:adobe-font-script="chineseTraditional" font-size="14.4">請選取時間</text>
<text transform="matrix(1 0 0 1 261.1338 145.5859)" fill="#464E55" font-family="'Helvetica-Narrow-Bold'" font-size="20.8">2,657</text>
<text transform="matrix(1 0 0 1 346.6427 145.5859)" fill="#464E55" font-family="'Helvetica-Narrow-Bold'" font-size="20.8">1,864</text>
<rect x="39.169" y="118.026" fill="#FFFFFF" stroke="#CCCCCC" stroke-miterlimit="10" width="160" height="40"/>
<text transform="matrix(0.9877 0 0 1 69.3887 144.8189)" fill="#4D4D4D" font-family="'MicrosoftJhengHeiBold'"  a:adobe-font-script="chineseTraditional" font-size="16.8">會員開機頻率</text>
<g>
	<path fill="#C7B299" d="M468.677,145.826c0,2.75-2.25,5-5,5h-22c-2.75,0-5-2.25-5-5v-15.6c0-2.75,2.25-5,5-5h22c2.75,0,5,2.25,5,5
		V145.826z"/>
</g>
<text transform="matrix(0.9877 0 0 1 445.5647 144.0186)" fill="#FFFFFF" font-family="'MicrosoftJhengHeiBold'"  a:adobe-font-script="chineseTraditional" font-size="14.4">一</text>
<g>
	<path fill="#FFFFFF" d="M509.061,145.826c0,2.75-2.25,5-5,5h-22c-2.75,0-5-2.25-5-5v-15.6c0-2.75,2.25-5,5-5h22c2.75,0,5,2.25,5,5
		V145.826z"/>
	<path fill="none" stroke="#B3B3B3" stroke-miterlimit="10" d="M509.061,145.826c0,2.75-2.25,5-5,5h-22c-2.75,0-5-2.25-5-5v-15.6
		c0-2.75,2.25-5,5-5h22c2.75,0,5,2.25,5,5V145.826z"/>
</g>
<text transform="matrix(0.9877 0 0 1 485.9493 144.0186)" fill="#999999" font-family="'MicrosoftJhengHeiBold'"  a:adobe-font-script="chineseTraditional" font-size="14.4">二</text>
<g>
	<path fill="#FFFFFF" d="M549.445,145.826c0,2.75-2.25,5-5,5h-22c-2.75,0-5-2.25-5-5v-15.6c0-2.75,2.25-5,5-5h22c2.75,0,5,2.25,5,5
		V145.826z"/>
	<path fill="none" stroke="#B3B3B3" stroke-miterlimit="10" d="M549.445,145.826c0,2.75-2.25,5-5,5h-22c-2.75,0-5-2.25-5-5v-15.6
		c0-2.75,2.25-5,5-5h22c2.75,0,5,2.25,5,5V145.826z"/>
</g>
<text transform="matrix(0.9877 0 0 1 526.3331 144.0186)" fill="#999999" font-family="'MicrosoftJhengHeiBold'"  a:adobe-font-script="chineseTraditional" font-size="14.4">三</text>
<g>
	<path fill="#FFFFFF" d="M589.829,145.826c0,2.75-2.25,5-5,5h-22c-2.75,0-5-2.25-5-5v-15.6c0-2.75,2.25-5,5-5h22c2.75,0,5,2.25,5,5
		V145.826z"/>
	<path fill="none" stroke="#B3B3B3" stroke-miterlimit="10" d="M589.829,145.826c0,2.75-2.25,5-5,5h-22c-2.75,0-5-2.25-5-5v-15.6
		c0-2.75,2.25-5,5-5h22c2.75,0,5,2.25,5,5V145.826z"/>
</g>
<text transform="matrix(0.9877 0 0 1 566.717 144.0186)" fill="#999999" font-family="'MicrosoftJhengHeiBold'"  a:adobe-font-script="chineseTraditional" font-size="14.4">四</text>
<g>
	<path fill="#FFFFFF" d="M630.213,145.826c0,2.75-2.25,5-5,5h-22c-2.75,0-5-2.25-5-5v-15.6c0-2.75,2.25-5,5-5h22c2.75,0,5,2.25,5,5
		V145.826z"/>
	<path fill="none" stroke="#B3B3B3" stroke-miterlimit="10" d="M630.213,145.826c0,2.75-2.25,5-5,5h-22c-2.75,0-5-2.25-5-5v-15.6
		c0-2.75,2.25-5,5-5h22c2.75,0,5,2.25,5,5V145.826z"/>
</g>
<text transform="matrix(0.9877 0 0 1 607.1006 144.0186)" fill="#999999" font-family="'MicrosoftJhengHeiBold'"  a:adobe-font-script="chineseTraditional" font-size="14.4">五</text>
<g>
	<path fill="#FFFFFF" d="M670.596,145.826c0,2.75-2.25,5-5,5h-22c-2.75,0-5-2.25-5-5v-15.6c0-2.75,2.25-5,5-5h22c2.75,0,5,2.25,5,5
		V145.826z"/>
	<path fill="none" stroke="#B3B3B3" stroke-miterlimit="10" d="M670.596,145.826c0,2.75-2.25,5-5,5h-22c-2.75,0-5-2.25-5-5v-15.6
		c0-2.75,2.25-5,5-5h22c2.75,0,5,2.25,5,5V145.826z"/>
</g>
<text transform="matrix(0.9877 0 0 1 647.4844 144.0186)" fill="#999999" font-family="'MicrosoftJhengHeiBold'"  a:adobe-font-script="chineseTraditional" font-size="14.4">六</text>
<g>
	<path fill="#FFFFFF" d="M710.98,145.826c0,2.75-2.25,5-5,5h-22c-2.75,0-5-2.25-5-5v-15.6c0-2.75,2.25-5,5-5h22c2.75,0,5,2.25,5,5
		V145.826z"/>
	<path fill="none" stroke="#B3B3B3" stroke-miterlimit="10" d="M710.98,145.826c0,2.75-2.25,5-5,5h-22c-2.75,0-5-2.25-5-5v-15.6
		c0-2.75,2.25-5,5-5h22c2.75,0,5,2.25,5,5V145.826z"/>
</g>
<text transform="matrix(0.9877 0 0 1 687.8692 144.0186)" fill="#999999" font-family="'MicrosoftJhengHeiBold'"  a:adobe-font-script="chineseTraditional" font-size="14.4">日</text>
<circle fill="#FFFFFF" stroke="#666666" stroke-miterlimit="10" cx="489.979" cy="41.264" r="8.8"/>
<circle fill="#4D4D4D" cx="489.979" cy="41.264" r="4.643"/>
<circle fill="#FFFFFF" stroke="#666666" stroke-miterlimit="10" cx="571.446" cy="41.264" r="8.8"/>
<circle fill="none" stroke="#666666" stroke-miterlimit="10" cx="571.446" cy="41.264" r="4.643"/>
<g id="android_7_" enable-background="new    ">
	<g id="android_8_">
		<g>
			<path fill="#39B54A" d="M601.71,48.75c0,1.046,0.387,1.676,1.403,1.676h1.33c-0.044,0-0.333,0.547-0.333,0.72v3.793
				c0,0.992,1.036,1.796,2,1.796c0.964,0,2-0.805,2-1.796v-3.793c0-0.173-0.27-0.72-0.314-0.72h3.242
				c-0.044,0,0.273,0.547,0.273,0.72v3.793c0,0.992,0.636,1.796,1.6,1.796c0.964,0,1.6-0.805,1.6-1.796v-3.793
				c0-0.173-0.076-0.72-0.12-0.72h1.33c1.016,0,1.99-0.63,1.99-1.676V35.226h-16V48.75z M598.51,35.576
				c-0.964,0-1.6,0.804-1.6,1.796v7.685c0,0.992,0.636,1.796,1.6,1.796c0.964,0,1.6-0.805,1.6-1.796v-7.685
				C600.11,36.38,599.473,35.576,598.51,35.576z M620.51,35.576c-0.964,0-2,0.804-2,1.796v7.685c0,0.992,1.036,1.796,2,1.796
				c0.964,0,2-0.805,2-1.796v-7.685C622.51,36.38,621.474,35.576,620.51,35.576z M613.421,28.41l0.328-0.518l0.323-0.505
				l0.725-1.123c0.089-0.138,0.053-0.325-0.08-0.417c-0.134-0.092-0.315-0.056-0.404,0.082l-0.778,1.201l-0.327,0.505l-0.331,0.512
				c-1.051-0.419-2.224-0.655-3.461-0.655c-1.237,0-2.41,0.235-3.46,0.654l-0.331-0.512l-0.327-0.505l-0.779-1.201
				c-0.089-0.138-0.27-0.175-0.404-0.083c-0.133,0.092-0.17,0.277-0.08,0.415l0.725,1.12l0.323,0.499l0.328,0.53
				c-2.469,1.184-4.14,3.617-4.14,6.017h16.29C617.561,32.026,615.89,29.593,613.421,28.41z M605.925,31.983
				c-0.482,0-0.873-0.403-0.873-0.898c0-0.496,0.39-0.897,0.873-0.897c0.482,0,0.873,0.402,0.873,0.897
				C606.798,31.581,606.407,31.983,605.925,31.983z M612.907,31.983c-0.482,0-0.872-0.403-0.872-0.898
				c0-0.496,0.39-0.897,0.872-0.897c0.482,0,0.873,0.402,0.873,0.897C613.779,31.581,613.389,31.983,612.907,31.983z"/>
		</g>
	</g>
</g>
<g id="apple_7_" enable-background="new    ">
	<g id="apple_8_">
		<g>
			<path fill="#CCCCCC" d="M528.699,31.305c1.097-1.238,1.838-2.959,1.636-4.672c-1.581,0.059-3.496,0.978-4.631,2.215
				c-1.017,1.098-1.906,2.846-1.669,4.528C525.8,33.504,527.6,32.541,528.699,31.305z M532.658,42.182
				c-0.04-3.707,3.247-5.484,3.395-5.574c-1.847-2.514-4.725-2.859-5.749-2.898c-2.448-0.231-4.777,1.342-6.02,1.342
				c-1.239,0-3.157-1.308-5.187-1.274c-2.67,0.037-5.13,1.445-6.504,3.67c-2.773,4.477-0.709,11.112,1.993,14.745
				c1.321,1.776,2.896,3.775,4.962,3.701c1.992-0.073,2.744-1.199,5.151-1.199c2.408,0,3.084,1.199,5.19,1.162
				c2.142-0.036,3.499-1.81,4.81-3.593c1.517-2.063,2.141-4.062,2.178-4.163C536.829,48.08,532.7,46.608,532.658,42.182z"/>
		</g>
	</g>
</g>
<rect x="129.181" y="26.826" fill="#FFFFFF" stroke="#999999" stroke-miterlimit="10" width="96" height="32"/>
<g>
	
		<text transform="matrix(1 0 0 1 139.5061 48.1943)" fill="#333333" font-family="'MicrosoftJhengHeiRegular'"  a:adobe-font-script="chineseTraditional" font-size="16.8">2014年</text>
</g>
<rect x="242.781" y="26.826" fill="#FFFFFF" stroke="#999999" stroke-miterlimit="10" width="96" height="32"/>
<g>
	
		<text transform="matrix(1 0 0 1 252.8908 48.1943)" fill="#333333" font-family="'MicrosoftJhengHeiRegular'"  a:adobe-font-script="chineseTraditional" font-size="16.8">5月</text>
</g>
<rect x="356.381" y="26.826" fill="#FFFFFF" stroke="#999999" stroke-miterlimit="10" width="96" height="32"/>
<g>
	
		<text transform="matrix(1 0 0 1 366.2745 48.1943)" fill="#333333" font-family="'MicrosoftJhengHeiRegular'"  a:adobe-font-script="chineseTraditional" font-size="16.8">第二週</text>
</g>
<polyline fill="none" stroke="#999999" stroke-linecap="round" stroke-miterlimit="10" points="433.445,39.711 438.469,46.111 
	443.493,39.711 "/>
<polyline fill="none" stroke="#999999" stroke-linecap="round" stroke-miterlimit="10" points="319.493,39.711 324.517,46.111 
	329.541,39.711 "/>
<polyline fill="none" stroke="#999999" stroke-linecap="round" stroke-miterlimit="10" points="207.941,39.711 212.965,46.111 
	217.99,39.711 "/>
<g>
	
		<line fill="none" stroke="#CCCCCC" stroke-miterlimit="10" stroke-dasharray="4,5" x1="39.181" y1="282.026" x2="783.981" y2="282.026"/>
	<polyline fill="none" stroke="#CCCCCC" stroke-miterlimit="10" points="783.981,391.626 39.581,391.626 39.581,256.026 	"/>
	<text transform="matrix(1 0 0 1 282.4066 413.355)" fill="#595757" font-family="'ArialNarrow'" font-size="9.6">08:00</text>
	<text transform="matrix(1 0 0 1 312.7597 413.355)" fill="#595757" font-family="'ArialNarrow'" font-size="9.6">09:00</text>
	<text transform="matrix(1 0 0 1 343.1126 413.355)" fill="#595757" font-family="'ArialNarrow'" font-size="9.6">10:00</text>
	<text transform="matrix(1 0 0 1 373.7539 413.355)"><tspan x="0" y="0" fill="#595757" font-family="'ArialNarrow'" font-size="9.6">1</tspan><tspan x="3.802" y="0" fill="#595757" font-family="'ArialNarrow'" font-size="9.6">1:00</tspan></text>
	<text transform="matrix(1 0 0 1 403.8187 413.355)" fill="#595757" font-family="'ArialNarrow'" font-size="9.6">12:00</text>
	<text transform="matrix(1 0 0 1 434.1721 413.355)" fill="#595757" font-family="'ArialNarrow'" font-size="9.6">13:00</text>
	<text transform="matrix(1 0 0 1 464.5256 413.355)" fill="#595757" font-family="'ArialNarrow'" font-size="9.6">14:00</text>
	<text transform="matrix(1 0 0 1 494.8779 413.355)" fill="#595757" font-family="'ArialNarrow'" font-size="9.6">15:00</text>
	<text transform="matrix(1 0 0 1 525.2308 413.355)" fill="#595757" font-family="'ArialNarrow'" font-size="9.6">16:00</text>
	<text transform="matrix(1 0 0 1 555.5853 413.355)" fill="#595757" font-family="'ArialNarrow'" font-size="9.6">17:00</text>
	<text transform="matrix(1 0 0 1 585.9377 413.355)" fill="#595757" font-family="'ArialNarrow'" font-size="9.6">18:00</text>
	<text transform="matrix(1 0 0 1 616.2913 413.355)" fill="#595757" font-family="'ArialNarrow'" font-size="9.6">19:00</text>
	<text transform="matrix(1 0 0 1 646.6447 413.355)" fill="#595757" font-family="'ArialNarrow'" font-size="9.6">20:00</text>
	<text transform="matrix(1 0 0 1 676.9973 413.355)" fill="#595757" font-family="'ArialNarrow'" font-size="9.6">21:00</text>
	<text transform="matrix(1 0 0 1 707.3506 413.355)" fill="#595757" font-family="'ArialNarrow'" font-size="9.6">22:00</text>
	<text transform="matrix(1 0 0 1 737.7033 413.355)" fill="#595757" font-family="'ArialNarrow'" font-size="9.6">23:00</text>
	<text transform="matrix(1 0 0 1 768.0569 413.355)" fill="#595757" font-family="'ArialNarrow'" font-size="9.6">24:00</text>
	<text transform="matrix(1 0 0 1 252.053 413.355)" fill="#595757" font-family="'ArialNarrow'" font-size="9.6">07:00</text>
	<text transform="matrix(1 0 0 1 221.7004 413.355)" fill="#595757" font-family="'ArialNarrow'" font-size="9.6">06:00</text>
	<text transform="matrix(1 0 0 1 191.3459 413.355)" fill="#595757" font-family="'ArialNarrow'" font-size="9.6">05:00</text>
	<text transform="matrix(1 0 0 1 160.9934 413.355)" fill="#595757" font-family="'ArialNarrow'" font-size="9.6">04:00</text>
	<text transform="matrix(1 0 0 1 130.6408 413.355)" fill="#595757" font-family="'ArialNarrow'" font-size="9.6">03:00</text>
	<text transform="matrix(1 0 0 1 100.2873 413.355)" fill="#595757" font-family="'ArialNarrow'" font-size="9.6">02:00</text>
	<text transform="matrix(1 0 0 1 69.9339 413.355)" fill="#595757" font-family="'ArialNarrow'" font-size="9.6">01:00</text>
	<text transform="matrix(1 0 0 1 39.581 413.355)" fill="#595757" font-family="'ArialNarrow'" font-size="9.6">00:00</text>
	
		<text transform="matrix(1 0 0 1 11.9902 412.5552)" fill="#595757" font-family="'MicrosoftJhengHeiRegular'"  a:adobe-font-script="chineseTraditional" font-size="7.2">(Time)</text>
	<text transform="matrix(1 0 0 1 28.5168 391.2476)" fill="#595757" font-family="'ArialNarrow'" font-size="9.6">0</text>
	<text transform="matrix(1 0 0 1 19.7597 320.1998)" fill="#595757" font-family="'ArialNarrow'" font-size="9.6">100</text>
	<line fill="none" stroke="#CCCCCC" stroke-miterlimit="10" x1="39.581" y1="392.026" x2="39.581" y2="197.626"/>
	<text transform="matrix(1 0 0 1 19.7597 284.6743)" fill="#595757" font-family="'ArialNarrow'" font-size="9.6">150</text>
	<text transform="matrix(1 0 0 1 19.7597 249.1508)" fill="#595757" font-family="'ArialNarrow'" font-size="9.6">200</text>
	<text transform="matrix(1 0 0 1 19.7597 213.6265)" fill="#595757" font-family="'ArialNarrow'" font-size="9.6">250</text>
	<text transform="matrix(1 0 0 1 24.1386 355.7241)" fill="#595757" font-family="'ArialNarrow'" font-size="9.6">50</text>
	<g>
		<circle fill="#FF2300" cx="50.821" cy="324.934" r="2.4"/>
		<circle fill="#FF2300" cx="81.022" cy="328.944" r="2.4"/>
		<circle fill="#FF2300" cx="111.223" cy="345.575" r="2.4"/>
		<circle fill="#FF2300" cx="141.425" cy="352.144" r="2.4"/>
		<circle fill="#FF2300" cx="171.626" cy="359.975" r="2.4"/>
		<circle fill="#FF2300" cx="201.827" cy="331.175" r="2.4"/>
		<circle fill="#FF2300" cx="232.028" cy="327.975" r="2.4"/>
		<circle fill="#FF2300" cx="262.229" cy="308.775" r="2.4"/>
		<circle fill="#FF2300" cx="292.43" cy="307.175" r="2.4"/>
		<circle fill="#FF2300" cx="352.833" cy="293.575" r="2.4"/>
		<circle fill="#FF2300" cx="322.632" cy="280.222" r="2.4"/>
		<circle fill="#FF2300" cx="383.034" cy="294.375" r="2.4"/>
		<circle fill="#FF2300" cx="413.236" cy="286.375" r="2.4"/>
		<circle fill="#FF2300" cx="443.437" cy="294.375" r="2.4"/>
		<circle fill="#FF2300" cx="473.638" cy="299.175" r="2.4"/>
		<circle fill="#FF2300" cx="503.839" cy="302.375" r="2.4"/>
		<circle fill="#FF2300" cx="534.04" cy="281.611" r="2.4"/>
		<circle fill="#FF2300" cx="594.443" cy="284.675" r="2.4"/>
		<circle fill="#FF2300" cx="624.644" cy="286.375" r="2.4"/>
		<circle fill="#FF2300" cx="654.846" cy="294.375" r="2.4"/>
		<circle fill="#FF2300" cx="685.046" cy="286.375" r="2.4"/>
		<circle fill="#FF2300" cx="715.248" cy="278.375" r="2.4"/>
		<circle fill="#FF2300" cx="745.449" cy="294.375" r="2.4"/>
		<circle fill="#FF2300" cx="775.65" cy="299.175" r="2.4"/>
		<polyline fill="none" stroke="#FF2300" stroke-miterlimit="10" points="39.181,325.226 50.821,325.226 81.022,329.09 
			111.223,345.648 141.425,352.181 171.626,359.994 201.827,331.185 232.028,327.98 262.229,308.778 292.43,307.177 
			322.632,280.223 352.833,293.576 383.034,294.376 413.236,286.375 443.437,294.375 473.638,299.175 503.839,302.375 
			534.04,281.611 564.242,273.093 594.443,284.675 624.644,286.375 654.846,294.375 685.046,286.375 715.248,278.375 
			745.449,294.375 775.45,299.321 		"/>
		<circle fill="#FFFFFF" stroke="#FF2300" stroke-width="0.5" stroke-miterlimit="10" cx="565.158" cy="273.025" r="4"/>
		<circle fill="#FF2300" cx="565.158" cy="273.025" r="2.8"/>
	</g>
	<g>
		<circle fill="#0064DC" cx="50.821" cy="311.098" r="2.4"/>
		<circle fill="#0064DC" cx="81.022" cy="319.908" r="2.4"/>
		<circle fill="#0064DC" cx="111.223" cy="339.739" r="2.4"/>
		<circle fill="#0064DC" cx="141.425" cy="359.908" r="2.4"/>
		<circle fill="#0064DC" cx="171.626" cy="362.939" r="2.4"/>
		<circle fill="#0064DC" cx="201.827" cy="339.739" r="2.4"/>
		<circle fill="#0064DC" cx="232.028" cy="336.539" r="2.4"/>
		<circle fill="#0064DC" cx="262.229" cy="322.139" r="2.4"/>
		<circle fill="#0064DC" cx="292.43" cy="314.939" r="2.4"/>
		<circle fill="#0064DC" cx="322.632" cy="300.539" r="2.4"/>
		<circle fill="#0064DC" cx="351.903" cy="283.739" r="2.4"/>
		<circle fill="#0064DC" cx="413.236" cy="273.611" r="2.4"/>
		<circle fill="#0064DC" cx="443.437" cy="290.139" r="2.4"/>
		<circle fill="#0064DC" cx="473.638" cy="307.739" r="2.4"/>
		<circle fill="#0064DC" cx="503.839" cy="312.139" r="2.4"/>
		<circle fill="#0064DC" cx="534.04" cy="310.139" r="2.4"/>
		<path fill="#0064DC" d="M566.642,300.539c0,1.326-1.073,2.4-2.4,2.4c-3.453,0-2.4-2.774-2.4-2.4c0,1.326,1.075-2.4,2.4-2.4
			C565.568,298.139,566.642,299.214,566.642,300.539z"/>
		<circle fill="#0064DC" cx="594.443" cy="291.739" r="2.4"/>
		<circle fill="#0064DC" cx="624.644" cy="294.139" r="2.4"/>
		<circle fill="#0064DC" cx="654.846" cy="308.539" r="2.4"/>
		<circle fill="#0064DC" cx="685.046" cy="307.539" r="2.4"/>
		<circle fill="#0064DC" cx="715.248" cy="301.611" r="2.4"/>
		<circle fill="#0064DC" cx="745.449" cy="310.739" r="2.4"/>
		<circle fill="#0064DC" cx="775.65" cy="309.339" r="2.4"/>
		<polyline fill="none" stroke="#0064DC" stroke-width="0.5" stroke-miterlimit="10" points="39.581,307.098 50.821,311.098 
			81.022,319.908 111.223,339.739 141.425,359.908 171.626,362.939 201.827,339.739 232.028,336.539 262.229,322.139 
			292.43,314.939 322.632,300.539 351.903,283.739 383.034,274.386 413.236,273.611 443.437,290.139 473.638,307.739 
			503.839,312.139 534.04,310.139 564.242,300.539 594.443,291.739 624.644,294.139 654.846,308.539 685.046,307.539 
			715.248,301.611 745.449,310.739 775.65,309.339 		"/>
		<circle fill="#FFFFFF" stroke="#0064DC" stroke-width="0.5" stroke-miterlimit="10" cx="383.035" cy="274.354" r="4"/>
		<circle fill="#0064DC" cx="383.035" cy="274.354" r="2.8"/>
	</g>
	<g>
		<path fill="#FF2300" d="M591.181,245.606c0,5.42-4.394,9.813-9.813,9.813h-31.573c-5.42,0-9.813-4.394-9.813-9.813v-0.853
			c0-5.42,4.394-9.813,9.813-9.813h31.573c5.42,0,9.813,4.394,9.813,9.813V245.606z"/>
		<text transform="matrix(1 0 0 1 552.665 250.6598)" fill="#FFFFFF" font-family="'ArialMT'" font-size="14.4">154</text>
		<polyline fill="#FF2300" points="568.925,253.792 564.848,263.126 560.433,253.792 		"/>
	</g>
	<g>
		<path fill="#0064DC" d="M408.781,247.999c0,5.42-4.394,9.813-9.813,9.813h-31.573c-5.42,0-9.813-4.394-9.813-9.813v-0.853
			c0-5.42,4.394-9.813,9.813-9.813h31.573c5.42,0,9.813,4.394,9.813,9.813V247.999z"/>
		<text transform="matrix(1 0 0 1 370.8566 253.0786)" fill="#FFFFFF" font-family="'ArialMT'" font-size="14.4">152</text>
		<polyline fill="#0064DC" points="387.115,256.212 383.038,265.545 378.623,256.212 		"/>
	</g>
</g>
<g>
	<path fill="#0064DC" d="M249.149,124.393c2.019-0.041,3.66-1.698,3.66-3.736c0-2.038-1.641-3.694-3.66-3.736
		c-2.019,0.041-3.66,1.698-3.66,3.736C245.489,122.696,247.131,124.352,249.149,124.393z"/>
	<path fill="#0064DC" d="M256.143,125.889l-6.795-0.776l-6.679,0.776c-0.512,0-1.089,0.38-1.089,0.893v10.871
		c0,0.512-0.184,0.774,0.329,0.774h0.466c0.512,0,1.606-0.261,1.606-0.774v-7.842c0-0.512,0.237-0.544,0.387-0.544
		c0.149,0,0.413,0.031,0.413,0.544v24.614c0,0.512,0.289,0.802,0.801,0.802h0.854c0.512,0,1.544-0.289,1.544-0.802v-11.298
		c0-0.512-0.193-0.701,0.319-0.701h0.815h0.815c0.512,0,1.25,0.188,1.25,0.701v11.298c0,0.512,0.101,0.802,0.613,0.802h0.854
		c0.512,0,1.733-0.289,1.733-0.802V129.81c0-0.512,0.251-0.544,0.4-0.544s0.4,0.031,0.4,0.544v7.842
		c0,0.512-0.134,0.774,0.379,0.774h0.525c0.512,0,1.496-0.261,1.496-0.774v-10.871C257.581,126.27,256.656,125.889,256.143,125.889z
		"/>
</g>
<g>
	<path fill="#FF2300" d="M341.389,125.891l-6.766-0.776l-6.633,0.776c-0.512,0-0.809,0.38-0.809,0.893v10.871
		c0,0.512,0.163,0.772,0.676,0.772h0.621c0.512,0,1.103-0.26,1.103-0.772v-7.842c0-0.512,0.056-0.544,0.205-0.544
		s0.14,0.056,0.239,0.544l1.007,5.887l-3.585,9.927h2.934v8.8c0,0.512-0.009,0.8,0.504,0.8h0.854c0.512,0,1.042-0.288,1.042-0.8
		v-8.8h1.792h2.208v8.8c0,0.512,0.114,0.8,0.626,0.8h0.854c0.512,0,0.92-0.288,0.92-0.8v-8.8h2.518l-3.568-9.927l1.024-5.942
		c0.099-0.488,0.264-0.516,0.413-0.516s0.413,0.059,0.413,0.571v7.842c0,0.512,0.175,0.772,0.687,0.772h0.621
		c0.512,0,1.092-0.26,1.092-0.772v-10.871C342.381,126.271,341.901,125.891,341.389,125.891z"/>
	<path fill="#FF2300" d="M334.456,124.397c0.026,0,0.039-0.001,0.116-0.002c0.078,0.001,0.09,0.002,0.116,0.002
		c2.064,0,3.738-1.674,3.738-3.738s-1.674-3.738-3.738-3.738c-0.026,0-0.039,0.001-0.116,0.002c-0.078-0.001-0.09-0.002-0.116-0.002
		c-2.064,0-3.738,1.674-3.738,3.738S332.392,124.397,334.456,124.397z"/>
</g>
<g>
	<g>
		<line fill="none" stroke="#CCCCCC" stroke-miterlimit="10" x1="15.181" y1="91.645" x2="17.181" y2="91.645"/>
		
			<line fill="none" stroke="#CCCCCC" stroke-miterlimit="10" stroke-dasharray="4,4" x1="21.181" y1="91.645" x2="787.181" y2="91.645"/>
		<line fill="none" stroke="#CCCCCC" stroke-miterlimit="10" x1="789.181" y1="91.645" x2="791.181" y2="91.645"/>
	</g>
</g>
</svg>
