<?xml version="1.0" encoding="utf-8"?>
<!-- Generator: Adobe Illustrator 17.0.0, SVG Export Plug-In . SVG Version: 6.00 Build 0)  -->
<!DOCTYPE svg PUBLIC "-//W3C//DTD SVG 1.1//EN" "http://www.w3.org/Graphics/SVG/1.1/DTD/svg11.dtd">
<svg version="1.1" id="圖層_1" xmlns="http://www.w3.org/2000/svg" xmlns:xlink="http://www.w3.org/1999/xlink" x="0px" y="0px"
	 width="420px" height="180px" viewBox="344.167 233.167 420 180" enable-background="new 344.167 233.167 420 180"
	 xml:space="preserve">
<rect x="357.75" y="242.327" fill="none" stroke="#B3B3B3" stroke-miterlimit="10" width="80" height="24"/>
<text transform="matrix(1 0 0 1 368.5717 259.7835)" fill="#333333" font-family="'MicrosoftJhengHeiRegular'" font-size="12.8">年齡分布</text>
<g>
	<g>
		<g>
			<g>
				<path fill="#E6E6E6" stroke="#FFFFFF" stroke-miterlimit="10" d="M561.026,339.767l-7.416-38.152
					c2.528-0.491,4.84-0.714,7.416-0.714V339.767z"/>
			</g>
		</g>
		<g>
			<g>
				<path fill="#ED1C7C" d="M561.026,339.767H522.16c0-18.889,12.908-34.548,31.45-38.152L561.026,339.767z"/>
			</g>
		</g>
		<g>
			<g>
				<path fill="#00B6E7" stroke="#FFFFFF" stroke-miterlimit="10" d="M561.026,339.767l22.845,31.443
					c-17.366,12.617-41.671,8.767-54.288-8.598c-5.047-6.946-7.423-14.259-7.423-22.845H561.026z"/>
			</g>
		</g>
		<g>
			<g>
				<path fill="#FCE650" stroke="#FFFFFF" stroke-miterlimit="10" d="M561.026,339.767v-38.866
					c21.465,0,38.866,17.401,38.866,38.866c0,12.879-5.602,23.873-16.021,31.443L561.026,339.767z"/>
			</g>
		</g>
	</g>
</g>
<g>
	<g>
		<g>
			<g>
				<path fill="#E6E6E6" stroke="#FFFFFF" stroke-miterlimit="10" d="M707.773,339.767l-10.059-37.542
					c3.317-0.889,6.625-1.324,10.059-1.324V339.767z"/>
			</g>
		</g>
		<g>
			<g>
				<path fill="#ED1C7C" d="M707.773,339.767l-38.813-2.034c0.899-17.149,12.167-31.063,28.754-35.508L707.773,339.767z"/>
			</g>
		</g>
		<g>
			<g>
				<path fill="#00B6E7" stroke="#FFFFFF" stroke-miterlimit="10" d="M707.773,339.767l36.964,12.01
					c-6.633,20.415-28.56,31.587-48.974,24.954c-17.148-5.572-27.746-20.992-26.802-38.998L707.773,339.767z"/>
			</g>
		</g>
		<g>
			<g>
				<path fill="#FCE650" stroke="#FFFFFF" stroke-miterlimit="10" d="M707.773,339.767v-38.866
					c21.465,0,38.866,17.401,38.866,38.866c0,4.293-0.576,7.927-1.902,12.01L707.773,339.767z"/>
			</g>
		</g>
	</g>
</g>
<g>
	<g>
		<g>
			<g>
				<path fill="#E6E6E6" stroke="#FFFFFF" stroke-miterlimit="10" d="M414.697,337.439l-2.711-38.771
					c0.857-0.06,1.853-0.095,2.711-0.095V337.439z"/>
			</g>
		</g>
		<g>
			<g>
				<path fill="#ED1C7C" stroke="#FFFFFF" stroke-miterlimit="10" d="M414.697,337.439l-37.712-9.403
					c4.154-16.662,17.87-28.171,35-29.369L414.697,337.439z"/>
			</g>
		</g>
		<g>
			<g>
				<path fill="#00B6E7" stroke="#FFFFFF" stroke-miterlimit="10" d="M414.697,337.439l24.983,29.773
					c-16.443,13.798-40.958,11.653-54.756-4.79c-8.279-9.866-11.054-21.889-7.938-34.385L414.697,337.439z"/>
			</g>
		</g>
		<g>
			<g>
				<path fill="#FCE650" stroke="#FFFFFF" stroke-miterlimit="10" d="M414.697,337.439v-38.866
					c21.465,0,38.866,17.401,38.866,38.866c0,12.02-4.675,22.047-13.883,29.773L414.697,337.439z"/>
			</g>
		</g>
	</g>
</g>
<g>
	<text transform="matrix(1 0 0 1 476.1127 257.7249)" fill="#333333" font-family="'MicrosoftJhengHeiBold'" font-size="12.8">0-20</text>
</g>
<rect x="457.35" y="247.527" fill="#FCE650" width="12.8" height="12.8"/>
<rect x="522.15" y="247.527" fill="#00B6E7" width="12.8" height="12.8"/>
<rect x="594.95" y="247.527" fill="#ED1C7C" width="12.8" height="12.8"/>
<rect x="665.35" y="247.527" fill="#CCCCCC" width="12.8" height="12.8"/>
<text transform="matrix(1 0 0 1 613.1837 257.7248)" fill="#333333" font-family="'MicrosoftJhengHeiBold'" font-size="12.8">41-60</text>
<text transform="matrix(1 0 0 1 395.0677 400.4007)" fill="#333333" font-family="'MicrosoftJhengHeiRegular'" font-size="16">所 有</text>
<text transform="matrix(1 0 0 1 541.8499 400.4007)" fill="#333333" font-family="'MicrosoftJhengHeiRegular'" font-size="16">男 性</text>
<text transform="matrix(1 0 0 1 690.8674 400.4007)" fill="#333333" font-family="'MicrosoftJhengHeiRegular'" font-size="16">女 性</text>
<text transform="matrix(1 0 0 1 685.1837 257.7249)" fill="#333333" font-family="'MicrosoftJhengHeiBold'" font-size="12.8">61-80</text>
<text transform="matrix(1 0 0 1 540.1124 257.7239)" fill="#333333" font-family="'MicrosoftJhengHeiBold'" font-size="12.8">21-40</text>
<text transform="matrix(1 0 0 1 727.1323 334.3274)" fill="#333333" font-family="'Helvetica-Narrow-Bold'" font-size="16">30%</text>
<text transform="matrix(1 0 0 1 694.9517 370.2356)" fill="#333333" font-family="'Helvetica-Narrow-Bold'" font-size="16">46%</text>
<text transform="matrix(1 0 0 1 666.1517 329.1273)" fill="#333333" font-family="'Helvetica-Narrow-Bold'" font-size="16">20%</text>
<text transform="matrix(1 0 0 1 692.636 301.049)" fill="#333333" font-family="'Helvetica-Narrow-Bold'" font-size="16">4%</text>
<text transform="matrix(1 0 0 1 581.5148 334.3274)" fill="#333333" font-family="'Helvetica-Narrow-Bold'" font-size="16">40%</text>
<text transform="matrix(1 0 0 1 549.3336 370.2356)" fill="#333333" font-family="'Helvetica-Narrow-Bold'" font-size="16">35%</text>
<text transform="matrix(1 0 0 1 521.3336 325.1273)" fill="#333333" font-family="'Helvetica-Narrow-Bold'" font-size="16">22%</text>
<text transform="matrix(1 0 0 1 547.0179 301.049)" fill="#333333" font-family="'Helvetica-Narrow-Bold'" font-size="16">3%</text>
<text transform="matrix(0.9887 0 0 1 436.3712 334.3275)" fill="#333333" font-family="'Helvetica-Narrow-Bold'" font-size="16">39%</text>
<text transform="matrix(1 0 0 1 404.9916 370.2356)" fill="#333333" font-family="'Helvetica-Narrow-Bold'" font-size="16">40%</text>
<text transform="matrix(1 0 0 1 379.3911 317.1281)" fill="#333333" font-family="'Helvetica-Narrow-Bold'" font-size="16">20%</text>
<text transform="matrix(1 0 0 1 402.6753 301.049)" fill="#333333" font-family="'Helvetica-Narrow-Bold'" font-size="16">1%</text>
</svg>
