<?xml version="1.0" encoding="utf-8"?>
<!-- Generator: Adobe Illustrator 17.0.0, SVG Export Plug-In . SVG Version: 6.00 Build 0)  -->
<!DOCTYPE svg PUBLIC "-//W3C//DTD SVG 1.1//EN" "http://www.w3.org/Graphics/SVG/1.1/DTD/svg11.dtd">
<svg version="1.1" id="圖層_1" xmlns="http://www.w3.org/2000/svg" xmlns:xlink="http://www.w3.org/1999/xlink" x="0px" y="0px"
	 width="800px" height="500px" viewBox="0 0 800 500" enable-background="new 0 0 800 500" xml:space="preserve">
<rect x="353.75" y="251.327" fill="none" stroke="#B3B3B3" stroke-miterlimit="10" width="80" height="24"/>
<text transform="matrix(1 0 0 1 364.5717 268.7835)" fill="#333333" font-family="'MicrosoftJhengHeiRegular'" font-size="12.8">年齡分布</text>
<g>
	<g>
		<g>
			<g>
				<path fill="#E6E6E6" stroke="#FFFFFF" stroke-miterlimit="10" d="M557.026,348.767l-7.416-38.152
					c2.528-0.491,4.84-0.714,7.416-0.714V348.767z"/>
			</g>
		</g>
		<g>
			<g>
				<path fill="#ED1C7C" d="M557.026,348.767H518.16c0-18.889,12.908-34.548,31.45-38.152L557.026,348.767z"/>
			</g>
		</g>
		<g>
			<g>
				<path fill="#00B6E7" stroke="#FFFFFF" stroke-miterlimit="10" d="M557.026,348.767l22.845,31.443
					c-17.366,12.617-41.671,8.767-54.288-8.598c-5.047-6.946-7.423-14.259-7.423-22.845H557.026z"/>
			</g>
		</g>
		<g>
			<g>
				<path fill="#FCE650" stroke="#FFFFFF" stroke-miterlimit="10" d="M557.026,348.767v-38.866
					c21.465,0,38.866,17.401,38.866,38.866c0,12.879-5.602,23.873-16.021,31.443L557.026,348.767z"/>
			</g>
		</g>
	</g>
</g>
<g>
	<g>
		<g>
			<g>
				<path fill="#E6E6E6" stroke="#FFFFFF" stroke-miterlimit="10" d="M703.773,348.767l-10.059-37.542
					c3.317-0.889,6.625-1.324,10.059-1.324V348.767z"/>
			</g>
		</g>
		<g>
			<g>
				<path fill="#ED1C7C" d="M703.773,348.767l-38.813-2.034c0.899-17.149,12.167-31.063,28.754-35.508L703.773,348.767z"/>
			</g>
		</g>
		<g>
			<g>
				<path fill="#00B6E7" stroke="#FFFFFF" stroke-miterlimit="10" d="M703.773,348.767l36.964,12.01
					c-6.633,20.415-28.56,31.587-48.974,24.954c-17.148-5.572-27.746-20.992-26.802-38.998L703.773,348.767z"/>
			</g>
		</g>
		<g>
			<g>
				<path fill="#FCE650" stroke="#FFFFFF" stroke-miterlimit="10" d="M703.773,348.767v-38.866
					c21.465,0,38.866,17.401,38.866,38.866c0,4.293-0.576,7.927-1.902,12.01L703.773,348.767z"/>
			</g>
		</g>
	</g>
</g>
<g>
	<g>
		<g>
			<g>
				<path fill="#E6E6E6" stroke="#FFFFFF" stroke-miterlimit="10" d="M410.697,346.439l-2.711-38.771
					c0.857-0.06,1.853-0.095,2.711-0.095V346.439z"/>
			</g>
		</g>
		<g>
			<g>
				<path fill="#ED1C7C" stroke="#FFFFFF" stroke-miterlimit="10" d="M410.697,346.439l-37.712-9.403
					c4.154-16.662,17.87-28.171,35-29.369L410.697,346.439z"/>
			</g>
		</g>
		<g>
			<g>
				<path fill="#00B6E7" stroke="#FFFFFF" stroke-miterlimit="10" d="M410.697,346.439l24.983,29.773
					c-16.443,13.798-40.958,11.653-54.756-4.79c-8.279-9.866-11.054-21.889-7.938-34.385L410.697,346.439z"/>
			</g>
		</g>
		<g>
			<g>
				<path fill="#FCE650" stroke="#FFFFFF" stroke-miterlimit="10" d="M410.697,346.439v-38.866
					c21.465,0,38.866,17.401,38.866,38.866c0,12.02-4.675,22.047-13.883,29.773L410.697,346.439z"/>
			</g>
		</g>
	</g>
</g>
<g>
	<text transform="matrix(1 0 0 1 472.1127 266.7249)" fill="#333333" font-family="'MicrosoftJhengHeiBold'" font-size="12.8">0-20</text>
</g>
<rect x="453.35" y="256.527" fill="#FCE650" width="12.8" height="12.8"/>
<rect x="518.15" y="256.527" fill="#00B6E7" width="12.8" height="12.8"/>
<rect x="590.95" y="256.527" fill="#ED1C7C" width="12.8" height="12.8"/>
<rect x="661.35" y="256.527" fill="#CCCCCC" width="12.8" height="12.8"/>
<rect x="15.35" y="20.927" fill="#F2F2F2" stroke="#CCCCCC" stroke-miterlimit="10" width="301.6" height="35.2"/>
<rect x="15.35" y="56.127" fill="#FFFFFF" stroke="#CCCCCC" stroke-miterlimit="10" width="301.6" height="54.4"/>
<rect x="15.35" y="110.527" fill="#FFFFFF" stroke="#CCCCCC" stroke-miterlimit="10" width="301.6" height="51.2"/>
<rect x="15.35" y="161.727" fill="#FFFFFF" stroke="#CCCCCC" stroke-miterlimit="10" width="301.6" height="52.8"/>
<rect x="15.35" y="214.527" fill="#FFFFFF" stroke="#CCCCCC" stroke-miterlimit="10" width="301.6" height="52.8"/>
<rect x="15.35" y="267.327" fill="#FFFFFF" stroke="#CCCCCC" stroke-miterlimit="10" width="301.6" height="52.8"/>
<rect x="15.35" y="320.127" fill="#FFFFFF" stroke="#CCCCCC" stroke-miterlimit="10" width="301.6" height="52.8"/>
<rect x="15.35" y="372.927" fill="#FFFFFF" stroke="#CCCCCC" stroke-miterlimit="10" width="301.6" height="52.8"/>
<text transform="matrix(1 0 0 1 73.6761 81.8685)" font-family="'MicrosoftJhengHeiRegular'" font-size="14.4">中華電信</text>
<text transform="matrix(1 0 0 1 73.6761 134.6685)" font-family="'MicrosoftJhengHeiRegular'" font-size="14.4">台灣大</text>
<text transform="matrix(1 0 0 1 73.6761 187.4685)" font-family="'MicrosoftJhengHeiRegular'" font-size="14.4">亞太電信</text>
<text transform="matrix(1 0 0 1 73.6761 240.2685)" font-family="'MicrosoftJhengHeiRegular'" font-size="14.4">威寶電信</text>
<text transform="matrix(1 0 0 1 73.6761 293.0685)" font-family="'MicrosoftJhengHeiRegular'" font-size="14.4">遠傳電信</text>
<text transform="matrix(1 0 0 1 73.6761 345.8685)" font-family="'MicrosoftJhengHeiRegular'" font-size="14.4">大眾電信</text>
<text transform="matrix(1 0 0 1 73.6761 398.6685)" font-family="'MicrosoftJhengHeiRegular'" font-size="14.4">其他業者</text>
<text transform="matrix(1 0 0 1 59.3947 44.7395)" fill="#333333" font-family="'MicrosoftJhengHeiBold'" font-size="14.4">電信系統商</text>
<text transform="matrix(1 0 0 1 239.3059 44.7395)" fill="#0064DC" font-family="'MicrosoftJhengHeiBold'" font-size="14.4">男</text>
<text transform="matrix(1 0 0 1 282.5061 44.7395)" fill="#FF2300" font-family="'MicrosoftJhengHeiBold'" font-size="14.4">女</text>
<text transform="matrix(1 0 0 1 609.1837 266.7248)" fill="#333333" font-family="'MicrosoftJhengHeiBold'" font-size="12.8">41-60</text>
<text transform="matrix(1 0 0 1 392.0677 411.4007)" fill="#333333" font-family="'MicrosoftJhengHeiRegular'" font-size="16.8">所 有</text>
<text transform="matrix(1 0 0 1 536.8499 411.4007)" fill="#333333" font-family="'MicrosoftJhengHeiRegular'" font-size="16.8">男 性</text>
<text transform="matrix(1 0 0 1 684.8674 411.4007)" fill="#333333" font-family="'MicrosoftJhengHeiRegular'" font-size="16.8">女 性</text>
<text transform="matrix(1 0 0 1 681.1837 266.7249)" fill="#333333" font-family="'MicrosoftJhengHeiBold'" font-size="12.8">61-80</text>
<text transform="matrix(1 0 0 1 536.1124 266.7239)" fill="#333333" font-family="'MicrosoftJhengHeiBold'" font-size="12.8">21-40</text>
<text transform="matrix(1 0 0 1 724.1323 343.3274)" fill="#333333" font-family="'Helvetica-Narrow-Bold'" font-size="14.4">30%</text>
<text transform="matrix(1 0 0 1 691.9517 379.2356)" fill="#333333" font-family="'Helvetica-Narrow-Bold'" font-size="14.4">46%</text>
<text transform="matrix(1 0 0 1 663.1517 338.1273)" fill="#333333" font-family="'Helvetica-Narrow-Bold'" font-size="14.4">20%</text>
<text transform="matrix(1 0 0 1 689.636 310.049)" fill="#333333" font-family="'Helvetica-Narrow-Bold'" font-size="14.4">4%</text>
<text transform="matrix(1 0 0 1 578.5148 343.3274)" fill="#333333" font-family="'Helvetica-Narrow-Bold'" font-size="14.4">40%</text>
<text transform="matrix(1 0 0 1 546.3336 379.2356)" fill="#333333" font-family="'Helvetica-Narrow-Bold'" font-size="14.4">35%</text>
<text transform="matrix(1 0 0 1 518.3336 334.1273)" fill="#333333" font-family="'Helvetica-Narrow-Bold'" font-size="14.4">22%</text>
<text transform="matrix(1 0 0 1 544.0179 310.049)" fill="#333333" font-family="'Helvetica-Narrow-Bold'" font-size="14.4">3%</text>
<text transform="matrix(0.9887 0 0 1 433.3712 343.3275)" fill="#333333" font-family="'Helvetica-Narrow-Bold'" font-size="14.4">39%</text>
<text transform="matrix(1 0 0 1 401.9916 379.2356)" fill="#333333" font-family="'Helvetica-Narrow-Bold'" font-size="14.4">40%</text>
<text transform="matrix(1 0 0 1 376.3911 326.1281)" fill="#333333" font-family="'Helvetica-Narrow-Bold'" font-size="14.4">20%</text>
<text transform="matrix(1 0 0 1 399.6753 310.049)" fill="#333333" font-family="'Helvetica-Narrow-Bold'" font-size="14.4">1%</text>
<g>
	<path fill="#0064DC" d="M230.041,34.335c0.847-0.017,1.536-0.713,1.536-1.568s-0.689-1.551-1.536-1.568
		c-0.847,0.017-1.536,0.713-1.536,1.568C228.505,33.622,229.194,34.318,230.041,34.335z"/>
	<path fill="#0064DC" d="M232.862,34.963l-2.794-0.326l-2.732,0.326c-0.215,0-0.385,0.16-0.385,0.375v4.563
		c0,0.215-0.163,0.626,0.052,0.626h0.196c0.215,0,0.552-0.411,0.552-0.626v-3.292c0-0.215-0.068-0.228-0.006-0.228
		s0.006,0.013,0.006,0.228v10.332c0,0.215,0.579-0.014,0.794-0.014h0.359c0.215,0,0.448,0.229,0.448,0.014v-4.742
		c0-0.215,0.12-0.072,0.335-0.072h0.342h0.342c0.215,0,0.581-0.143,0.581,0.072v4.742c0,0.215-0.014-0.014,0.201-0.014h0.359
		c0.215,0,0.24,0.229,0.24,0.014V36.609c0-0.215,0.337-0.228,0.4-0.228s0.4,0.013,0.4,0.228v3.292c0,0.215-0.033,0.626,0.182,0.626
		h0.22c0.215,0,0.398-0.411,0.398-0.626v-4.563C233.35,35.123,233.077,34.963,232.862,34.963z"/>
</g>
<g>
	<path fill="#FF2300" d="M276.346,34.964l-2.734-0.326l-2.953,0.326c-0.215,0-0.509,0.16-0.509,0.375v4.563
		c0,0.215,0.512,0.625,0.727,0.625h0.261c0.215,0,0.612-0.41,0.612-0.625V36.61c0-0.215-0.051-0.228,0.012-0.228
		s0.021,0.023,0.063,0.228l0.404,2.311l-1.523,4.007h1.044v4.015c0,0.215,0.184-0.015,0.399-0.015h0.359
		c0.215,0,0.043,0.23,0.043,0.015v-4.015h1.147h0.453v4.015c0,0.215,0.521-0.015,0.736-0.015h0.359c0.215,0,0.505,0.23,0.505,0.015
		v-4.015h0.938l-1.498-4.007l0.43-2.414c0.042-0.205,0.002-0.177,0.065-0.177s0.065,0.065,0.065,0.28v3.292
		c0,0.215,0.29,0.625,0.505,0.625h0.261c0.215,0,0.034-0.41,0.034-0.625v-4.563C276.55,35.124,276.561,34.964,276.346,34.964z"/>
	<path fill="#FF2300" d="M273.648,34.337c0.011,0,0.016-0.001,0.049-0.001c0.033,0,0.038,0.001,0.049,0.001
		c0.867,0,1.569-0.702,1.569-1.569s-0.702-1.569-1.569-1.569c-0.011,0-0.016,0.001-0.049,0.001c-0.033,0-0.038-0.001-0.049-0.001
		c-0.867,0-1.569,0.702-1.569,1.569C272.079,33.634,272.781,34.337,273.648,34.337z"/>
</g>
<g>
	<path fill="#F2F2F2" d="M61.75,95.127c0,2.75-2.25,5-5,5h-23.6c-2.75,0-5-2.25-5-5v-23.6c0-2.75,2.25-5,5-5h23.6c2.75,0,5,2.25,5,5
		V95.127z"/>
	<path fill="none" stroke="#E6E6E6" stroke-miterlimit="10" d="M61.75,95.127c0,2.75-2.25,5-5,5h-23.6c-2.75,0-5-2.25-5-5v-23.6
		c0-2.75,2.25-5,5-5h23.6c2.75,0,5,2.25,5,5V95.127z"/>
</g>
<g>
	<path fill="#F2F2F2" d="M61.75,147.927c0,2.75-2.25,5-5,5h-23.6c-2.75,0-5-2.25-5-5v-23.6c0-2.75,2.25-5,5-5h23.6
		c2.75,0,5,2.25,5,5V147.927z"/>
	<path fill="none" stroke="#E6E6E6" stroke-miterlimit="10" d="M61.75,147.927c0,2.75-2.25,5-5,5h-23.6c-2.75,0-5-2.25-5-5v-23.6
		c0-2.75,2.25-5,5-5h23.6c2.75,0,5,2.25,5,5V147.927z"/>
</g>
<g>
	<path fill="#F2F2F2" d="M61.75,199.927c0,2.75-2.25,5-5,5h-23.6c-2.75,0-5-2.25-5-5v-23.6c0-2.75,2.25-5,5-5h23.6
		c2.75,0,5,2.25,5,5V199.927z"/>
	<path fill="none" stroke="#E6E6E6" stroke-miterlimit="10" d="M61.75,199.927c0,2.75-2.25,5-5,5h-23.6c-2.75,0-5-2.25-5-5v-23.6
		c0-2.75,2.25-5,5-5h23.6c2.75,0,5,2.25,5,5V199.927z"/>
</g>
<g>
	<path fill="#F2F2F2" d="M61.75,252.727c0,2.75-2.25,5-5,5h-23.6c-2.75,0-5-2.25-5-5v-23.6c0-2.75,2.25-5,5-5h23.6
		c2.75,0,5,2.25,5,5V252.727z"/>
	<path fill="none" stroke="#E6E6E6" stroke-miterlimit="10" d="M61.75,252.727c0,2.75-2.25,5-5,5h-23.6c-2.75,0-5-2.25-5-5v-23.6
		c0-2.75,2.25-5,5-5h23.6c2.75,0,5,2.25,5,5V252.727z"/>
</g>
<g>
	<path fill="#F2F2F2" d="M61.75,305.261c0,2.75-2.25,5-5,5h-23.6c-2.75,0-5-2.25-5-5v-23.6c0-2.75,2.25-5,5-5h23.6
		c2.75,0,5,2.25,5,5V305.261z"/>
	<path fill="none" stroke="#E6E6E6" stroke-miterlimit="10" d="M61.75,305.261c0,2.75-2.25,5-5,5h-23.6c-2.75,0-5-2.25-5-5v-23.6
		c0-2.75,2.25-5,5-5h23.6c2.75,0,5,2.25,5,5V305.261z"/>
</g>
<g>
	<path fill="#F2F2F2" d="M61.75,357.794c0,2.75-2.25,5-5,5h-23.6c-2.75,0-5-2.25-5-5v-23.6c0-2.75,2.25-5,5-5h23.6
		c2.75,0,5,2.25,5,5V357.794z"/>
	<path fill="none" stroke="#E6E6E6" stroke-miterlimit="10" d="M61.75,357.794c0,2.75-2.25,5-5,5h-23.6c-2.75,0-5-2.25-5-5v-23.6
		c0-2.75,2.25-5,5-5h23.6c2.75,0,5,2.25,5,5V357.794z"/>
</g>
<g>
	<path fill="#F2F2F2" d="M61.75,410.327c0,2.75-2.25,5-5,5h-23.6c-2.75,0-5-2.25-5-5v-23.6c0-2.75,2.25-5,5-5h23.6
		c2.75,0,5,2.25,5,5V410.327z"/>
	<path fill="none" stroke="#E6E6E6" stroke-miterlimit="10" d="M61.75,410.327c0,2.75-2.25,5-5,5h-23.6c-2.75,0-5-2.25-5-5v-23.6
		c0-2.75,2.25-5,5-5h23.6c2.75,0,5,2.25,5,5V410.327z"/>
</g>
<text transform="matrix(1 0 0 1 264.4143 80.1272)" fill="#0064DC" font-family="'MicrosoftJhengHeiBold'" font-size="14.4">31%</text>
<text transform="matrix(1 0 0 1 264.4143 132.3672)" fill="#0064DC" font-family="'MicrosoftJhengHeiBold'" font-size="14.4">26%</text>
<text transform="matrix(1 0 0 1 264.4143 184.6072)" fill="#0064DC" font-family="'MicrosoftJhengHeiBold'" font-size="14.4">20%</text>
<text transform="matrix(1 0 0 1 264.4143 236.8472)" fill="#0064DC" font-family="'MicrosoftJhengHeiBold'" font-size="14.4">15%</text>
<text transform="matrix(1 0 0 1 264.4143 289.0872)" fill="#0064DC" font-family="'MicrosoftJhengHeiBold'" font-size="14.4">10%</text>
<text transform="matrix(1 0 0 1 272.9923 341.3272)" fill="#0064DC" font-family="'MicrosoftJhengHeiBold'" font-size="14.4">3%</text>
<text transform="matrix(1 0 0 1 272.9923 393.5672)" fill="#0064DC" font-family="'MicrosoftJhengHeiBold'" font-size="14.4">0%</text>
<text transform="matrix(1 0 0 1 264.4143 99.9645)" fill="#FF2300" font-family="'MicrosoftJhengHeiBold'" font-size="14.4">29%</text>
<text transform="matrix(1 0 0 1 264.4143 152.2045)" fill="#FF2300" font-family="'MicrosoftJhengHeiBold'" font-size="14.4">24%</text>
<text transform="matrix(1 0 0 1 264.4143 204.4445)" fill="#FF2300" font-family="'MicrosoftJhengHeiBold'" font-size="14.4">18%</text>
<text transform="matrix(1 0 0 1 264.4143 256.6845)" fill="#FF2300" font-family="'MicrosoftJhengHeiBold'" font-size="14.4">12%</text>
<text transform="matrix(1 0 0 1 264.4143 308.9245)" fill="#FF2300" font-family="'MicrosoftJhengHeiBold'" font-size="14.4">20%</text>
<text transform="matrix(1 0 0 1 272.9923 361.1645)" fill="#FF2300" font-family="'MicrosoftJhengHeiBold'" font-size="14.4">1%</text>
<text transform="matrix(1 0 0 1 272.9923 413.4045)" fill="#FF2300" font-family="'MicrosoftJhengHeiBold'" font-size="14.4">0%</text>
<text transform="matrix(1 0 0 1 192.8303 80.1272)" fill="#0064DC" font-family="'MicrosoftJhengHeiBold'" font-size="14.4">264</text>
<text transform="matrix(1 0 0 1 201.4083 132.3672)" fill="#0064DC" font-family="'MicrosoftJhengHeiBold'" font-size="14.4">86</text>
<text transform="matrix(1 0 0 1 201.4083 184.6072)" fill="#0064DC" font-family="'MicrosoftJhengHeiBold'" font-size="14.4">24</text>
<text transform="matrix(1 0 0 1 201.4083 236.8472)" fill="#0064DC" font-family="'MicrosoftJhengHeiBold'" font-size="14.4">17</text>
<text transform="matrix(1 0 0 1 192.8303 289.0872)" fill="#0064DC" font-family="'MicrosoftJhengHeiBold'" font-size="14.4">165</text>
<text transform="matrix(1 0 0 1 201.4083 341.3272)" fill="#0064DC" font-family="'MicrosoftJhengHeiBold'" font-size="14.4">16</text>
<text transform="matrix(1 0 0 1 209.9863 393.5672)" fill="#0064DC" font-family="'MicrosoftJhengHeiBold'" font-size="14.4">0</text>
<text transform="matrix(1 0 0 1 74.476 101.7272)" fill="#42210B" font-family="'MicrosoftJhengHeiRegular'" font-size="14.4">391</text>
<text transform="matrix(1 0 0 1 74.476 153.9672)" fill="#42210B" font-family="'MicrosoftJhengHeiRegular'" font-size="14.4">154</text>
<text transform="matrix(1 0 0 1 74.476 206.2072)" fill="#42210B" font-family="'MicrosoftJhengHeiRegular'" font-size="14.4">54</text>
<text transform="matrix(1 0 0 1 74.476 258.4472)" fill="#42210B" font-family="'MicrosoftJhengHeiRegular'" font-size="14.4">46</text>
<text transform="matrix(1 0 0 1 74.476 310.6872)" fill="#42210B" font-family="'MicrosoftJhengHeiRegular'" font-size="14.4">282</text>
<text transform="matrix(1 0 0 1 74.476 362.9272)" fill="#42210B" font-family="'MicrosoftJhengHeiRegular'" font-size="14.4">27</text>
<text transform="matrix(1 0 0 1 74.476 415.1672)" fill="#42210B" font-family="'MicrosoftJhengHeiRegular'" font-size="14.4">0</text>
<text transform="matrix(1 0 0 1 192.8303 99.9645)" fill="#FF2300" font-family="'MicrosoftJhengHeiBold'" font-size="14.4">127</text>
<text transform="matrix(1 0 0 1 201.4083 152.2045)" fill="#FF2300" font-family="'MicrosoftJhengHeiBold'" font-size="14.4">68</text>
<text transform="matrix(1 0 0 1 201.4083 204.4445)" fill="#FF2300" font-family="'MicrosoftJhengHeiBold'" font-size="14.4">30</text>
<text transform="matrix(1 0 0 1 201.4083 256.6845)" fill="#FF2300" font-family="'MicrosoftJhengHeiBold'" font-size="14.4">29</text>
<text transform="matrix(1 0 0 1 192.8303 308.9245)" fill="#FF2300" font-family="'MicrosoftJhengHeiBold'" font-size="14.4">117</text>
<text transform="matrix(1 0 0 1 201.4083 361.1645)" fill="#FF2300" font-family="'MicrosoftJhengHeiBold'" font-size="14.4">11</text>
<text transform="matrix(1 0 0 1 209.9863 413.4045)" fill="#FF2300" font-family="'MicrosoftJhengHeiBold'" font-size="14.4">0</text>
<path fill="#4D4D4D" d="M47.439,45.242c-0.698,0-1.263-0.565-1.263-1.263V30.505c0-0.698,0.565-1.263,1.263-1.263
	s1.263,0.565,1.263,1.263v13.474C48.702,44.677,48.137,45.242,47.439,45.242 M42.386,45.242c-0.698,0-1.263-0.565-1.263-1.263
	V33.874c0-0.698,0.565-1.263,1.263-1.263s1.263,0.565,1.263,1.263v10.105C43.65,44.677,43.084,45.242,42.386,45.242 M37.334,45.242
	c-0.698,0-1.263-0.565-1.263-1.263v-6.737c0-0.698,0.565-1.263,1.263-1.263s1.263,0.565,1.263,1.263v6.737
	C38.597,44.677,38.032,45.242,37.334,45.242 M32.281,45.242c-0.698,0-1.263-0.565-1.263-1.263v-3.368
	c0-0.698,0.565-1.263,1.263-1.263c0.698,0,1.263,0.565,1.263,1.263v3.368C33.544,44.677,32.979,45.242,32.281,45.242"/>
<text transform="matrix(1 0 0 1 31.6733 86.6022)" fill="#B3B3B3" font-family="'ArialMT'" font-size="12.8">Logo</text>
<text transform="matrix(1 0 0 1 31.6733 138.5271)" fill="#B3B3B3" font-family="'ArialMT'" font-size="12.8">Logo</text>
<text transform="matrix(1 0 0 1 31.6733 190.9271)" fill="#B3B3B3" font-family="'ArialMT'" font-size="12.8">Logo</text>
<text transform="matrix(1 0 0 1 31.6733 243.3275)" fill="#B3B3B3" font-family="'ArialMT'" font-size="12.8">Logo</text>
<text transform="matrix(1 0 0 1 31.6733 296.927)" fill="#B3B3B3" font-family="'ArialMT'" font-size="12.8">Logo</text>
<text transform="matrix(1 0 0 1 31.6733 349.7278)" fill="#B3B3B3" font-family="'ArialMT'" font-size="12.8">Logo</text>
<text transform="matrix(1 0 0 1 31.6733 401.6253)" fill="#B3B3B3" font-family="'ArialMT'" font-size="12.8">Logo</text>
</svg>
