<?xml version="1.0" encoding="utf-8"?>
<!-- Generator: Adobe Illustrator 17.0.0, SVG Export Plug-In . SVG Version: 6.00 Build 0)  -->
<!DOCTYPE svg PUBLIC "-//W3C//DTD SVG 1.1//EN" "http://www.w3.org/Graphics/SVG/1.1/DTD/svg11.dtd">
<svg version="1.1" id="圖層_1" xmlns="http://www.w3.org/2000/svg" xmlns:xlink="http://www.w3.org/1999/xlink" x="0px" y="0px"
	 width="800px" height="230px" viewBox="0 0 800 230" enable-background="new 0 0 800 230" xml:space="preserve">
<g>
	
		<line fill="none" stroke="#CCCCCC" stroke-miterlimit="10" stroke-dasharray="4,5" x1="38.31" y1="90.327" x2="783.11" y2="90.327"/>
	<polyline fill="none" stroke="#CCCCCC" stroke-miterlimit="10" points="783.11,199.927 38.71,199.927 38.71,64.327 	"/>
	<text transform="matrix(1 0 0 1 281.536 221.6563)" fill="#595757" font-family="'ArialNarrow'" font-size="10">08:00</text>
	<text transform="matrix(1 0 0 1 311.8891 221.6563)" fill="#595757" font-family="'ArialNarrow'" font-size="10">09:00</text>
	<text transform="matrix(1 0 0 1 342.242 221.6563)" fill="#595757" font-family="'ArialNarrow'" font-size="10">10:00</text>
	<text transform="matrix(1 0 0 1 372.8833 221.6563)" fill="#595757" font-family="'ArialNarrow'" font-size="10">1</text>
	<text transform="matrix(1 0 0 1 376.6853 221.6563)" fill="#595757" font-family="'ArialNarrow'" font-size="10">1:00</text>
	<text transform="matrix(1 0 0 1 402.9481 221.6563)" fill="#595757" font-family="'ArialNarrow'" font-size="10">12:00</text>
	<text transform="matrix(1 0 0 1 433.3015 221.6563)" fill="#595757" font-family="'ArialNarrow'" font-size="10">13:00</text>
	<text transform="matrix(1 0 0 1 463.655 221.6563)" fill="#595757" font-family="'ArialNarrow'" font-size="10">14:00</text>
	<text transform="matrix(1 0 0 1 494.0073 221.6563)" fill="#595757" font-family="'ArialNarrow'" font-size="10">15:00</text>
	<text transform="matrix(1 0 0 1 524.3602 221.6563)" fill="#595757" font-family="'ArialNarrow'" font-size="10">16:00</text>
	<text transform="matrix(1 0 0 1 554.7147 221.6563)" fill="#595757" font-family="'ArialNarrow'" font-size="10">17:00</text>
	<text transform="matrix(1 0 0 1 585.0671 221.6563)" fill="#595757" font-family="'ArialNarrow'" font-size="10">18:00</text>
	<text transform="matrix(1 0 0 1 615.4208 221.6563)" fill="#595757" font-family="'ArialNarrow'" font-size="10">19:00</text>
	<text transform="matrix(1 0 0 1 645.7742 221.6563)" fill="#595757" font-family="'ArialNarrow'" font-size="10">20:00</text>
	<text transform="matrix(1 0 0 1 676.1267 221.6563)" fill="#595757" font-family="'ArialNarrow'" font-size="10">21:00</text>
	<text transform="matrix(1 0 0 1 706.48 221.6563)" fill="#595757" font-family="'ArialNarrow'" font-size="10">22:00</text>
	<text transform="matrix(1 0 0 1 736.8328 221.6563)" fill="#595757" font-family="'ArialNarrow'" font-size="10">23:00</text>
	<text transform="matrix(1 0 0 1 767.1863 221.6563)" fill="#595757" font-family="'ArialNarrow'" font-size="10">24:00</text>
	<text transform="matrix(1 0 0 1 251.1824 221.6563)" fill="#595757" font-family="'ArialNarrow'" font-size="10">07:00</text>
	<text transform="matrix(1 0 0 1 220.8298 221.6563)" fill="#595757" font-family="'ArialNarrow'" font-size="10">06:00</text>
	<text transform="matrix(1 0 0 1 190.4753 221.6563)" fill="#595757" font-family="'ArialNarrow'" font-size="10">05:00</text>
	<text transform="matrix(1 0 0 1 160.1228 221.6563)" fill="#595757" font-family="'ArialNarrow'" font-size="10">04:00</text>
	<text transform="matrix(1 0 0 1 129.7702 221.6563)" fill="#595757" font-family="'ArialNarrow'" font-size="10">03:00</text>
	<text transform="matrix(1 0 0 1 99.4167 221.6563)" fill="#595757" font-family="'ArialNarrow'" font-size="10">02:00</text>
	<text transform="matrix(1 0 0 1 69.0633 221.6563)" fill="#595757" font-family="'ArialNarrow'" font-size="10">01:00</text>
	<text transform="matrix(1 0 0 1 38.7104 221.6563)" fill="#595757" font-family="'ArialNarrow'" font-size="10">00:00</text>
	<text transform="matrix(1 0 0 1 10.1196 220.8565)" fill="#595757" font-family="'MicrosoftJhengHeiRegular'" font-size="7.2">(Time)</text>
	<text transform="matrix(1 0 0 1 27.6462 199.5489)" fill="#595757" font-family="'ArialNarrow'" font-size="10">0</text>
	<text transform="matrix(1 0 0 1 18.8891 128.5011)" fill="#595757" font-family="'ArialNarrow'" font-size="10">100</text>
	<line fill="none" stroke="#CCCCCC" stroke-miterlimit="10" x1="38.71" y1="200.327" x2="38.71" y2="5.927"/>
	<text transform="matrix(1 0 0 1 18.8891 92.9756)" fill="#595757" font-family="'ArialNarrow'" font-size="10">150</text>
	<text transform="matrix(1 0 0 1 18.8891 57.4521)" fill="#595757" font-family="'ArialNarrow'" font-size="10">200</text>
	<text transform="matrix(1 0 0 1 18.8891 21.9277)" fill="#595757" font-family="'ArialNarrow'" font-size="10">250</text>
	<text transform="matrix(1 0 0 1 23.268 164.0254)" fill="#595757" font-family="'ArialNarrow'" font-size="10">50</text>
	<g>
		<circle fill="#FF2300" cx="49.95" cy="133.235" r="2.4"/>
		<circle fill="#FF2300" cx="80.151" cy="137.245" r="2.4"/>
		<circle fill="#FF2300" cx="110.352" cy="153.876" r="2.4"/>
		<circle fill="#FF2300" cx="140.554" cy="160.445" r="2.4"/>
		<circle fill="#FF2300" cx="170.755" cy="168.276" r="2.4"/>
		<circle fill="#FF2300" cx="200.956" cy="139.476" r="2.4"/>
		<circle fill="#FF2300" cx="231.157" cy="136.276" r="2.4"/>
		<circle fill="#FF2300" cx="261.358" cy="117.076" r="2.4"/>
		<circle fill="#FF2300" cx="291.559" cy="115.476" r="2.4"/>
		<circle fill="#FF2300" cx="351.962" cy="101.876" r="2.4"/>
		<circle fill="#FF2300" cx="321.761" cy="88.523" r="2.4"/>
		<circle fill="#FF2300" cx="382.163" cy="102.676" r="2.4"/>
		<circle fill="#FF2300" cx="412.365" cy="94.676" r="2.4"/>
		<circle fill="#FF2300" cx="442.566" cy="102.676" r="2.4"/>
		<circle fill="#FF2300" cx="472.767" cy="107.476" r="2.4"/>
		<circle fill="#FF2300" cx="502.968" cy="110.676" r="2.4"/>
		<circle fill="#FF2300" cx="533.169" cy="89.912" r="2.4"/>
		<circle fill="#FF2300" cx="593.572" cy="92.976" r="2.4"/>
		<circle fill="#FF2300" cx="623.773" cy="94.676" r="2.4"/>
		<circle fill="#FF2300" cx="653.975" cy="102.676" r="2.4"/>
		<circle fill="#FF2300" cx="684.175" cy="94.676" r="2.4"/>
		<circle fill="#FF2300" cx="714.377" cy="86.676" r="2.4"/>
		<circle fill="#FF2300" cx="744.578" cy="102.676" r="2.4"/>
		<circle fill="#FF2300" cx="774.779" cy="107.476" r="2.4"/>
		<polyline fill="none" stroke="#FF2300" stroke-miterlimit="10" points="38.31,133.527 49.95,133.527 80.151,137.391 
			110.352,153.949 140.554,160.482 170.755,168.295 200.956,139.486 231.157,136.281 261.358,117.079 291.559,115.478 
			321.761,88.524 351.962,101.877 382.163,102.677 412.365,94.676 442.566,102.676 472.767,107.476 502.968,110.676 533.169,89.912 
			563.371,81.394 593.572,92.976 623.773,94.676 653.975,102.676 684.175,94.676 714.377,86.676 744.578,102.676 774.579,107.622 		
			"/>
		<circle fill="#FFFFFF" stroke="#FF2300" stroke-width="0.5" stroke-miterlimit="10" cx="564.287" cy="81.326" r="4"/>
		<circle fill="#FF2300" cx="564.287" cy="81.326" r="2.8"/>
	</g>
	<g>
		<circle fill="#0064DC" cx="49.95" cy="119.399" r="2.4"/>
		<circle fill="#0064DC" cx="80.151" cy="128.209" r="2.4"/>
		<circle fill="#0064DC" cx="110.352" cy="148.04" r="2.4"/>
		<circle fill="#0064DC" cx="140.554" cy="168.209" r="2.4"/>
		<circle fill="#0064DC" cx="170.755" cy="171.24" r="2.4"/>
		<circle fill="#0064DC" cx="200.956" cy="148.04" r="2.4"/>
		<circle fill="#0064DC" cx="231.157" cy="144.84" r="2.4"/>
		<circle fill="#0064DC" cx="261.358" cy="130.44" r="2.4"/>
		<circle fill="#0064DC" cx="291.559" cy="123.24" r="2.4"/>
		<circle fill="#0064DC" cx="321.761" cy="108.84" r="2.4"/>
		<circle fill="#0064DC" cx="351.032" cy="92.04" r="2.4"/>
		<circle fill="#0064DC" cx="412.365" cy="81.912" r="2.4"/>
		<circle fill="#0064DC" cx="442.566" cy="98.44" r="2.4"/>
		<circle fill="#0064DC" cx="472.767" cy="116.04" r="2.4"/>
		<circle fill="#0064DC" cx="502.968" cy="120.44" r="2.4"/>
		<circle fill="#0064DC" cx="533.169" cy="118.44" r="2.4"/>
		<path fill="#0064DC" d="M565.771,108.84c0,1.326-1.073,2.4-2.4,2.4c-3.453,0-2.4-2.774-2.4-2.4c0,1.326,1.075-2.4,2.4-2.4
			C564.697,106.44,565.771,107.515,565.771,108.84z"/>
		<circle fill="#0064DC" cx="593.572" cy="100.04" r="2.4"/>
		<circle fill="#0064DC" cx="623.773" cy="102.44" r="2.4"/>
		<circle fill="#0064DC" cx="653.975" cy="116.84" r="2.4"/>
		<circle fill="#0064DC" cx="684.175" cy="115.84" r="2.4"/>
		<circle fill="#0064DC" cx="714.377" cy="109.912" r="2.4"/>
		<circle fill="#0064DC" cx="744.578" cy="119.04" r="2.4"/>
		<circle fill="#0064DC" cx="774.779" cy="117.64" r="2.4"/>
		<polyline fill="none" stroke="#0064DC" stroke-width="0.5" stroke-miterlimit="10" points="38.71,115.399 49.95,119.399 
			80.151,128.209 110.352,148.04 140.554,168.209 170.755,171.24 200.956,148.04 231.157,144.84 261.358,130.44 291.559,123.24 
			321.761,108.84 351.032,92.04 382.163,82.687 412.365,81.912 442.566,98.44 472.767,116.04 502.968,120.44 533.169,118.44 
			563.371,108.84 593.572,100.04 623.773,102.44 653.975,116.84 684.175,115.84 714.377,109.912 744.578,119.04 774.779,117.64 		
			"/>
		<circle fill="#FFFFFF" stroke="#0064DC" stroke-width="0.5" stroke-miterlimit="10" cx="382.164" cy="82.655" r="4"/>
		<circle fill="#0064DC" cx="382.164" cy="82.655" r="2.8"/>
	</g>
	<g>
		<path fill="#FF2300" d="M590.31,53.907c0,5.42-4.394,9.813-9.813,9.813h-31.573c-5.42,0-9.813-4.394-9.813-9.813v-0.853
			c0-5.42,4.394-9.813,9.813-9.813h31.573c5.42,0,9.813,4.394,9.813,9.813V53.907z"/>
		<text transform="matrix(1 0 0 1 551.7944 58.9611)" fill="#FFFFFF" font-family="'ArialMT'" font-size="14.4">154</text>
		<polyline fill="#FF2300" points="568.054,62.093 563.977,71.427 559.562,62.093 		"/>
	</g>
	<g>
		<path fill="#0064DC" d="M407.91,56.3c0,5.42-4.394,9.813-9.813,9.813h-31.573c-5.42,0-9.813-4.394-9.813-9.813v-0.853
			c0-5.42,4.394-9.813,9.813-9.813h31.573c5.42,0,9.813,4.394,9.813,9.813V56.3z"/>
		<text transform="matrix(1 0 0 1 369.986 61.3799)" fill="#FFFFFF" font-family="'ArialMT'" font-size="14.4">152</text>
		<polyline fill="#0064DC" points="386.244,64.513 382.167,73.846 377.752,64.513 		"/>
	</g>
</g>
</svg>
